<?xml version="1.0" standalone="no"?>
<!DOCTYPE svg PUBLIC "-//W3C//DTD SVG 1.1//EN" "http://www.w3.org/Graphics/SVG/1.1/DTD/svg11.dtd" >
<svg xmlns="http://www.w3.org/2000/svg" xmlns:xlink="http://www.w3.org/1999/xlink" version="1.1">
<metadata>
Created by FontForge 20201107 at Thu Apr 13 13:43:06 2023
 By 
Copyright 2017 The Radio-Canada Project Authors (https://github.com/cbcrc/radiocanadafonts)
</metadata>
<defs>
<font id="RadioCanada-Regular" horiz-adv-x="600" >
  <font-face 
    font-family="Radio Canada"
    font-weight="400"
    font-stretch="normal"
    units-per-em="1000"
    panose-1="0 0 0 0 0 0 0 0 0 0"
    ascent="800"
    descent="-200"
    x-height="515"
    cap-height="690"
    bbox="-216 -288 1449 1152"
    underline-thickness="50"
    underline-position="-150"
    unicode-range="U+0020-FB04"
  />
<missing-glyph 
d="M104 -185v875h392v-875h-392zM186 -109h228v723h-228v-723z" />
    <glyph glyph-name="f_f" unicode="ff" horiz-adv-x="697" 
d="M20 435v80h90v42q0 55 22 93.5t59 59t81 20.5q31 0 58 -6t51 -17l-18 -74q-21 9 -40 13.5t-38 4.5q-42 0 -62.5 -26.5t-20.5 -70.5v-39h244v42q0 55 22 93.5t59 59t81 20.5q31 0 58 -6t51 -17l-18 -74q-21 9 -40 13.5t-38 4.5q-42 0 -62.5 -26.5t-20.5 -70.5v-39h152v-80
h-152v-435h-92v435h-244v-435h-92v435h-90z" />
    <glyph glyph-name="f_f_i" unicode="ffi" horiz-adv-x="969" 
d="M20 435v80h90v42q0 55 22 93.5t59 59t81 20.5q31 0 58 -6t51 -17l-18 -74q-21 9 -40 13.5t-38 4.5q-42 0 -62.5 -26.5t-20.5 -70.5v-39h244v42q0 55 22 93.5t59 59t81 20.5q31 0 58 -6t51 -17l-18 -74q-21 9 -40 13.5t-38 4.5q-42 0 -62.5 -26.5t-20.5 -70.5v-39h152v-80
h-152v-435h-92v435h-244v-435h-92v435h-90zM787 0v515h92v-515h-92zM772 667q0 27 17.5 45t43.5 18q28 0 44.5 -18t16.5 -45q0 -26 -16.5 -44t-44.5 -18q-26 0 -43.5 18t-17.5 44z" />
    <glyph glyph-name="f_f_l" unicode="ffl" horiz-adv-x="969" 
d="M20 435v80h90v42q0 55 22 93.5t59 59t81 20.5q31 0 58 -6t51 -17l-18 -74q-21 9 -40 13.5t-38 4.5q-42 0 -62.5 -26.5t-20.5 -70.5v-39h244v42q0 55 22 93.5t59 59t81 20.5q31 0 58 -6t51 -17l-18 -74q-21 9 -40 13.5t-38 4.5q-42 0 -62.5 -26.5t-20.5 -70.5v-39h152v-80
h-152v-435h-92v435h-244v-435h-92v435h-90zM787 0v715l92 20v-735h-92z" />
    <glyph glyph-name="uni00640315.liga" unicode="d&#x315;" horiz-adv-x="586" 
d="M55 253q0 85 26.5 146t74 93.5t111.5 32.5q38 0 75 -17.5t62 -55.5v263l92 20v-613q0 -21 1.5 -38.5t5.5 -39.5l8 -44h-86l-15 74q-33 -37 -75 -60.5t-88 -23.5q-52 0 -96 31.5t-70 90.5t-26 141zM149 256q0 -58 16 -98.5t44 -61.5t63 -21t68.5 17.5t63.5 48.5v142
q0 58 -17.5 94t-45.5 53.5t-58 17.5q-62 0 -98 -53.5t-36 -138.5zM648 721q0 -14 -3.5 -28.5t-11.5 -37.5l-24 -70h-53l20 85q-16 6 -26 20t-10 31q0 23 15.5 38.5t38.5 15.5t38.5 -15.5t15.5 -38.5z" />
    <glyph glyph-name="uni006C0315.liga" unicode="l&#x315;" horiz-adv-x="272" 
d="M90 0v715l92 20v-735h-92zM334 721q0 -14 -3.5 -28.5t-11.5 -37.5l-24 -70h-53l20 85q-16 6 -26 20t-10 31q0 23 15.5 38.5t38.5 15.5t38.5 -15.5t15.5 -38.5z" />
    <glyph glyph-name="uni00740315.liga" unicode="t&#x315;" horiz-adv-x="394" 
d="M20 435v80h90v119l92 20v-139h152v-80h-152v-279q0 -40 19 -61.5t59 -21.5q17 0 34.5 4.5t38.5 12.5l16 -79q-24 -9 -51 -15t-54 -6q-42 0 -77 19t-56 55t-21 88v283h-90zM416 721q0 -14 -3.5 -28.5t-11.5 -37.5l-24 -70h-53l20 85q-16 6 -26 20t-10 31q0 23 15.5 38.5
t38.5 15.5t38.5 -15.5t15.5 -38.5z" />
    <glyph glyph-name="f_i" unicode="fi" horiz-adv-x="633" 
d="M20 435v80h90v42q0 55 22 93.5t59 59t81 20.5q31 0 58 -6t51 -17l-18 -74q-21 9 -40 13.5t-38 4.5q-42 0 -62.5 -26.5t-20.5 -70.5v-39h152v-80h-152v-435h-92v435h-90zM451 0v515h92v-515h-92zM436 667q0 27 17.5 45t43.5 18q28 0 44.5 -18t16.5 -45q0 -26 -16.5 -44
t-44.5 -18q-26 0 -43.5 18t-17.5 44z" />
    <glyph glyph-name="f_l" unicode="fl" horiz-adv-x="633" 
d="M20 435v80h90v42q0 55 22 93.5t59 59t81 20.5q31 0 58 -6t51 -17l-18 -74q-21 9 -40 13.5t-38 4.5q-42 0 -62.5 -26.5t-20.5 -70.5v-39h152v-80h-152v-435h-92v435h-90zM451 0v715l92 20v-735h-92z" />
    <glyph glyph-name="uni0295031502B7.liga" unicode="&#x295;&#x315;&#x2b7;" horiz-adv-x="1091" 
d="M514 576l-76 -44q-25 56 -66.5 84t-101.5 28q-64 0 -101 -32.5t-37 -86.5q0 -39 19 -73t59 -66t103 -66v-320h-92v273q-67 43 -107 82.5t-58 81.5t-18 90q0 62 30 107t83.5 69.5t121.5 24.5q86 0 149.5 -40.5t91.5 -111.5zM621 721q0 -14 -3.5 -28.5t-11.5 -37.5l-24 -70
h-53l20 85q-16 6 -26 20t-10 31q0 23 15.5 38.5t38.5 15.5t38.5 -15.5t15.5 -38.5zM633 690h64l76 -273l-24 1l81 272h56l81 -272l-24 -1l76 273h62l-95 -309h-61l-81 254h26l-81 -254h-61z" />
    <glyph glyph-name="uni1E5B031502B7.liga" unicode="&#x1e5b;&#x315;&#x2b7;" horiz-adv-x="838" 
d="M75 515h86l17 -82q29 43 71.5 67.5t95.5 24.5v-99q-53 -2 -94 -18.5t-69 -45.5v-362h-92v393q0 21 -1.5 38.5t-5.5 39.5zM75 -133q0 27 17.5 45t43.5 18q28 0 44.5 -18t16.5 -45q0 -26 -16.5 -44t-44.5 -18q-26 0 -43.5 18t-17.5 44zM342 721q0 -14 -3.5 -28.5
t-11.5 -37.5l-24 -70h-53l20 85q-16 6 -26 20t-10 31q0 23 15.5 38.5t38.5 15.5t38.5 -15.5t15.5 -38.5zM380 690h64l76 -273l-24 1l81 272h56l81 -272l-24 -1l76 273h62l-95 -309h-61l-81 254h26l-81 -254h-61z" />
    <glyph glyph-name=".notdef" 
d="M104 -185v875h392v-875h-392zM186 -109h228v723h-228v-723z" />
    <glyph glyph-name=".null" horiz-adv-x="0" 
 />
    <glyph glyph-name="nonmarkingreturn" horiz-adv-x="333" 
 />
    <glyph glyph-name="space" unicode=" " horiz-adv-x="250" 
 />
    <glyph glyph-name="exclam" unicode="!" horiz-adv-x="322" 
d="M100 52q0 27 17.5 45t43.5 18q28 0 44.5 -18t16.5 -45q0 -26 -16.5 -44t-44.5 -18q-26 0 -43.5 18t-17.5 44zM126 210l-16 305v175h102v-175l-16 -305h-70z" />
    <glyph glyph-name="quotedbl" unicode="&#x22;" horiz-adv-x="402" 
d="M65 720h102l-17 -250h-68zM235 720h102l-17 -250h-68z" />
    <glyph glyph-name="numbersign" unicode="#" horiz-adv-x="738" 
d="M65 202v76h120l32 134h-100v76h119l49 202h86l-49 -202h164l49 202h86l-49 -202h101v-76h-120l-32 -134h100v-76h-119l-49 -202h-86l49 202h-164l-49 -202h-86l49 202h-101zM271 278h164l32 134h-164z" />
    <glyph glyph-name="dollar" unicode="$" 
d="M273 -100v92q-67 6 -130.5 34t-104.5 68l56 69q36 -34 81 -55.5t98 -28.5v233q-79 26 -123.5 56.5t-63 66.5t-18.5 77q0 48 25.5 88.5t72 67t107.5 31.5v91h76v-94q49 -7 97 -28.5t87 -54.5l-55 -72q-28 26 -60 44.5t-69 25.5v-218q77 -26 122.5 -59t65.5 -71t20 -80
q0 -73 -53.5 -127t-154.5 -64v-92h-76zM161 522q0 -19 10 -37t34.5 -34.5t67.5 -32.5v198q-55 -5 -83.5 -32t-28.5 -62zM349 79q54 7 81.5 32.5t27.5 59.5q0 22 -10 42t-33.5 38t-65.5 35v-207z" />
    <glyph glyph-name="percent" unicode="%" horiz-adv-x="943" 
d="M75 518q0 54 23 95t62 64t86 23t86 -23t62 -64t23 -95q0 -53 -23 -94t-62 -64t-86 -23t-86 23t-62 64t-23 94zM162 518q0 -50 24.5 -79t59.5 -29t59.5 29t24.5 79t-24.5 79.5t-59.5 29.5t-59.5 -29.5t-24.5 -79.5zM198 0l450 690h97l-450 -690h-97zM526 171q0 54 23 95
t62 64t86 23t86 -23t62 -64t23 -95q0 -53 -23 -94t-62 -64t-86 -23t-86 23t-62 64t-23 94zM613 171q0 -50 24.5 -79t59.5 -29t59.5 29t24.5 79t-24.5 79.5t-59.5 29.5t-59.5 -29.5t-24.5 -79.5z" />
    <glyph glyph-name="ampersand" unicode="&#x26;" horiz-adv-x="660" 
d="M48 170q0 60 36.5 108t99.5 82l146 80q23 13 38.5 26t23.5 28.5t8 35.5q0 38 -24.5 64t-65.5 26t-65.5 -26t-24.5 -64q0 -37 20.5 -64.5t54.5 -65.5l355 -400h-120l-310 350q-34 38 -62 83t-28 97q0 45 22 84t62.5 62.5t95.5 23.5t95 -23.5t61.5 -60t21.5 -76.5
q0 -35 -15 -63.5t-41.5 -52.5t-61.5 -44l-140 -80q-45 -25 -66.5 -58.5t-21.5 -71.5q0 -45 33 -72.5t85 -27.5q65 0 114 33.5t85 90t61 126.5l80 -30q-22 -56 -54.5 -109.5t-75.5 -96.5t-97.5 -68.5t-122.5 -25.5q-60 0 -105.5 22t-71 62.5t-25.5 95.5z" />
    <glyph glyph-name="quotesingle" unicode="'" horiz-adv-x="232" 
d="M65 720h102l-17 -250h-68z" />
    <glyph glyph-name="parenleft" unicode="(" horiz-adv-x="332" 
d="M75 268q0 111 32.5 204t91 168t134.5 133l34 -43q-62 -54 -109.5 -128t-74 -159t-26.5 -175q0 -89 26.5 -175t74 -159.5t109.5 -128.5l-34 -43q-76 58 -134.5 133.5t-91 168.5t-32.5 204z" />
    <glyph glyph-name="parenright" unicode=")" horiz-adv-x="332" 
d="M-35 -195q63 55 110 128.5t73.5 159.5t26.5 175q0 90 -26.5 175t-73.5 159t-110 128l34 43q77 -58 135 -133t90.5 -168t32.5 -204t-32.5 -204t-90.5 -168.5t-135 -133.5z" />
    <glyph glyph-name="asterisk" unicode="*" horiz-adv-x="598" 
d="M65 517l28 85l174 -71l-13 189h90l-13 -189l174 71l28 -85l-187 -47l122 -145l-73 -53l-96 154l-96 -154l-73 53l122 145z" />
    <glyph glyph-name="plus" unicode="+" 
d="M73 250v80h186v185h82v-185h186v-80h-186v-185h-82v185h-186z" />
    <glyph glyph-name="comma" unicode="," horiz-adv-x="222" 
d="M57 -145l35 138q-18 5 -31 20t-13 40q0 27 18.5 44.5t44.5 17.5q28 0 45.5 -18.5t17.5 -52.5q0 -16 -4 -32.5t-12 -36.5l-45 -120h-56z" />
    <glyph glyph-name="hyphen" unicode="-" horiz-adv-x="368" 
d="M60 235v80h248v-80h-248z" />
    <glyph glyph-name="period" unicode="." horiz-adv-x="222" 
d="M50 52q0 27 17.5 45t43.5 18q28 0 44.5 -18t16.5 -45q0 -26 -16.5 -44t-44.5 -18q-26 0 -43.5 18t-17.5 44z" />
    <glyph glyph-name="slash" unicode="/" horiz-adv-x="336" 
d="M0 -30l250 750h86l-250 -750h-86z" />
    <glyph glyph-name="zero" unicode="0" 
d="M37 345q0 122 36 200.5t95.5 116.5t131.5 38t132 -38t95.5 -116.5t35.5 -200.5q0 -121 -35.5 -200t-95.5 -117t-132 -38t-131.5 38t-95.5 117t-36 200zM136 345q0 -93 21.5 -152t58.5 -86.5t84 -27.5t84 27.5t58.5 86.5t21.5 152q0 94 -21.5 152.5t-58.5 86t-84 27.5
t-84 -27.5t-58.5 -86t-21.5 -152.5z" />
    <glyph glyph-name="one" unicode="1" 
d="M82 0v81h175v504l-141 -64l-34 78l201 91h70v-609h165v-81h-436z" />
    <glyph glyph-name="two" unicode="2" 
d="M53 588q32 36 67.5 61t77 38t89.5 13q64 0 116 -27t82.5 -74.5t30.5 -110.5q0 -34 -12.5 -69t-43 -76t-85.5 -93l-172 -164h323v-86h-464v66l249 250q43 43 65.5 71t31.5 51t9 50q0 32 -15 59.5t-44.5 44.5t-73.5 17q-36 0 -64.5 -10t-53 -29t-48.5 -47z" />
    <glyph glyph-name="three" unicode="3" 
d="M43 84l65 68q33 -37 75.5 -54t95.5 -17q65 0 109.5 31.5t44.5 92.5q0 39 -22 67t-60 42.5t-87 14.5h-83v61l194 209h-310v91h444v-66l-206 -216q66 -1 118 -24.5t81.5 -68t29.5 -110.5q0 -69 -34.5 -117t-92 -73t-126.5 -25q-72 0 -130.5 23t-105.5 71z" />
    <glyph glyph-name="four" unicode="4" 
d="M37 206l313 484h114v-464h91v-86h-91v-140h-96v140h-331v66zM119 190l-20 36h269v393l23 -7z" />
    <glyph glyph-name="five" unicode="5" 
d="M53 84l65 68q33 -37 75.5 -54t95.5 -17q69 0 111.5 35.5t42.5 93.5q0 57 -42.5 94.5t-111.5 37.5q-43 0 -78.5 -13t-70.5 -41l-46 33l18 369h385v-93h-301l-11 -212q29 20 63.5 30.5t73.5 10.5q63 0 112.5 -26.5t78.5 -74.5t29 -115q0 -65 -32.5 -114.5t-89.5 -77.5
t-131 -28q-72 0 -130.5 23t-105.5 71z" />
    <glyph glyph-name="six" unicode="6" 
d="M52 320q0 95 25.5 166t69 118.5t97.5 71.5t111 24q44 0 84.5 -12.5t75.5 -38.5l-49 -80q-26 20 -53.5 31t-67.5 11q-43 0 -85.5 -26t-72.5 -83t-35 -149q30 41 77.5 65t99.5 24q62 0 111 -26.5t77 -75.5t28 -115q0 -69 -32.5 -122t-86.5 -83t-120 -30q-73 0 -130.5 39
t-90.5 112.5t-33 178.5zM153 278q8 -100 51 -151t107 -51q37 0 67.5 19t49 52t18.5 75q0 39 -17.5 68t-47.5 44.5t-68 15.5q-32 0 -61 -8.5t-53.5 -24.5t-45.5 -39z" />
    <glyph glyph-name="seven" unicode="7" 
d="M60 599v91h454v-66l-242 -624h-106l246 599h-352z" />
    <glyph glyph-name="eight" unicode="8" 
d="M54 173q0 41 17.5 75.5t51.5 60t82 39.5q-47 23 -75 48.5t-40 55t-12 62.5q0 52 27.5 94t77.5 67t116 25t115.5 -23.5t77 -63.5t27.5 -91q0 -35 -14 -64t-41.5 -51t-67.5 -36q57 -27 90 -58t46.5 -64t13.5 -68q0 -53 -28.5 -96.5t-83.5 -69t-136 -25.5q-75 0 -130 23
t-84.5 64t-29.5 96zM148 179q0 -32 18 -55.5t52 -36.5t80 -13q51 0 84 13.5t49 35t16 46.5q0 20 -7 38.5t-23 36.5t-44.5 34.5t-72.5 31.5l-21 7q-41 -11 -70.5 -32.5t-45 -49t-15.5 -56.5zM171 524q0 -22 13 -43t41.5 -39t74.5 -33l22 -7q34 11 57 27.5t34.5 38.5t11.5 47
q0 29 -14.5 52.5t-42.5 37.5t-69 14q-45 0 -73 -13.5t-41.5 -35t-13.5 -46.5z" />
    <glyph glyph-name="nine" unicode="9" 
d="M55 465q0 69 32.5 122t87 83t119.5 30q73 0 130.5 -38.5t90.5 -112.5t33 -179q0 -95 -25.5 -166.5t-69 -119t-97.5 -71t-111 -23.5q-43 0 -84 13t-76 38l49 80q26 -19 53.5 -30.5t67.5 -11.5q43 0 85.5 26t72.5 82.5t35 149.5q-30 -41 -77.5 -65t-99.5 -24q-62 0 -111 27
t-77 75.5t-28 114.5zM154 468q0 -39 17.5 -67.5t48 -44.5t67.5 -16q48 0 88.5 19t71.5 53q-7 100 -50.5 151t-107.5 51q-36 0 -67 -19t-49.5 -52t-18.5 -75z" />
    <glyph glyph-name="colon" unicode=":" horiz-adv-x="222" 
d="M50 52q0 27 17.5 45t43.5 18q28 0 44.5 -18t16.5 -45q0 -26 -16.5 -44t-44.5 -18q-26 0 -43.5 18t-17.5 44zM50 462q0 27 17.5 45t43.5 18q28 0 44.5 -18t16.5 -45q0 -26 -16.5 -44t-44.5 -18q-26 0 -43.5 18t-17.5 44z" />
    <glyph glyph-name="semicolon" unicode=";" horiz-adv-x="222" 
d="M57 -145l35 138q-18 5 -31 20t-13 40q0 27 18.5 44.5t44.5 17.5q28 0 45.5 -18.5t17.5 -52.5q0 -16 -4 -32.5t-12 -36.5l-45 -120h-56zM50 462q0 27 17.5 45t43.5 18q28 0 44.5 -18t16.5 -45q0 -26 -16.5 -44t-44.5 -18q-26 0 -43.5 18t-17.5 44z" />
    <glyph glyph-name="less" unicode="&#x3c;" 
d="M72 254v72l425 199v-90l-316 -143l316 -144v-93z" />
    <glyph glyph-name="equal" unicode="=" 
d="M73 130v80h454v-80h-454zM73 370v80h454v-80h-454z" />
    <glyph glyph-name="greater" unicode="&#x3e;" 
d="M103 55v90l316 143l-316 144v93l425 -199v-72z" />
    <glyph glyph-name="question" unicode="?" horiz-adv-x="508" 
d="M182 52q0 27 17.5 45t43.5 18q28 0 44.5 -18t16.5 -45q0 -26 -16.5 -44t-44.5 -18q-26 0 -43.5 18t-17.5 44zM25 588q44 53 97.5 82.5t123.5 29.5q56 0 101.5 -23.5t73 -66t27.5 -100.5q0 -35 -14 -66t-39.5 -56t-58.5 -45q-19 -11 -30 -22t-15 -25t-6 -36l-3 -50h-79
l-6 63q-4 41 12 69t48 50q30 20 50.5 38t31 37t10.5 43q0 29 -13.5 51t-37.5 35t-55 13q-51 0 -87 -22.5t-68 -64.5z" />
    <glyph glyph-name="at" unicode="@" horiz-adv-x="982" 
d="M65 252q0 99 32.5 181t91 142t138.5 92.5t175 32.5q96 0 173 -33t131 -92.5t82.5 -140t28.5 -175.5q0 -76 -16 -128t-42 -83t-58.5 -44.5t-65.5 -13.5q-44 0 -83 23.5t-54 79.5q-31 -37 -70.5 -60t-82.5 -23q-50 0 -91.5 29t-66 83.5t-24.5 130.5q0 79 25 135.5t71 86.5
t107 30q37 0 72.5 -19t59.5 -61l15 70h86l-8 -44q-4 -22 -5.5 -39.5t-1.5 -38.5v-240q0 -35 16 -51t39 -16q27 0 49 19.5t34.5 62t12.5 111.5q0 78 -21.5 144.5t-64 116t-104.5 77t-143 27.5q-79 0 -144 -26.5t-112.5 -76t-73 -118.5t-25.5 -154q0 -80 23.5 -147.5
t69.5 -117t112.5 -76.5t153.5 -27q61 0 114.5 14t106.5 39l31 -72q-47 -25 -114.5 -41t-137.5 -16q-105 0 -186.5 32t-138.5 91.5t-86.5 141.5t-29.5 182zM357 256q0 -52 15 -88t40.5 -54.5t57.5 -18.5q31 0 62.5 16.5t59.5 45.5v106q0 58 -16.5 94t-41.5 53.5t-53 17.5
q-58 0 -91 -48t-33 -124z" />
    <glyph glyph-name="A" unicode="A" horiz-adv-x="656" 
d="M20 0l266 690h84l266 -690h-104l-87 235l58 -41h-354l58 41l-87 -235h-100zM209 240l-28 40h290l-28 -40l-132 354h30z" />
    <glyph glyph-name="B" unicode="B" horiz-adv-x="647" 
d="M100 0v690h240q61 0 110.5 -21t79 -62.5t29.5 -101.5q0 -50 -25.5 -86.5t-67.5 -56.5q54 -21 87.5 -63t33.5 -104q0 -63 -31 -106.5t-83 -66t-115 -22.5h-258zM196 84h157q57 0 96 30.5t39 85.5t-38.5 84.5t-96.5 29.5h-157v-230zM196 396h139q53 0 89 27t36 77t-35.5 78
t-89.5 28h-139v-210z" />
    <glyph glyph-name="C" unicode="C" horiz-adv-x="644" 
d="M60 345q0 86 24.5 152t68 111t100 68.5t120.5 23.5q60 0 114 -24t99 -68l-68 -65q-31 32 -67.5 49t-77.5 17q-61 0 -109.5 -30t-76.5 -89t-28 -145t28 -145t76.5 -89t109.5 -30q47 0 86 17t70 51l65 -65q-45 -46 -100.5 -70t-120.5 -24q-64 0 -120.5 23t-100 68.5
t-68 111.5t-24.5 152z" />
    <glyph glyph-name="D" unicode="D" horiz-adv-x="701" 
d="M100 0v690h223q89 0 161 -40t114.5 -117t42.5 -188t-42.5 -188t-114.5 -117t-161 -40h-223zM196 86h122q64 0 114.5 30t80 88t29.5 141t-29.5 141t-80 88t-114.5 30h-122v-518z" />
    <glyph glyph-name="E" unicode="E" horiz-adv-x="621" 
d="M100 0v690h446v-86h-350v-211h300v-86h-300v-221h355v-86h-451z" />
    <glyph glyph-name="F" unicode="F" horiz-adv-x="571" 
d="M100 0v690h431v-86h-335v-234h296v-86h-296v-284h-96z" />
    <glyph glyph-name="G" unicode="G" horiz-adv-x="701" 
d="M60 345q0 86 25.5 152t70 111.5t103 68.5t124.5 23q62 0 116 -21t101 -65l-62 -71q-33 32 -72 49t-83 17q-64 0 -115 -30t-80 -88.5t-29 -145.5q0 -86 30 -146.5t82 -91.5t118 -31q38 0 71.5 9.5t64.5 28.5v143h-150v86h246v-261q-46 -40 -109 -66t-134 -26
q-67 0 -124.5 23t-101 68.5t-68 111.5t-24.5 152z" />
    <glyph glyph-name="H" unicode="H" horiz-adv-x="736" 
d="M100 0v690h96v-297h344v297h96v-690h-96v307h-344v-307h-96z" />
    <glyph glyph-name="I" unicode="I" horiz-adv-x="456" 
d="M80 0v81h100v528h-100v81h296v-81h-100v-528h100v-81h-296z" />
    <glyph glyph-name="J" unicode="J" horiz-adv-x="573" 
d="M45 107l71 56q18 -33 53 -59t85 -26q62 0 98.5 40.5t36.5 127.5v363h-182v81h276v-454q0 -80 -30.5 -135t-82 -83t-115.5 -28q-65 0 -122 33t-88 84z" />
    <glyph glyph-name="K" unicode="K" horiz-adv-x="641" 
d="M100 0v690h96v-340l293 340h117l-265 -301l285 -389h-119l-228 320l-83 -95v-225h-96z" />
    <glyph glyph-name="L" unicode="L" horiz-adv-x="556" 
d="M100 0v690h96v-604h320v-86h-416z" />
    <glyph glyph-name="M" unicode="M" horiz-adv-x="836" 
d="M100 0v690h141l195 -438h-36l195 438h141v-690h-96v617l18 -4l-210 -458h-60l-210 458l18 4v-617h-96z" />
    <glyph glyph-name="N" unicode="N" horiz-adv-x="746" 
d="M100 0v690h146l324 -627l-20 -5v632h96v-690h-146l-324 627l20 5v-632h-96z" />
    <glyph glyph-name="O" unicode="O" horiz-adv-x="726" 
d="M60 345q0 87 23.5 153.5t65.5 111.5t97 67.5t117 22.5t117 -22.5t97 -67.5t65.5 -111.5t23.5 -153.5t-23.5 -153.5t-65.5 -111.5t-97 -67.5t-117 -22.5t-117 22.5t-97 67.5t-65.5 111.5t-23.5 153.5zM159 345q0 -66 15.5 -116t43 -83.5t64.5 -50t81 -16.5t81 16.5
t64.5 50t43 83.5t15.5 116t-15.5 116t-43 83.5t-64.5 50t-81 16.5t-81 -16.5t-64.5 -50t-43 -83.5t-15.5 -116z" />
    <glyph glyph-name="P" unicode="P" horiz-adv-x="632" 
d="M100 0v690h228q71 0 128.5 -26.5t91.5 -77.5t34 -126q0 -74 -34 -125.5t-91.5 -78t-128.5 -26.5h-132v-230h-96zM196 316h127q68 0 114 37t46 107t-45.5 107t-114.5 37h-127v-288z" />
    <glyph glyph-name="Q" unicode="Q" horiz-adv-x="726" 
d="M60 345q0 117 41 196t110 119t152 40t152 -40t110 -119t41 -196q0 -122 -45.5 -203.5t-119.5 -119.5q21 -52 59 -72.5t96 -20.5v-94q-98 3 -155 41.5t-78 119.5q-14 -3 -29 -4.5t-31 -1.5q-83 0 -152 40t-110 119t-41 196zM159 345q0 -88 26.5 -147.5t73 -89t104.5 -29.5
q59 0 105 29.5t72.5 89t26.5 147.5q0 89 -26.5 148t-72.5 88.5t-105 29.5q-58 0 -104.5 -29.5t-73 -88.5t-26.5 -148z" />
    <glyph glyph-name="R" unicode="R" horiz-adv-x="650" 
d="M100 0v690h233q68 0 123 -25t88 -72.5t33 -117.5q0 -82 -44.5 -133t-114.5 -71l177 -271h-114l-161 260h-124v-260h-96zM196 343h132q64 0 107 34.5t43 97.5q0 62 -42.5 95.5t-107.5 33.5h-132v-261z" />
    <glyph glyph-name="S" unicode="S" horiz-adv-x="624" 
d="M50 94l56 69q44 -41 99.5 -63.5t122.5 -22.5q47 0 78.5 13t47.5 34.5t16 46.5q0 27 -14.5 49.5t-51 43.5t-102.5 43q-85 29 -133.5 59.5t-68.5 66.5t-20 79q0 52 29.5 94.5t82.5 68t122 25.5q59 0 121 -23t110 -64l-55 -72q-37 36 -83.5 56t-99.5 20q-67 0 -100.5 -28.5
t-33.5 -66.5q0 -22 13.5 -42t47.5 -38.5t96 -38.5q89 -28 141 -62.5t75 -74t23 -83.5q0 -53 -29 -97t-84.5 -70t-135.5 -26q-50 0 -100.5 13.5t-94.5 37t-75 53.5z" />
    <glyph glyph-name="T" unicode="T" horiz-adv-x="576" 
d="M30 604v86h516v-86h-210v-604h-96v604h-210z" />
    <glyph glyph-name="U" unicode="U" horiz-adv-x="706" 
d="M90 250v440h96v-430q0 -58 21 -98.5t58.5 -61.5t88.5 -21t89 21t58.5 61.5t20.5 98.5v430h94v-440q0 -83 -34.5 -141.5t-94 -88.5t-134.5 -30q-74 0 -134 30t-94.5 88.5t-34.5 141.5z" />
    <glyph glyph-name="V" unicode="V" horiz-adv-x="636" 
d="M20 690h104l196 -552l196 552h100l-256 -690h-84z" />
    <glyph glyph-name="W" unicode="W" horiz-adv-x="961" 
d="M20 690h102l170 -578h-24l174 578h81l176 -578h-25l169 578h98l-217 -690h-80l-176 561h26l-176 -561h-80z" />
    <glyph glyph-name="X" unicode="X" horiz-adv-x="644" 
d="M30 0l260 386v-72l-250 376h116l195 -293h-48l191 293h110l-249 -371v72l259 -391h-116l-205 308h48l-201 -308h-110z" />
    <glyph glyph-name="Y" unicode="Y" horiz-adv-x="616" 
d="M15 690h110l207 -353h-44l207 353h106l-245 -407v-283h-96v283z" />
    <glyph glyph-name="Z" unicode="Z" horiz-adv-x="614" 
d="M60 66l362 538h-352v86h474v-66l-362 -538h372v-86h-494v66z" />
    <glyph glyph-name="bracketleft" unicode="[" horiz-adv-x="320" 
d="M100 -245v1025h245v-70h-163v-885h163v-70h-245z" />
    <glyph glyph-name="backslash" unicode="\" horiz-adv-x="336" 
d="M0 720h86l250 -750h-86z" />
    <glyph glyph-name="bracketright" unicode="]" horiz-adv-x="320" 
d="M-25 -245v70h163v885h-163v70h245v-1025h-245z" />
    <glyph glyph-name="asciicircum" unicode="^" 
d="M65 265l199 425h72l199 -425h-93l-144 316l-143 -316h-90z" />
    <glyph glyph-name="underscore" unicode="_" horiz-adv-x="428" 
d="M0 -80v80h428v-80h-428z" />
    <glyph glyph-name="grave" unicode="`" horiz-adv-x="500" 
d="M157 735h111l75 -150h-76z" />
    <glyph glyph-name="a" unicode="a" horiz-adv-x="543" 
d="M60 132q0 45 24 83t79 63t148 28l55 2v6q0 66 -31 94.5t-86 28.5q-40 0 -74 -12t-68 -31l-32 78q35 22 86 37.5t97 15.5q57 0 102 -22t71.5 -66.5t26.5 -111.5v-203q0 -21 1.5 -38.5t5.5 -39.5l8 -44h-86l-15 73q-30 -36 -74.5 -59.5t-95.5 -23.5q-37 0 -69.5 17
t-52.5 49t-20 76zM154 140q0 -31 18.5 -48.5t49.5 -17.5q38 0 74.5 18t69.5 49v101l-51 -5q-65 -6 -100 -21t-48 -34.5t-13 -41.5z" />
    <glyph glyph-name="b" unicode="b" horiz-adv-x="586" 
d="M75 0l8 44q4 22 5.5 39.5t1.5 38.5v593l92 20v-287q32 35 72.5 56t84.5 21q53 0 96.5 -31.5t69.5 -90.5t26 -141q0 -85 -26.5 -146t-74 -93.5t-112.5 -32.5q-40 0 -78 19.5t-64 63.5l-15 -73h-86zM182 232q0 -57 18 -93.5t45.5 -54t57.5 -17.5q62 0 98 53.5t36 138.5
q0 59 -16 99t-44 61t-63 21q-33 0 -67 -17t-65 -46v-145z" />
    <glyph glyph-name="c" unicode="c" horiz-adv-x="504" 
d="M55 252q0 85 33.5 146t90.5 94t127 33q44 0 87.5 -16.5t73.5 -48.5l-56 -67q-19 22 -46.5 35t-62.5 13q-41 0 -76 -22t-56 -64.5t-21 -102.5t20.5 -99.5t54.5 -59t73 -19.5t69 13.5t50 34.5l53 -67q-30 -31 -75 -48t-93 -17q-70 0 -125.5 29t-88 87.5t-32.5 145.5z" />
    <glyph glyph-name="d" unicode="d" horiz-adv-x="586" 
d="M55 253q0 85 26.5 146t74 93.5t111.5 32.5q38 0 75 -17.5t62 -55.5v263l92 20v-613q0 -21 1.5 -38.5t5.5 -39.5l8 -44h-86l-15 74q-33 -37 -75 -60.5t-88 -23.5q-52 0 -96 31.5t-70 90.5t-26 141zM149 256q0 -58 16 -98.5t44 -61.5t63 -21t68.5 17.5t63.5 48.5v142
q0 58 -17.5 94t-45.5 53.5t-58 17.5q-62 0 -98 -53.5t-36 -138.5z" />
    <glyph glyph-name="e" unicode="e" horiz-adv-x="553" 
d="M55 252q0 90 31 151t83 91.5t116 30.5q59 0 107.5 -28.5t77 -86t28.5 -143.5q0 -9 -0.5 -18.5t-1.5 -18.5h-362v74h292l-18 -37q0 96 -36.5 136.5t-87.5 40.5q-40 0 -70.5 -21.5t-47.5 -64t-17 -106.5q0 -59 21.5 -98.5t57.5 -59.5t81 -20q36 0 66 12t53 30l43 -73
q-34 -28 -76.5 -40.5t-88.5 -12.5q-72 0 -128.5 29t-89.5 87.5t-33 145.5z" />
    <glyph glyph-name="f" unicode="f" horiz-adv-x="361" 
d="M20 435v80h90v42q0 55 22 93.5t59 59t81 20.5q31 0 58 -6t51 -17l-18 -74q-21 9 -40 13.5t-38 4.5q-42 0 -62.5 -26.5t-20.5 -70.5v-39h152v-80h-152v-435h-92v435h-90z" />
    <glyph glyph-name="g" unicode="g" horiz-adv-x="586" 
d="M55 263q0 82 26.5 140.5t74.5 90t112 31.5q40 0 78.5 -19.5t63.5 -63.5l15 73h86l-8 -44q-4 -22 -5.5 -39.5t-1.5 -38.5v-347q0 -77 -30 -131t-82.5 -82t-118.5 -28q-49 0 -100 15t-86 35l33 81q35 -19 69 -32t80 -13q64 0 103.5 38t39.5 120v34q-32 -33 -72.5 -53
t-84.5 -20q-52 0 -96 30.5t-70 87t-26 135.5zM149 266q0 -55 16 -93.5t44 -58t63 -19.5q33 0 67 15.5t65 43.5v129q0 58 -17.5 94t-45.5 53.5t-58 17.5q-62 0 -98 -51t-36 -131z" />
    <glyph glyph-name="h" unicode="h" horiz-adv-x="604" 
d="M90 0v715l92 20v-287q32 35 72.5 56t85.5 21q51 0 91.5 -23t64 -69t23.5 -117v-316h-92v304q0 70 -31.5 102t-79.5 32q-35 0 -69 -16t-65 -45v-377h-92z" />
    <glyph glyph-name="i" unicode="i" horiz-adv-x="272" 
d="M90 0v515h92v-515h-92zM75 667q0 27 17.5 45t43.5 18q28 0 44.5 -18t16.5 -45q0 -26 -16.5 -44t-44.5 -18q-26 0 -43.5 18t-17.5 44z" />
    <glyph glyph-name="j" unicode="j" horiz-adv-x="272" 
d="M-51 -181l16 76q12 -4 25 -6.5t28 -2.5q35 0 53.5 20.5t18.5 63.5v545h92v-549q0 -75 -45 -118t-113 -43q-20 0 -39.5 4t-35.5 10zM75 667q0 27 17.5 45t43.5 18q28 0 44.5 -18t16.5 -45q0 -26 -16.5 -44t-44.5 -18q-26 0 -43.5 18t-17.5 44z" />
    <glyph glyph-name="k" unicode="k" horiz-adv-x="533" 
d="M90 0v715l92 20v-446l204 226h117l-194 -207l209 -308h-112l-158 243l-66 -71v-172h-92z" />
    <glyph glyph-name="l" unicode="l" horiz-adv-x="272" 
d="M90 0v715l92 20v-735h-92z" />
    <glyph glyph-name="m" unicode="m" horiz-adv-x="881" 
d="M75 515h86l15 -73q30 38 69.5 60.5t85.5 22.5q44 0 81 -22t57 -69q32 41 74.5 66t94.5 25q44 0 79.5 -21.5t57 -65.5t21.5 -113v-325h-92v313q0 68 -28 96.5t-70 28.5q-31 0 -61.5 -17t-58.5 -49q2 -10 2.5 -22t0.5 -25v-325h-92v313q0 68 -28 96.5t-70 28.5
q-31 0 -60.5 -16.5t-56.5 -45.5v-376h-92v393q0 21 -1.5 38.5t-5.5 39.5z" />
    <glyph glyph-name="n" unicode="n" horiz-adv-x="604" 
d="M75 515h86l15 -74q33 38 75.5 61t88.5 23q51 0 91.5 -23t64 -69t23.5 -117v-316h-92v304q0 47 -14.5 76.5t-39.5 43.5t-57 14q-35 0 -69 -17t-65 -47v-374h-92v393q0 21 -1.5 38.5t-5.5 39.5z" />
    <glyph glyph-name="o" unicode="o" horiz-adv-x="572" 
d="M55 257q0 87 30 146.5t82 90.5t119 31t119 -31t82 -90.5t30 -146.5q0 -86 -30 -146t-82 -90.5t-119 -30.5t-119 30.5t-82 90.5t-30 146zM149 257q0 -60 16.5 -101.5t47 -63t73.5 -21.5t73.5 21.5t47 63t16.5 101.5t-16.5 101.5t-47 63.5t-73.5 22t-73.5 -22t-47 -63.5
t-16.5 -101.5z" />
    <glyph glyph-name="p" unicode="p" horiz-adv-x="586" 
d="M75 515h86l15 -74q33 38 75 61t88 23q53 0 96.5 -31.5t69.5 -90.5t26 -141q0 -85 -26.5 -146t-74 -93.5t-112.5 -32.5q-37 0 -73.5 17.5t-62.5 55.5v-243l-92 -20v593q0 21 -1.5 38.5t-5.5 39.5zM182 232q0 -57 18 -93.5t45.5 -54t57.5 -17.5q62 0 98 53.5t36 138.5
q0 59 -16 99t-44 61t-63 21t-68.5 -17.5t-63.5 -48.5v-142z" />
    <glyph glyph-name="q" unicode="q" horiz-adv-x="586" 
d="M55 253q0 85 26.5 146t74.5 93.5t112 32.5q40 0 78.5 -19.5t63.5 -63.5l15 73h86l-8 -44q-4 -22 -5.5 -39.5t-1.5 -38.5v-573l-92 -20v267q-32 -34 -72.5 -55.5t-84.5 -21.5q-52 0 -96 31.5t-70 90.5t-26 141zM149 256q0 -58 16 -98.5t44 -61.5t63 -21q33 0 67 17t65 46
v145q0 58 -17.5 94t-45.5 53.5t-58 17.5q-62 0 -98 -53.5t-36 -138.5z" />
    <glyph glyph-name="r" unicode="r" horiz-adv-x="370" 
d="M75 515h86l17 -82q29 43 71.5 67.5t95.5 24.5v-99q-53 -2 -94 -18.5t-69 -45.5v-362h-92v393q0 21 -1.5 38.5t-5.5 39.5z" />
    <glyph glyph-name="s" unicode="s" horiz-adv-x="501" 
d="M50 61l54 62q27 -22 63.5 -39t85.5 -17q51 0 76 17t25 45q0 18 -10.5 33.5t-37 30t-74.5 28.5q-88 27 -126 66.5t-38 92.5q0 42 24.5 74.5t67.5 51.5t98 19q43 0 88.5 -14.5t80.5 -43.5l-51 -66q-24 20 -56.5 33.5t-70.5 13.5q-46 0 -69.5 -17t-23.5 -41
q0 -19 10.5 -32.5t37 -25.5t73.5 -26q66 -19 102.5 -44.5t51.5 -55.5t15 -66q0 -43 -25 -77t-70 -53.5t-106 -19.5q-58 0 -109 20t-86 51z" />
    <glyph glyph-name="t" unicode="t" horiz-adv-x="394" 
d="M20 435v80h90v119l92 20v-139h152v-80h-152v-279q0 -40 19 -61.5t59 -21.5q17 0 34.5 4.5t38.5 12.5l16 -79q-24 -9 -51 -15t-54 -6q-42 0 -77 19t-56 55t-21 88v283h-90z" />
    <glyph glyph-name="u" unicode="u" 
d="M85 199v316h92v-304q0 -70 30.5 -102t78.5 -32q35 0 68.5 17t63.5 47v374h92v-393q0 -21 1.5 -38.5t5.5 -39.5l8 -44h-86l-15 74q-32 -37 -73.5 -60.5t-88.5 -23.5q-51 0 -91 23t-63 69.5t-23 116.5z" />
    <glyph glyph-name="v" unicode="v" horiz-adv-x="496" 
d="M10 515h99l157 -430h-30l155 430h95l-202 -515h-72z" />
    <glyph glyph-name="w" unicode="w" horiz-adv-x="749" 
d="M10 515h98l125 -419h-25l131 419h75l133 -419h-25l123 419h94l-172 -515h-72l-134 403h28l-135 -403h-72z" />
    <glyph glyph-name="x" unicode="x" horiz-adv-x="519" 
d="M20 0l207 300l-1 -72l-196 287h108l145 -213h-48l141 213h103l-197 -285l1 72l206 -302h-108l-155 228h48l-151 -228h-103z" />
    <glyph glyph-name="y" unicode="y" horiz-adv-x="496" 
d="M10 515h99l142 -389l140 389h95l-212 -541q-24 -62 -55 -99.5t-65.5 -53.5t-70.5 -16q-16 0 -30.5 3.5t-28.5 8.5l13 75q13 -4 22.5 -5.5t22.5 -1.5q35 0 62.5 24t54.5 88l7 17z" />
    <glyph glyph-name="z" unicode="z" horiz-adv-x="504" 
d="M50 60l275 375h-265v80h384v-60l-275 -375h285v-80h-404v60z" />
    <glyph glyph-name="braceleft" unicode="{" horiz-adv-x="348" 
d="M70 236v64q45 13 72.5 28.5t40.5 33t13 37.5q0 28 -12.5 52.5t-29 49t-29 52.5t-12.5 63q0 64 48 109.5t146 61.5l11 -57q-50 -14 -76.5 -32t-36.5 -38t-10 -43q0 -28 12 -53t27 -50t27 -51.5t12 -57.5q0 -48 -30 -82.5t-97 -54.5q67 -19 97 -54t30 -83q0 -31 -12 -57.5
t-27 -52t-27 -50.5t-12 -53q0 -22 10 -42.5t36.5 -38t76.5 -32.5l-11 -57q-97 16 -145.5 61.5t-48.5 109.5q0 35 12.5 63t29 53t29 49.5t12.5 52.5q0 20 -13 37.5t-40.5 33t-72.5 28.5z" />
    <glyph glyph-name="bar" unicode="|" horiz-adv-x="282" 
d="M100 -215v935h82v-935h-82z" />
    <glyph glyph-name="braceright" unicode="}" horiz-adv-x="348" 
d="M30 -195q50 15 76.5 32.5t36.5 38t10 42.5q0 28 -12 53t-27 50t-27 51.5t-12 57.5q0 48 30 83t97 54q-67 20 -97 54.5t-30 82.5q0 31 12 57.5t27 52t27 50.5t12 53q0 23 -10 43t-36.5 38t-76.5 32l11 57q97 -16 145.5 -61.5t48.5 -109.5q0 -35 -12.5 -63t-29 -53
t-29 -49.5t-12.5 -52.5q0 -20 13 -37.5t41 -33t72 -28.5v-64q-44 -13 -72 -28.5t-41 -33t-13 -37.5q0 -28 12.5 -52.5t29 -49t29 -52.5t12.5 -63q0 -64 -48 -109.5t-146 -61.5z" />
    <glyph glyph-name="asciitilde" unicode="~" 
d="M83 301q8 76 42 118t89 42q33 0 57 -13.5t44 -30.5t39 -30.5t41 -13.5q23 0 37.5 18t21.5 65h63q-8 -76 -42 -118t-89 -42q-32 0 -56 13.5t-44 30.5t-39 30.5t-42 13.5q-22 0 -37 -18t-22 -65h-63z" />
    <glyph glyph-name="uni00A0" unicode="&#xa0;" horiz-adv-x="250" 
 />
    <glyph glyph-name="exclamdown" unicode="&#xa1;" horiz-adv-x="322" 
d="M110 -185v185l16 305h70l16 -305v-185h-102zM100 463q0 26 16.5 44t44.5 18q26 0 43.5 -18t17.5 -44q0 -27 -17.5 -45t-43.5 -18q-28 0 -44.5 18t-16.5 45z" />
    <glyph glyph-name="cent" unicode="&#xa2;" 
d="M300 -100v134q-75 11 -130.5 46.5t-85.5 91t-30 125.5q0 71 30 126.5t85.5 91t130.5 46.5v134h76v-130q49 -2 95.5 -19.5t88.5 -48.5l-54 -68q-28 23 -60.5 36.5t-69.5 15.5v-367q42 2 77.5 16t63.5 37l51 -68q-42 -32 -90.5 -49.5t-101.5 -19.5v-130h-76zM300 120v355
q-70 -14 -108.5 -60t-38.5 -117t38.5 -117.5t108.5 -60.5z" />
    <glyph glyph-name="sterling" unicode="&#xa3;" 
d="M71 0v93q40 19 63 46.5t32.5 59t9.5 61.5q0 9 -0.5 17.5t-1.5 15.5h-103v80h83q-7 22 -12.5 47t-5.5 59q0 67 30.5 116.5t82.5 77t116 27.5t116.5 -25t89.5 -78l-67 -63q-23 38 -59.5 58t-75.5 20q-65 0 -101 -37t-36 -96q0 -33 5 -58.5t11 -47.5h203v-80h-183
q1 -7 1.5 -15.5t0.5 -17.5q0 -53 -23.5 -98t-64.5 -76h379v-86h-490z" />
    <glyph glyph-name="currency" unicode="&#xa4;" 
d="M80 345q0 39 8 72t23 60l-77 77l57 57l73 -73q28 20 62 31t74 11q78 0 136 -42l73 73l57 -57l-77 -77q15 -27 23 -60t8 -72t-8 -72t-23 -60l77 -77l-57 -57l-73 73q-28 -20 -62 -31t-74 -11q-78 0 -136 42l-73 -73l-57 57l77 77q-15 27 -23 60t-8 72zM174 345
q0 -48 15 -82.5t43.5 -52.5t67.5 -18q40 0 68 18t43 52.5t15 82.5q0 49 -15 83t-43 52t-68 18q-39 0 -67.5 -18t-43.5 -52t-15 -83z" />
    <glyph glyph-name="yen" unicode="&#xa5;" 
d="M7 690h110l185 -312l185 312h106l-203 -333h140v-80h-182v-100h182v-80h-182v-97h-96v97h-182v80h182v100h-182v80h140z" />
    <glyph glyph-name="brokenbar" unicode="&#xa6;" horiz-adv-x="282" 
d="M100 -215v365h82v-365h-82zM100 355v365h82v-365h-82z" />
    <glyph glyph-name="section" unicode="&#xa7;" horiz-adv-x="620" 
d="M64 -109l55 72q25 -24 54 -41t61.5 -26t67.5 -9q45 0 74.5 12t44.5 31.5t15 41.5q0 21 -13.5 38t-47.5 34t-96 37q-88 29 -140.5 61.5t-75.5 69.5t-23 79q0 43 21 79.5t61 61.5q-16 20 -23.5 42.5t-7.5 47.5q0 49 29.5 89.5t82.5 64.5t122 24q59 0 121 -23t110 -64
l-55 -72q-37 36 -83.5 56t-99.5 20q-67 0 -100.5 -25.5t-33.5 -59.5q0 -20 13.5 -37.5t48 -34.5t95.5 -37q88 -28 140.5 -61t75.5 -70t23 -79q0 -43 -20.5 -79.5t-61.5 -61.5q17 -20 24 -42t7 -48q0 -49 -29.5 -89.5t-82 -64.5t-122.5 -24q-39 0 -80.5 10.5t-80 30
t-70.5 46.5zM139 303q0 -24 15 -44.5t51.5 -40t101.5 -41.5q35 -12 63.5 -23.5t50.5 -23.5q30 11 45 30t15 41q0 25 -15 45t-51.5 39.5t-101.5 41.5q-34 12 -62.5 23.5t-51.5 23.5q-30 -11 -45 -29.5t-15 -41.5z" />
    <glyph glyph-name="dieresis" unicode="&#xa8;" horiz-adv-x="500" 
d="M95 637q0 24 16 41t41 17q27 0 42 -17t15 -41q0 -23 -15 -40t-42 -17q-25 0 -41 17t-16 40zM291 637q0 24 16 41t41 17q27 0 42 -17t15 -41q0 -23 -15 -40t-42 -17q-25 0 -41 17t-16 40z" />
    <glyph glyph-name="copyright" unicode="&#xa9;" horiz-adv-x="810" 
d="M405 -10q-75 0 -139.5 27t-113 75.5t-75.5 113t-27 139.5t27 139.5t75.5 113t113 75.5t139.5 27t139.5 -27t113 -75.5t75.5 -113t27 -139.5t-27 -139.5t-75.5 -113t-113 -75.5t-139.5 -27zM405 60q60 0 111.5 22t90 60.5t60 90.5t21.5 112t-21.5 112t-60 90.5t-90 60.5
t-111.5 22t-111.5 -22t-90 -60.5t-60 -90.5t-21.5 -112t21.5 -112t60 -90.5t90 -60.5t111.5 -22zM216 345q0 68 26 114.5t69 71t94 24.5q36 0 68 -14.5t59 -40.5l-47 -50q-34 35 -79 35q-49 0 -82.5 -36t-33.5 -104t33.5 -104t82.5 -36q26 0 47 9t37 27l47 -50
q-27 -27 -60 -41.5t-72 -14.5q-51 0 -94 24.5t-69 71.5t-26 114z" />
    <glyph glyph-name="ordfeminine" unicode="&#xaa;" horiz-adv-x="440" 
d="M54 394q0 35 18.5 64.5t62 48.5t116.5 22l37 2v4q0 49 -22 70t-63 21q-31 0 -58 -10.5t-55 -25.5l-27 66q29 17 69.5 30.5t77.5 13.5q67 0 112.5 -38.5t45.5 -117.5v-158q0 -16 1 -30t4 -31l7 -35h-75l-10 49q-23 -26 -57 -42.5t-72 -16.5q-44 0 -78 30.5t-34 83.5z
M134 400q0 -24 15 -37t40 -13q26 0 51.5 12t47.5 33v80l-34 -4q-48 -5 -74 -16t-36 -25t-10 -30z" />
    <glyph glyph-name="guillemotleft" unicode="&#xab;" horiz-adv-x="500" 
d="M40 247v47l120 164h99l-142 -187l142 -188h-99zM261 247v47l120 164h99l-142 -187l142 -188h-99z" />
    <glyph glyph-name="logicalnot" unicode="&#xac;" 
d="M73 250v80h454v-265h-82v185h-372z" />
    <glyph glyph-name="hyphensoft" unicode="&#xad;" horiz-adv-x="0" 
 />
    <glyph glyph-name="registered" unicode="&#xae;" horiz-adv-x="810" 
d="M405 -10q-75 0 -139.5 27t-113 75.5t-75.5 113t-27 139.5t27 139.5t75.5 113t113 75.5t139.5 27t139.5 -27t113 -75.5t75.5 -113t27 -139.5t-27 -139.5t-75.5 -113t-113 -75.5t-139.5 -27zM122 345q0 -60 21.5 -112t60 -90.5t90 -60.5t111.5 -22t111.5 22t90 60.5
t60 90.5t21.5 112t-21.5 112t-60 90.5t-90 60.5t-111.5 22t-111.5 -22t-90 -60.5t-60 -90.5t-21.5 -112zM268 138v414h141q41 0 74 -15t53 -43.5t20 -70.5q0 -46 -24.5 -76.5t-63.5 -43.5l100 -165h-82l-90 156h-58v-156h-70zM338 352h67q35 0 57 18.5t22 52.5t-22 51.5
t-57 17.5h-67v-140z" />
    <glyph glyph-name="macron" unicode="&#xaf;" horiz-adv-x="500" 
d="M102 585v70h296v-70h-296z" />
    <glyph glyph-name="degree" unicode="&#xb0;" horiz-adv-x="384" 
d="M50 560q0 40 19 71.5t51 50t72 18.5t72 -18.5t51 -50t19 -71.5q0 -39 -19 -71t-51 -50.5t-72 -18.5t-72 18.5t-51 50.5t-19 71zM122 560q0 -32 20 -53t50 -21t50 21t20 53t-20 53t-50 21t-50 -21t-20 -53z" />
    <glyph glyph-name="plusminus" unicode="&#xb1;" 
d="M73 65v75h185v140h-185v80h185v185h84v-185h185v-80h-185v-140h185v-75h-454z" />
    <glyph glyph-name="uni00B2" unicode="&#xb2;" horiz-adv-x="440" 
d="M76 290v56l134 130q28 26 44 49t16 47q0 25 -17.5 40.5t-44.5 15.5q-25 0 -48 -14t-42 -37l-52 51q32 36 66.5 54t77.5 18q59 0 99.5 -34.5t40.5 -93.5q0 -32 -22 -70t-64 -76l-74 -68h170v-68h-284z" />
    <glyph glyph-name="uni00B3" unicode="&#xb3;" horiz-adv-x="440" 
d="M58 340l52 54q20 -22 43 -33t51 -11q22 0 39.5 6.5t28 19.5t10.5 32q0 29 -23.5 44.5t-64.5 15.5h-49v46l95 108h-164v68h262v-54l-99 -112q54 -6 87.5 -34.5t33.5 -81.5q0 -41 -21 -69.5t-56.5 -43.5t-78.5 -15t-78.5 14.5t-67.5 45.5z" />
    <glyph glyph-name="acute" unicode="&#xb4;" horiz-adv-x="500" 
d="M157 585l75 150h111l-110 -150h-76z" />
    <glyph glyph-name="uni03BC.math" unicode="&#xb5;" 
d="M85 -185v700h92v-304q0 -70 30.5 -102t78.5 -32q35 0 68.5 17t63.5 47v374h92v-415q0 -16 7 -22.5t18 -6.5q6 0 10.5 1t10.5 3v-75q-10 -4 -23.5 -7t-24.5 -3q-31 0 -55 20t-29 64q-31 -37 -69.5 -60.5t-82.5 -23.5q-32 0 -58.5 11.5t-43.5 33.5l7 -220h-92z" />
    <glyph glyph-name="paragraph" unicode="&#xb6;" horiz-adv-x="711" 
d="M70 442q0 80 35.5 135.5t98 84t142.5 28.5h105v-875h-82v380h-23q-80 0 -142.5 28.5t-98 83.5t-35.5 135zM529 -185v875h82v-875h-82z" />
    <glyph glyph-name="periodcentered" unicode="&#xb7;" horiz-adv-x="222" 
d="M50 278q0 27 17.5 45t43.5 18q28 0 44.5 -18t16.5 -45q0 -26 -16.5 -44t-44.5 -18q-26 0 -43.5 18t-17.5 44z" />
    <glyph glyph-name="cedilla" unicode="&#xb8;" horiz-adv-x="500" 
d="M161 -240l12 55q53 1 69.5 14.5t16.5 30.5q0 15 -9 24.5t-29 10.5l-30 2l18 118l58 -6l-12 -74q44 -4 64 -24.5t20 -51.5q0 -22 -13.5 -45t-46 -38.5t-88.5 -15.5h-30z" />
    <glyph glyph-name="uni00B9" unicode="&#xb9;" horiz-adv-x="440" 
d="M82 290v66h112v249l-100 -45l-28 60l154 70h54v-334h106v-66h-298z" />
    <glyph glyph-name="ordmasculine" unicode="&#xba;" horiz-adv-x="480" 
d="M60 490q0 71 24.5 117.5t65.5 69.5t90 23q50 0 90.5 -23t65 -69.5t24.5 -117.5t-24.5 -117.5t-65 -69.5t-90.5 -23q-49 0 -90 23t-65.5 69.5t-24.5 117.5zM140 490q0 -73 29 -107.5t71 -34.5t71 34.5t29 107.5q0 74 -29 108t-71 34t-71 -34t-29 -108z" />
    <glyph glyph-name="guillemotright" unicode="&#xbb;" horiz-adv-x="500" 
d="M20 83l142 188l-142 187h99l120 -164v-47l-120 -164h-99zM241 83l142 188l-142 187h99l120 -164v-47l-120 -164h-99z" />
    <glyph glyph-name="onequarter" unicode="&#xbc;" horiz-adv-x="741" 
d="M421 126l162 273h88v-257h60v-67h-60v-75h-74v75h-176v51zM10 620l154 70h54v-334h106v-66h-298v66h112v249l-100 -45zM188 0l420 690h80l-420 -690h-80zM499 142h98v162z" />
    <glyph glyph-name="onehalf" unicode="&#xbd;" horiz-adv-x="794" 
d="M26 290v66h112v249l-100 -45l-28 60l154 70h54v-334h106v-66h-298zM174 0l420 690h80l-420 -690h-80zM500 0v56l134 130q28 26 44 49t16 47q0 25 -17.5 40.5t-44.5 15.5q-25 0 -48 -14t-42 -37l-52 51q32 36 66.5 54t77.5 18q59 0 99.5 -34.5t40.5 -93.5q0 -32 -22 -70
t-64 -76l-74 -68h170v-68h-284z" />
    <glyph glyph-name="threequarters" unicode="&#xbe;" horiz-adv-x="711" 
d="M391 126l162 273h88v-257h60v-67h-60v-75h-74v75h-176v51zM10 340l52 54q20 -22 43 -33t51 -11q22 0 39.5 6.5t28 19.5t10.5 32q0 29 -23.5 44.5t-64.5 15.5h-49v46l95 108h-164v68h262v-54l-99 -112q54 -6 87.5 -34.5t33.5 -81.5q0 -41 -21 -69.5t-56.5 -43.5t-78.5 -15
t-78.5 14.5t-67.5 45.5zM150 0l420 690h80l-420 -690h-80zM469 142h98v162z" />
    <glyph glyph-name="questiondown" unicode="&#xbf;" horiz-adv-x="508" 
d="M60 -5q0 36 14 66.5t39.5 56t58.5 44.5q20 12 30.5 22.5t15 24.5t5.5 36l3 60h79l6 -73q4 -41 -12 -69t-48 -50q-29 -20 -50 -38t-31.5 -37t-10.5 -43q0 -28 13.5 -50.5t37.5 -35.5t55 -13q51 0 87 22.5t68 64.5l63 -66q-44 -53 -97 -82.5t-124 -29.5q-55 0 -101 23.5
t-73.5 66t-27.5 100.5zM204 463q0 26 16.5 44t44.5 18q26 0 43.5 -18t17.5 -44q0 -27 -17.5 -45t-43.5 -18q-28 0 -44.5 18t-16.5 45z" />
    <glyph glyph-name="Agrave" unicode="&#xc0;" horiz-adv-x="656" 
d="M20 0l266 690h84l266 -690h-104l-87 235l58 -41h-354l58 41l-87 -235h-100zM209 240l-28 40h290l-28 -40l-132 354h30zM187 910h111l75 -150h-76z" />
    <glyph glyph-name="Aacute" unicode="&#xc1;" horiz-adv-x="656" 
d="M20 0l266 690h84l266 -690h-104l-87 235l58 -41h-354l58 41l-87 -235h-100zM209 240l-28 40h290l-28 -40l-132 354h30zM283 760l75 150h111l-110 -150h-76z" />
    <glyph glyph-name="Acircumflex" unicode="&#xc2;" horiz-adv-x="656" 
d="M20 0l266 690h84l266 -690h-104l-87 235l58 -41h-354l58 41l-87 -235h-100zM209 240l-28 40h290l-28 -40l-132 354h30zM190 760l87 150h102l87 -150h-77l-61 86l-61 -86h-77z" />
    <glyph glyph-name="Atilde" unicode="&#xc3;" horiz-adv-x="656" 
d="M20 0l266 690h84l266 -690h-104l-87 235l58 -41h-354l58 41l-87 -235h-100zM209 240l-28 40h290l-28 -40l-132 354h30zM182 760q5 57 27.5 88.5t61.5 31.5q20 0 36 -7.5t29 -17t25 -17t23 -7.5t19 9.5t11 34.5h60q-4 -57 -27 -88.5t-62 -31.5q-20 0 -36 7.5t-29 17
t-25 17t-23 7.5q-10 0 -18.5 -9t-11.5 -35h-60z" />
    <glyph glyph-name="Adieresis" unicode="&#xc4;" horiz-adv-x="656" 
d="M20 0l266 690h84l266 -690h-104l-87 235l58 -41h-354l58 41l-87 -235h-100zM209 240l-28 40h290l-28 -40l-132 354h30zM173 812q0 24 16 41t41 17q27 0 42 -17t15 -41q0 -23 -15 -40t-42 -17q-25 0 -41 17t-16 40zM369 812q0 24 16 41t41 17q27 0 42 -17t15 -41
q0 -23 -15 -40t-42 -17q-25 0 -41 17t-16 40z" />
    <glyph glyph-name="Aring" unicode="&#xc5;" horiz-adv-x="656" 
d="M20 0l266 690h84l266 -690h-104l-87 235l58 -41h-354l58 41l-87 -235h-100zM209 240l-28 40h290l-28 -40l-132 354h30zM212 774q0 51 33.5 82.5t82.5 31.5t83 -31.5t34 -82.5t-34 -82.5t-83 -31.5t-82.5 31.5t-33.5 82.5zM278 774q0 -28 14 -43.5t36 -15.5q23 0 37 15.5
t14 43.5t-14 43.5t-37 15.5q-22 0 -36 -15.5t-14 -43.5z" />
    <glyph glyph-name="AE" unicode="&#xc6;" horiz-adv-x="961" 
d="M10 0l298 690h578v-86h-350v-211h300v-86h-300v-221h355v-86h-451v194h-249l-81 -194h-100zM227 280h213v324h-77z" />
    <glyph glyph-name="Ccedilla" unicode="&#xc7;" horiz-adv-x="644" 
d="M60 345q0 86 24.5 152t68 111t100 68.5t120.5 23.5q60 0 114 -24t99 -68l-68 -65q-31 32 -67.5 49t-77.5 17q-61 0 -109.5 -30t-76.5 -89t-28 -145t28 -145t76.5 -89t109.5 -30q47 0 86 17t70 51l65 -65q-45 -46 -100.5 -70t-120.5 -24q-64 0 -120.5 23t-100 68.5
t-68 111.5t-24.5 152zM285 -240l12 55q53 1 69.5 14.5t16.5 30.5q0 15 -9 24.5t-29 10.5l-30 2l18 118l58 -6l-12 -74q44 -4 64 -24.5t20 -51.5q0 -22 -13.5 -45t-46 -38.5t-88.5 -15.5h-30z" />
    <glyph glyph-name="Egrave" unicode="&#xc8;" horiz-adv-x="621" 
d="M182 910h111l75 -150h-76zM100 0v690h446v-86h-350v-211h300v-86h-300v-221h355v-86h-451z" />
    <glyph glyph-name="Eacute" unicode="&#xc9;" horiz-adv-x="621" 
d="M100 0v690h446v-86h-350v-211h300v-86h-300v-221h355v-86h-451zM278 760l75 150h111l-110 -150h-76z" />
    <glyph glyph-name="Ecircumflex" unicode="&#xca;" horiz-adv-x="621" 
d="M100 0v690h446v-86h-350v-211h300v-86h-300v-221h355v-86h-451zM185 760l87 150h102l87 -150h-77l-61 86l-61 -86h-77z" />
    <glyph glyph-name="Edieresis" unicode="&#xcb;" horiz-adv-x="621" 
d="M100 0v690h446v-86h-350v-211h300v-86h-300v-221h355v-86h-451zM168 812q0 24 16 41t41 17q27 0 42 -17t15 -41q0 -23 -15 -40t-42 -17q-25 0 -41 17t-16 40zM364 812q0 24 16 41t41 17q27 0 42 -17t15 -41q0 -23 -15 -40t-42 -17q-25 0 -41 17t-16 40z" />
    <glyph glyph-name="Igrave" unicode="&#xcc;" horiz-adv-x="456" 
d="M80 0v81h100v528h-100v81h296v-81h-100v-528h100v-81h-296zM87 910h111l75 -150h-76z" />
    <glyph glyph-name="Iacute" unicode="&#xcd;" horiz-adv-x="456" 
d="M80 0v81h100v528h-100v81h296v-81h-100v-528h100v-81h-296zM183 760l75 150h111l-110 -150h-76z" />
    <glyph glyph-name="Icircumflex" unicode="&#xce;" horiz-adv-x="456" 
d="M80 0v81h100v528h-100v81h296v-81h-100v-528h100v-81h-296zM90 760l87 150h102l87 -150h-77l-61 86l-61 -86h-77z" />
    <glyph glyph-name="Idieresis" unicode="&#xcf;" horiz-adv-x="456" 
d="M80 0v81h100v528h-100v81h296v-81h-100v-528h100v-81h-296zM73 812q0 24 16 41t41 17q27 0 42 -17t15 -41q0 -23 -15 -40t-42 -17q-25 0 -41 17t-16 40zM269 812q0 24 16 41t41 17q27 0 42 -17t15 -41q0 -23 -15 -40t-42 -17q-25 0 -41 17t-16 40z" />
    <glyph glyph-name="Eth" unicode="&#xd0;" horiz-adv-x="711" 
d="M35 305v80h75v305h223q89 0 161 -40t114.5 -117t42.5 -188t-42.5 -188t-114.5 -117t-161 -40h-223v305h-75zM206 86h122q64 0 114.5 30t80 88t29.5 141t-29.5 141t-80 88t-114.5 30h-122v-219h150v-80h-150v-219z" />
    <glyph glyph-name="Ntilde" unicode="&#xd1;" horiz-adv-x="746" 
d="M100 0v690h146l324 -627l-20 -5v632h96v-690h-146l-324 627l20 5v-632h-96zM243 760q5 57 27.5 88.5t61.5 31.5q20 0 36 -7.5t29 -17t25 -17t23 -7.5t19 9.5t11 34.5h60q-4 -57 -27 -88.5t-62 -31.5q-20 0 -36 7.5t-29 17t-25 17t-23 7.5q-10 0 -18.5 -9t-11.5 -35h-60z
" />
    <glyph glyph-name="Ograve" unicode="&#xd2;" horiz-adv-x="726" 
d="M60 345q0 87 23.5 153.5t65.5 111.5t97 67.5t117 22.5t117 -22.5t97 -67.5t65.5 -111.5t23.5 -153.5t-23.5 -153.5t-65.5 -111.5t-97 -67.5t-117 -22.5t-117 22.5t-97 67.5t-65.5 111.5t-23.5 153.5zM159 345q0 -66 15.5 -116t43 -83.5t64.5 -50t81 -16.5t81 16.5
t64.5 50t43 83.5t15.5 116t-15.5 116t-43 83.5t-64.5 50t-81 16.5t-81 -16.5t-64.5 -50t-43 -83.5t-15.5 -116zM222 910h111l75 -150h-76z" />
    <glyph glyph-name="Oacute" unicode="&#xd3;" horiz-adv-x="726" 
d="M60 345q0 87 23.5 153.5t65.5 111.5t97 67.5t117 22.5t117 -22.5t97 -67.5t65.5 -111.5t23.5 -153.5t-23.5 -153.5t-65.5 -111.5t-97 -67.5t-117 -22.5t-117 22.5t-97 67.5t-65.5 111.5t-23.5 153.5zM159 345q0 -66 15.5 -116t43 -83.5t64.5 -50t81 -16.5t81 16.5
t64.5 50t43 83.5t15.5 116t-15.5 116t-43 83.5t-64.5 50t-81 16.5t-81 -16.5t-64.5 -50t-43 -83.5t-15.5 -116zM318 760l75 150h111l-110 -150h-76z" />
    <glyph glyph-name="Ocircumflex" unicode="&#xd4;" horiz-adv-x="726" 
d="M60 345q0 87 23.5 153.5t65.5 111.5t97 67.5t117 22.5t117 -22.5t97 -67.5t65.5 -111.5t23.5 -153.5t-23.5 -153.5t-65.5 -111.5t-97 -67.5t-117 -22.5t-117 22.5t-97 67.5t-65.5 111.5t-23.5 153.5zM159 345q0 -66 15.5 -116t43 -83.5t64.5 -50t81 -16.5t81 16.5
t64.5 50t43 83.5t15.5 116t-15.5 116t-43 83.5t-64.5 50t-81 16.5t-81 -16.5t-64.5 -50t-43 -83.5t-15.5 -116zM225 760l87 150h102l87 -150h-77l-61 86l-61 -86h-77z" />
    <glyph glyph-name="Otilde" unicode="&#xd5;" horiz-adv-x="726" 
d="M60 345q0 87 23.5 153.5t65.5 111.5t97 67.5t117 22.5t117 -22.5t97 -67.5t65.5 -111.5t23.5 -153.5t-23.5 -153.5t-65.5 -111.5t-97 -67.5t-117 -22.5t-117 22.5t-97 67.5t-65.5 111.5t-23.5 153.5zM159 345q0 -66 15.5 -116t43 -83.5t64.5 -50t81 -16.5t81 16.5
t64.5 50t43 83.5t15.5 116t-15.5 116t-43 83.5t-64.5 50t-81 16.5t-81 -16.5t-64.5 -50t-43 -83.5t-15.5 -116zM217 760q5 57 27.5 88.5t61.5 31.5q20 0 36 -7.5t29 -17t25 -17t23 -7.5t19 9.5t11 34.5h60q-4 -57 -27 -88.5t-62 -31.5q-20 0 -36 7.5t-29 17t-25 17t-23 7.5
q-10 0 -18.5 -9t-11.5 -35h-60z" />
    <glyph glyph-name="Odieresis" unicode="&#xd6;" horiz-adv-x="726" 
d="M60 345q0 87 23.5 153.5t65.5 111.5t97 67.5t117 22.5t117 -22.5t97 -67.5t65.5 -111.5t23.5 -153.5t-23.5 -153.5t-65.5 -111.5t-97 -67.5t-117 -22.5t-117 22.5t-97 67.5t-65.5 111.5t-23.5 153.5zM159 345q0 -66 15.5 -116t43 -83.5t64.5 -50t81 -16.5t81 16.5
t64.5 50t43 83.5t15.5 116t-15.5 116t-43 83.5t-64.5 50t-81 16.5t-81 -16.5t-64.5 -50t-43 -83.5t-15.5 -116zM208 812q0 24 16 41t41 17q27 0 42 -17t15 -41q0 -23 -15 -40t-42 -17q-25 0 -41 17t-16 40zM404 812q0 24 16 41t41 17q27 0 42 -17t15 -41q0 -23 -15 -40
t-42 -17q-25 0 -41 17t-16 40z" />
    <glyph glyph-name="multiply" unicode="&#xd7;" 
d="M84 448l57 57l159 -159l159 159l57 -57l-159 -159l159 -159l-57 -57l-159 159l-159 -159l-57 57l159 159z" />
    <glyph glyph-name="Oslash" unicode="&#xd8;" horiz-adv-x="726" 
d="M60 345q0 87 23.5 153.5t65.5 111.5t97 67.5t117 22.5t117 -22.5t97 -67.5t65.5 -111.5t23.5 -153.5t-23.5 -153.5t-65.5 -111.5t-97 -67.5t-117 -22.5t-117 22.5t-97 67.5t-65.5 111.5t-23.5 153.5zM159 345q0 -66 15.5 -116t43 -83.5t64.5 -50t81 -16.5t81 16.5
t64.5 50t43 83.5t15.5 116t-15.5 116t-43 83.5t-64.5 50t-81 16.5t-81 -16.5t-64.5 -50t-43 -83.5t-15.5 -116zM130 -32l399 789l67 -35l-399 -789z" />
    <glyph glyph-name="Ugrave" unicode="&#xd9;" horiz-adv-x="706" 
d="M90 250v440h96v-430q0 -58 21 -98.5t58.5 -61.5t88.5 -21t89 21t58.5 61.5t20.5 98.5v430h94v-440q0 -83 -34.5 -141.5t-94 -88.5t-134.5 -30q-74 0 -134 30t-94.5 88.5t-34.5 141.5zM212 910h111l75 -150h-76z" />
    <glyph glyph-name="Uacute" unicode="&#xda;" horiz-adv-x="706" 
d="M90 250v440h96v-430q0 -58 21 -98.5t58.5 -61.5t88.5 -21t89 21t58.5 61.5t20.5 98.5v430h94v-440q0 -83 -34.5 -141.5t-94 -88.5t-134.5 -30q-74 0 -134 30t-94.5 88.5t-34.5 141.5zM308 760l75 150h111l-110 -150h-76z" />
    <glyph glyph-name="Ucircumflex" unicode="&#xdb;" horiz-adv-x="706" 
d="M90 250v440h96v-430q0 -58 21 -98.5t58.5 -61.5t88.5 -21t89 21t58.5 61.5t20.5 98.5v430h94v-440q0 -83 -34.5 -141.5t-94 -88.5t-134.5 -30q-74 0 -134 30t-94.5 88.5t-34.5 141.5zM215 760l87 150h102l87 -150h-77l-61 86l-61 -86h-77z" />
    <glyph glyph-name="Udieresis" unicode="&#xdc;" horiz-adv-x="706" 
d="M90 250v440h96v-430q0 -58 21 -98.5t58.5 -61.5t88.5 -21t89 21t58.5 61.5t20.5 98.5v430h94v-440q0 -83 -34.5 -141.5t-94 -88.5t-134.5 -30q-74 0 -134 30t-94.5 88.5t-34.5 141.5zM198 812q0 24 16 41t41 17q27 0 42 -17t15 -41q0 -23 -15 -40t-42 -17q-25 0 -41 17
t-16 40zM394 812q0 24 16 41t41 17q27 0 42 -17t15 -41q0 -23 -15 -40t-42 -17q-25 0 -41 17t-16 40z" />
    <glyph glyph-name="Yacute" unicode="&#xdd;" horiz-adv-x="616" 
d="M15 690h110l207 -353h-44l207 353h106l-245 -407v-283h-96v283zM265 760l75 150h111l-110 -150h-76z" />
    <glyph glyph-name="Thorn" unicode="&#xde;" horiz-adv-x="632" 
d="M100 0v690h96v-135h147q67 0 121 -24t86 -71t32 -115t-32 -115t-86 -71t-121 -24h-147v-135h-96zM196 221h142q62 0 103.5 32t41.5 92t-41.5 92t-103.5 32h-142v-248z" />
    <glyph glyph-name="germandbls" unicode="&#xdf;" horiz-adv-x="602" 
d="M90 0v536q0 65 25 108t70 64.5t105 21.5t104.5 -19t69 -55t24.5 -86q0 -46 -21 -82t-52 -65.5t-61 -56.5l86 -51q69 -41 95.5 -82.5t26.5 -92.5q0 -43 -22 -77t-61.5 -53.5t-90.5 -19.5q-45 0 -83 14t-59 26l34 76q23 -15 50.5 -27t61.5 -12q25 0 42 10t25.5 26.5
t8.5 34.5q0 27 -17 49.5t-65 50.5l-121 72v90q41 32 70 58.5t45 51t16 50.5q0 44 -29 67.5t-77 23.5t-78 -29t-30 -88v-534h-92z" />
    <glyph glyph-name="agrave" unicode="&#xe0;" horiz-adv-x="543" 
d="M60 132q0 45 24 83t79 63t148 28l55 2v6q0 66 -31 94.5t-86 28.5q-40 0 -74 -12t-68 -31l-32 78q35 22 86 37.5t97 15.5q57 0 102 -22t71.5 -66.5t26.5 -111.5v-203q0 -21 1.5 -38.5t5.5 -39.5l8 -44h-86l-15 73q-30 -36 -74.5 -59.5t-95.5 -23.5q-37 0 -69.5 17
t-52.5 49t-20 76zM154 140q0 -31 18.5 -48.5t49.5 -17.5q38 0 74.5 18t69.5 49v101l-51 -5q-65 -6 -100 -21t-48 -34.5t-13 -41.5zM124 735h111l75 -150h-76z" />
    <glyph glyph-name="aacute" unicode="&#xe1;" horiz-adv-x="543" 
d="M60 132q0 45 24 83t79 63t148 28l55 2v6q0 66 -31 94.5t-86 28.5q-40 0 -74 -12t-68 -31l-32 78q35 22 86 37.5t97 15.5q57 0 102 -22t71.5 -66.5t26.5 -111.5v-203q0 -21 1.5 -38.5t5.5 -39.5l8 -44h-86l-15 73q-30 -36 -74.5 -59.5t-95.5 -23.5q-37 0 -69.5 17
t-52.5 49t-20 76zM154 140q0 -31 18.5 -48.5t49.5 -17.5q38 0 74.5 18t69.5 49v101l-51 -5q-65 -6 -100 -21t-48 -34.5t-13 -41.5zM220 585l75 150h111l-110 -150h-76z" />
    <glyph glyph-name="acircumflex" unicode="&#xe2;" horiz-adv-x="543" 
d="M60 132q0 45 24 83t79 63t148 28l55 2v6q0 66 -31 94.5t-86 28.5q-40 0 -74 -12t-68 -31l-32 78q35 22 86 37.5t97 15.5q57 0 102 -22t71.5 -66.5t26.5 -111.5v-203q0 -21 1.5 -38.5t5.5 -39.5l8 -44h-86l-15 73q-30 -36 -74.5 -59.5t-95.5 -23.5q-37 0 -69.5 17
t-52.5 49t-20 76zM154 140q0 -31 18.5 -48.5t49.5 -17.5q38 0 74.5 18t69.5 49v101l-51 -5q-65 -6 -100 -21t-48 -34.5t-13 -41.5zM127 585l87 150h102l87 -150h-77l-61 86l-61 -86h-77z" />
    <glyph glyph-name="atilde" unicode="&#xe3;" horiz-adv-x="543" 
d="M60 132q0 45 24 83t79 63t148 28l55 2v6q0 66 -31 94.5t-86 28.5q-40 0 -74 -12t-68 -31l-32 78q35 22 86 37.5t97 15.5q57 0 102 -22t71.5 -66.5t26.5 -111.5v-203q0 -21 1.5 -38.5t5.5 -39.5l8 -44h-86l-15 73q-30 -36 -74.5 -59.5t-95.5 -23.5q-37 0 -69.5 17
t-52.5 49t-20 76zM154 140q0 -31 18.5 -48.5t49.5 -17.5q38 0 74.5 18t69.5 49v101l-51 -5q-65 -6 -100 -21t-48 -34.5t-13 -41.5zM119 585q5 57 27.5 88.5t61.5 31.5q20 0 36 -7.5t29 -17t25 -17t23 -7.5t19 9.5t11 34.5h60q-4 -57 -27 -88.5t-62 -31.5q-20 0 -36 7.5
t-29 17t-25 17t-23 7.5q-10 0 -18.5 -9t-11.5 -35h-60z" />
    <glyph glyph-name="adieresis" unicode="&#xe4;" horiz-adv-x="543" 
d="M60 132q0 45 24 83t79 63t148 28l55 2v6q0 66 -31 94.5t-86 28.5q-40 0 -74 -12t-68 -31l-32 78q35 22 86 37.5t97 15.5q57 0 102 -22t71.5 -66.5t26.5 -111.5v-203q0 -21 1.5 -38.5t5.5 -39.5l8 -44h-86l-15 73q-30 -36 -74.5 -59.5t-95.5 -23.5q-37 0 -69.5 17
t-52.5 49t-20 76zM154 140q0 -31 18.5 -48.5t49.5 -17.5q38 0 74.5 18t69.5 49v101l-51 -5q-65 -6 -100 -21t-48 -34.5t-13 -41.5zM110 637q0 24 16 41t41 17q27 0 42 -17t15 -41q0 -23 -15 -40t-42 -17q-25 0 -41 17t-16 40zM306 637q0 24 16 41t41 17q27 0 42 -17t15 -41
q0 -23 -15 -40t-42 -17q-25 0 -41 17t-16 40z" />
    <glyph glyph-name="aring" unicode="&#xe5;" horiz-adv-x="543" 
d="M60 132q0 45 24 83t79 63t148 28l55 2v6q0 66 -31 94.5t-86 28.5q-40 0 -74 -12t-68 -31l-32 78q35 22 86 37.5t97 15.5q57 0 102 -22t71.5 -66.5t26.5 -111.5v-203q0 -21 1.5 -38.5t5.5 -39.5l8 -44h-86l-15 73q-30 -36 -74.5 -59.5t-95.5 -23.5q-37 0 -69.5 17
t-52.5 49t-20 76zM154 140q0 -31 18.5 -48.5t49.5 -17.5q38 0 74.5 18t69.5 49v101l-51 -5q-65 -6 -100 -21t-48 -34.5t-13 -41.5zM149 694q0 51 33.5 82.5t82.5 31.5t83 -31.5t34 -82.5t-34 -82.5t-83 -31.5t-82.5 31.5t-33.5 82.5zM215 694q0 -28 14 -43.5t36 -15.5
q23 0 37 15.5t14 43.5t-14 43.5t-37 15.5q-22 0 -36 -15.5t-14 -43.5z" />
    <glyph glyph-name="ae" unicode="&#xe6;" horiz-adv-x="853" 
d="M60 132q0 45 24 83.5t79 63t148 27.5l55 2v6q0 66 -31 94.5t-86 28.5q-26 0 -50 -5.5t-46.5 -15t-45.5 -22.5l-32 78q35 22 86 37.5t97 15.5q53 0 95.5 -19.5t68.5 -59.5q30 39 72 59t91 20q59 0 107.5 -28.5t77 -86t28.5 -143.5q0 -9 -0.5 -18.5t-1.5 -18.5h-341
q6 -77 49.5 -116.5t104.5 -39.5q36 0 66 12t53 30l43 -73q-34 -28 -76.5 -40.5t-88.5 -12.5q-63 0 -114 24t-83 73q-36 -43 -84 -70t-107 -27q-41 0 -77.5 17t-58.5 49t-22 76zM154 140q0 -31 21.5 -48.5t56.5 -17.5q43 0 80.5 20.5t66.5 57.5q-6 20 -9 42.5t-4 47.5l-51 -5
q-65 -6 -100 -21t-48 -34.5t-13 -41.5zM457 304h249q-7 76 -41.5 108t-80.5 32q-49 0 -83 -35t-44 -105z" />
    <glyph glyph-name="ccedilla" unicode="&#xe7;" horiz-adv-x="504" 
d="M55 252q0 85 33.5 146t90.5 94t127 33q44 0 87.5 -16.5t73.5 -48.5l-56 -67q-19 22 -46.5 35t-62.5 13q-41 0 -76 -22t-56 -64.5t-21 -102.5t20.5 -99.5t54.5 -59t73 -19.5t69 13.5t50 34.5l53 -67q-30 -31 -75 -48t-93 -17q-70 0 -125.5 29t-88 87.5t-32.5 145.5z
M208 -240l12 55q53 1 69.5 14.5t16.5 30.5q0 15 -9 24.5t-29 10.5l-30 2l18 118l58 -6l-12 -74q44 -4 64 -24.5t20 -51.5q0 -22 -13.5 -45t-46 -38.5t-88.5 -15.5h-30z" />
    <glyph glyph-name="egrave" unicode="&#xe8;" horiz-adv-x="553" 
d="M55 252q0 90 31 151t83 91.5t116 30.5q59 0 107.5 -28.5t77 -86t28.5 -143.5q0 -9 -0.5 -18.5t-1.5 -18.5h-362v74h292l-18 -37q0 96 -36.5 136.5t-87.5 40.5q-40 0 -70.5 -21.5t-47.5 -64t-17 -106.5q0 -59 21.5 -98.5t57.5 -59.5t81 -20q36 0 66 12t53 30l43 -73
q-34 -28 -76.5 -40.5t-88.5 -12.5q-72 0 -128.5 29t-89.5 87.5t-33 145.5zM144 735h111l75 -150h-76z" />
    <glyph glyph-name="eacute" unicode="&#xe9;" horiz-adv-x="553" 
d="M55 252q0 90 31 151t83 91.5t116 30.5q59 0 107.5 -28.5t77 -86t28.5 -143.5q0 -9 -0.5 -18.5t-1.5 -18.5h-362v74h292l-18 -37q0 96 -36.5 136.5t-87.5 40.5q-40 0 -70.5 -21.5t-47.5 -64t-17 -106.5q0 -59 21.5 -98.5t57.5 -59.5t81 -20q36 0 66 12t53 30l43 -73
q-34 -28 -76.5 -40.5t-88.5 -12.5q-72 0 -128.5 29t-89.5 87.5t-33 145.5zM240 585l75 150h111l-110 -150h-76z" />
    <glyph glyph-name="ecircumflex" unicode="&#xea;" horiz-adv-x="553" 
d="M55 252q0 90 31 151t83 91.5t116 30.5q59 0 107.5 -28.5t77 -86t28.5 -143.5q0 -9 -0.5 -18.5t-1.5 -18.5h-362v74h292l-18 -37q0 96 -36.5 136.5t-87.5 40.5q-40 0 -70.5 -21.5t-47.5 -64t-17 -106.5q0 -59 21.5 -98.5t57.5 -59.5t81 -20q36 0 66 12t53 30l43 -73
q-34 -28 -76.5 -40.5t-88.5 -12.5q-72 0 -128.5 29t-89.5 87.5t-33 145.5zM147 585l87 150h102l87 -150h-77l-61 86l-61 -86h-77z" />
    <glyph glyph-name="edieresis" unicode="&#xeb;" horiz-adv-x="553" 
d="M55 252q0 90 31 151t83 91.5t116 30.5q59 0 107.5 -28.5t77 -86t28.5 -143.5q0 -9 -0.5 -18.5t-1.5 -18.5h-362v74h292l-18 -37q0 96 -36.5 136.5t-87.5 40.5q-40 0 -70.5 -21.5t-47.5 -64t-17 -106.5q0 -59 21.5 -98.5t57.5 -59.5t81 -20q36 0 66 12t53 30l43 -73
q-34 -28 -76.5 -40.5t-88.5 -12.5q-72 0 -128.5 29t-89.5 87.5t-33 145.5zM130 637q0 24 16 41t41 17q27 0 42 -17t15 -41q0 -23 -15 -40t-42 -17q-25 0 -41 17t-16 40zM326 637q0 24 16 41t41 17q27 0 42 -17t15 -41q0 -23 -15 -40t-42 -17q-25 0 -41 17t-16 40z" />
    <glyph glyph-name="igrave" unicode="&#xec;" horiz-adv-x="272" 
d="M90 0v515h92v-515h-92zM-5 735h111l75 -150h-76z" />
    <glyph glyph-name="iacute" unicode="&#xed;" horiz-adv-x="272" 
d="M90 0v515h92v-515h-92zM91 585l75 150h111l-110 -150h-76z" />
    <glyph glyph-name="icircumflex" unicode="&#xee;" horiz-adv-x="272" 
d="M90 0v515h92v-515h-92zM-2 585l87 150h102l87 -150h-77l-61 86l-61 -86h-77z" />
    <glyph glyph-name="idieresis" unicode="&#xef;" horiz-adv-x="272" 
d="M90 0v515h92v-515h-92zM-19 637q0 24 16 41t41 17q27 0 42 -17t15 -41q0 -23 -15 -40t-42 -17q-25 0 -41 17t-16 40zM177 637q0 24 16 41t41 17q27 0 42 -17t15 -41q0 -23 -15 -40t-42 -17q-25 0 -41 17t-16 40z" />
    <glyph glyph-name="eth" unicode="&#xf0;" horiz-adv-x="575" 
d="M55 235q0 80 31 134.5t79.5 82.5t100.5 28q41 0 71 -13.5t52 -34.5q-16 43 -40 83t-54 77l-96 -54l-29 52l84 47q-22 23 -45 43.5t-49 39.5h120q12 -9 24.5 -19.5t24.5 -21.5l91 51l29 -52l-78 -44q40 -47 73 -106t52.5 -126.5t18.5 -141.5q0 -87 -31.5 -147.5
t-83.5 -91.5t-114 -31t-114.5 28t-84.5 82.5t-32 134.5zM149 235q0 -80 40 -122t97 -42q38 0 69 22t49.5 64t18.5 103q0 18 -1.5 35.5t-4.5 35.5q-22 32 -57 50t-74 18q-38 0 -69 -18.5t-49.5 -55t-18.5 -90.5z" />
    <glyph glyph-name="ntilde" unicode="&#xf1;" horiz-adv-x="604" 
d="M75 515h86l15 -74q33 38 75.5 61t88.5 23q51 0 91.5 -23t64 -69t23.5 -117v-316h-92v304q0 47 -14.5 76.5t-39.5 43.5t-57 14q-35 0 -69 -17t-65 -47v-374h-92v393q0 21 -1.5 38.5t-5.5 39.5zM168 585q5 57 27.5 88.5t61.5 31.5q20 0 36 -7.5t29 -17t25 -17t23 -7.5
t19 9.5t11 34.5h60q-4 -57 -27 -88.5t-62 -31.5q-20 0 -36 7.5t-29 17t-25 17t-23 7.5q-10 0 -18.5 -9t-11.5 -35h-60z" />
    <glyph glyph-name="ograve" unicode="&#xf2;" horiz-adv-x="572" 
d="M55 257q0 87 30 146.5t82 90.5t119 31t119 -31t82 -90.5t30 -146.5q0 -86 -30 -146t-82 -90.5t-119 -30.5t-119 30.5t-82 90.5t-30 146zM149 257q0 -60 16.5 -101.5t47 -63t73.5 -21.5t73.5 21.5t47 63t16.5 101.5t-16.5 101.5t-47 63.5t-73.5 22t-73.5 -22t-47 -63.5
t-16.5 -101.5zM145 735h111l75 -150h-76z" />
    <glyph glyph-name="oacute" unicode="&#xf3;" horiz-adv-x="572" 
d="M55 257q0 87 30 146.5t82 90.5t119 31t119 -31t82 -90.5t30 -146.5q0 -86 -30 -146t-82 -90.5t-119 -30.5t-119 30.5t-82 90.5t-30 146zM149 257q0 -60 16.5 -101.5t47 -63t73.5 -21.5t73.5 21.5t47 63t16.5 101.5t-16.5 101.5t-47 63.5t-73.5 22t-73.5 -22t-47 -63.5
t-16.5 -101.5zM241 585l75 150h111l-110 -150h-76z" />
    <glyph glyph-name="ocircumflex" unicode="&#xf4;" horiz-adv-x="572" 
d="M55 257q0 87 30 146.5t82 90.5t119 31t119 -31t82 -90.5t30 -146.5q0 -86 -30 -146t-82 -90.5t-119 -30.5t-119 30.5t-82 90.5t-30 146zM149 257q0 -60 16.5 -101.5t47 -63t73.5 -21.5t73.5 21.5t47 63t16.5 101.5t-16.5 101.5t-47 63.5t-73.5 22t-73.5 -22t-47 -63.5
t-16.5 -101.5zM148 585l87 150h102l87 -150h-77l-61 86l-61 -86h-77z" />
    <glyph glyph-name="otilde" unicode="&#xf5;" horiz-adv-x="572" 
d="M55 257q0 87 30 146.5t82 90.5t119 31t119 -31t82 -90.5t30 -146.5q0 -86 -30 -146t-82 -90.5t-119 -30.5t-119 30.5t-82 90.5t-30 146zM149 257q0 -60 16.5 -101.5t47 -63t73.5 -21.5t73.5 21.5t47 63t16.5 101.5t-16.5 101.5t-47 63.5t-73.5 22t-73.5 -22t-47 -63.5
t-16.5 -101.5zM140 585q5 57 27.5 88.5t61.5 31.5q20 0 36 -7.5t29 -17t25 -17t23 -7.5t19 9.5t11 34.5h60q-4 -57 -27 -88.5t-62 -31.5q-20 0 -36 7.5t-29 17t-25 17t-23 7.5q-10 0 -18.5 -9t-11.5 -35h-60z" />
    <glyph glyph-name="odieresis" unicode="&#xf6;" horiz-adv-x="572" 
d="M55 257q0 87 30 146.5t82 90.5t119 31t119 -31t82 -90.5t30 -146.5q0 -86 -30 -146t-82 -90.5t-119 -30.5t-119 30.5t-82 90.5t-30 146zM149 257q0 -60 16.5 -101.5t47 -63t73.5 -21.5t73.5 21.5t47 63t16.5 101.5t-16.5 101.5t-47 63.5t-73.5 22t-73.5 -22t-47 -63.5
t-16.5 -101.5zM131 637q0 24 16 41t41 17q27 0 42 -17t15 -41q0 -23 -15 -40t-42 -17q-25 0 -41 17t-16 40zM327 637q0 24 16 41t41 17q27 0 42 -17t15 -41q0 -23 -15 -40t-42 -17q-25 0 -41 17t-16 40z" />
    <glyph glyph-name="divide" unicode="&#xf7;" 
d="M73 250v80h454v-80h-454zM239 118q0 26 17.5 44t43.5 18q28 0 44.5 -18t16.5 -44q0 -27 -16.5 -45t-44.5 -18q-26 0 -43.5 18t-17.5 45zM239 462q0 27 17.5 45t43.5 18q28 0 44.5 -18t16.5 -45q0 -26 -16.5 -44t-44.5 -18q-26 0 -43.5 18t-17.5 44z" />
    <glyph glyph-name="oslash" unicode="&#xf8;" horiz-adv-x="572" 
d="M55 257q0 87 30 146.5t82 90.5t119 31t119 -31t82 -90.5t30 -146.5q0 -86 -30 -146t-82 -90.5t-119 -30.5t-119 30.5t-82 90.5t-30 146zM149 257q0 -60 16.5 -101.5t47 -63t73.5 -21.5t73.5 21.5t47 63t16.5 101.5t-16.5 101.5t-47 63.5t-73.5 22t-73.5 -22t-47 -63.5
t-16.5 -101.5zM415 585l67 -34l-325 -623l-67 34z" />
    <glyph glyph-name="ugrave" unicode="&#xf9;" 
d="M85 199v316h92v-304q0 -70 30.5 -102t78.5 -32q35 0 68.5 17t63.5 47v374h92v-393q0 -21 1.5 -38.5t5.5 -39.5l8 -44h-86l-15 74q-32 -37 -73.5 -60.5t-88.5 -23.5q-51 0 -91 23t-63 69.5t-23 116.5zM157 735h111l75 -150h-76z" />
    <glyph glyph-name="uacute" unicode="&#xfa;" 
d="M85 199v316h92v-304q0 -70 30.5 -102t78.5 -32q35 0 68.5 17t63.5 47v374h92v-393q0 -21 1.5 -38.5t5.5 -39.5l8 -44h-86l-15 74q-32 -37 -73.5 -60.5t-88.5 -23.5q-51 0 -91 23t-63 69.5t-23 116.5zM253 585l75 150h111l-110 -150h-76z" />
    <glyph glyph-name="ucircumflex" unicode="&#xfb;" 
d="M85 199v316h92v-304q0 -70 30.5 -102t78.5 -32q35 0 68.5 17t63.5 47v374h92v-393q0 -21 1.5 -38.5t5.5 -39.5l8 -44h-86l-15 74q-32 -37 -73.5 -60.5t-88.5 -23.5q-51 0 -91 23t-63 69.5t-23 116.5zM160 585l87 150h102l87 -150h-77l-61 86l-61 -86h-77z" />
    <glyph glyph-name="udieresis" unicode="&#xfc;" 
d="M85 199v316h92v-304q0 -70 30.5 -102t78.5 -32q35 0 68.5 17t63.5 47v374h92v-393q0 -21 1.5 -38.5t5.5 -39.5l8 -44h-86l-15 74q-32 -37 -73.5 -60.5t-88.5 -23.5q-51 0 -91 23t-63 69.5t-23 116.5zM143 637q0 24 16 41t41 17q27 0 42 -17t15 -41q0 -23 -15 -40t-42 -17
q-25 0 -41 17t-16 40zM339 637q0 24 16 41t41 17q27 0 42 -17t15 -41q0 -23 -15 -40t-42 -17q-25 0 -41 17t-16 40z" />
    <glyph glyph-name="yacute" unicode="&#xfd;" horiz-adv-x="496" 
d="M10 515h99l142 -389l140 389h95l-212 -541q-24 -62 -55 -99.5t-65.5 -53.5t-70.5 -16q-16 0 -30.5 3.5t-28.5 8.5l13 75q13 -4 22.5 -5.5t22.5 -1.5q35 0 62.5 24t54.5 88l7 17zM205 585l75 150h111l-110 -150h-76z" />
    <glyph glyph-name="thorn" unicode="&#xfe;" horiz-adv-x="586" 
d="M90 -200v915l92 20v-287q32 35 72.5 56t84.5 21q53 0 96.5 -31.5t69.5 -90.5t26 -141q0 -85 -26.5 -146t-74 -93.5t-112.5 -32.5q-37 0 -73.5 17.5t-62.5 55.5v-243zM182 232q0 -57 18 -93.5t45.5 -54t57.5 -17.5q62 0 98 53.5t36 138.5q0 59 -16 99t-44 61t-63 21
t-68.5 -17.5t-63.5 -48.5v-142z" />
    <glyph glyph-name="ydieresis" unicode="&#xff;" horiz-adv-x="496" 
d="M10 515h99l142 -389l140 389h95l-212 -541q-24 -62 -55 -99.5t-65.5 -53.5t-70.5 -16q-16 0 -30.5 3.5t-28.5 8.5l13 75q13 -4 22.5 -5.5t22.5 -1.5q35 0 62.5 24t54.5 88l7 17zM95 637q0 24 16 41t41 17q27 0 42 -17t15 -41q0 -23 -15 -40t-42 -17q-25 0 -41 17t-16 40z
M291 637q0 24 16 41t41 17q27 0 42 -17t15 -41q0 -23 -15 -40t-42 -17q-25 0 -41 17t-16 40z" />
    <glyph glyph-name="Amacron" unicode="&#x100;" horiz-adv-x="656" 
d="M20 0l266 690h84l266 -690h-104l-87 235l58 -41h-354l58 41l-87 -235h-100zM209 240l-28 40h290l-28 -40l-132 354h30zM180 760v70h296v-70h-296z" />
    <glyph glyph-name="amacron" unicode="&#x101;" horiz-adv-x="543" 
d="M60 132q0 45 24 83t79 63t148 28l55 2v6q0 66 -31 94.5t-86 28.5q-40 0 -74 -12t-68 -31l-32 78q35 22 86 37.5t97 15.5q57 0 102 -22t71.5 -66.5t26.5 -111.5v-203q0 -21 1.5 -38.5t5.5 -39.5l8 -44h-86l-15 73q-30 -36 -74.5 -59.5t-95.5 -23.5q-37 0 -69.5 17
t-52.5 49t-20 76zM154 140q0 -31 18.5 -48.5t49.5 -17.5q38 0 74.5 18t69.5 49v101l-51 -5q-65 -6 -100 -21t-48 -34.5t-13 -41.5zM117 585v70h296v-70h-296z" />
    <glyph glyph-name="Abreve" unicode="&#x102;" horiz-adv-x="656" 
d="M20 0l266 690h84l266 -690h-104l-87 235l58 -41h-354l58 41l-87 -235h-100zM209 240l-28 40h290l-28 -40l-132 354h30zM189 905h70q5 -37 22.5 -55.5t46.5 -18.5t47 18.5t22 55.5h70q-4 -49 -22.5 -82.5t-48 -50.5t-68.5 -17t-68.5 17t-47.5 50.5t-23 82.5z" />
    <glyph glyph-name="abreve" unicode="&#x103;" horiz-adv-x="543" 
d="M60 132q0 45 24 83t79 63t148 28l55 2v6q0 66 -31 94.5t-86 28.5q-40 0 -74 -12t-68 -31l-32 78q35 22 86 37.5t97 15.5q57 0 102 -22t71.5 -66.5t26.5 -111.5v-203q0 -21 1.5 -38.5t5.5 -39.5l8 -44h-86l-15 73q-30 -36 -74.5 -59.5t-95.5 -23.5q-37 0 -69.5 17
t-52.5 49t-20 76zM154 140q0 -31 18.5 -48.5t49.5 -17.5q38 0 74.5 18t69.5 49v101l-51 -5q-65 -6 -100 -21t-48 -34.5t-13 -41.5zM126 730h70q5 -37 22.5 -55.5t46.5 -18.5t47 18.5t22 55.5h70q-4 -49 -22.5 -82.5t-48 -50.5t-68.5 -17t-68.5 17t-47.5 50.5t-23 82.5z" />
    <glyph glyph-name="Aogonek" unicode="&#x104;" horiz-adv-x="656" 
d="M20 0l266 690h84l266 -690h-104l-87 235l58 -41h-354l58 41l-87 -235h-100zM209 240l-28 40h290l-28 -40l-132 354h30zM478 -110q0 35 24 64.5t54 45.5h80q-40 -22 -66 -47.5t-26 -52.5q0 -18 12 -28.5t28 -10.5q17 0 29.5 5.5t22.5 11.5l20 -48q-18 -11 -37 -18t-45 -7
q-40 0 -68 23t-28 62z" />
    <glyph glyph-name="aogonek" unicode="&#x105;" horiz-adv-x="543" 
d="M60 132q0 45 24 83t79 63t148 28l55 2v6q0 66 -31 94.5t-86 28.5q-40 0 -74 -12t-68 -31l-32 78q35 22 86 37.5t97 15.5q57 0 102 -22t71.5 -66.5t26.5 -111.5v-203q0 -21 1.5 -38.5t5.5 -39.5l8 -44h-86l-15 73q-30 -36 -74.5 -59.5t-95.5 -23.5q-37 0 -69.5 17
t-52.5 49t-20 76zM154 140q0 -31 18.5 -48.5t49.5 -17.5q38 0 74.5 18t69.5 49v101l-51 -5q-65 -6 -100 -21t-48 -34.5t-13 -41.5zM315 -110q0 35 24 64.5t54 45.5h80q-40 -22 -66 -47.5t-26 -52.5q0 -18 12 -28.5t28 -10.5q17 0 29.5 5.5t22.5 11.5l20 -48q-18 -11 -37 -18
t-45 -7q-40 0 -68 23t-28 62z" />
    <glyph glyph-name="Cacute" unicode="&#x106;" horiz-adv-x="644" 
d="M60 345q0 86 24.5 152t68 111t100 68.5t120.5 23.5q60 0 114 -24t99 -68l-68 -65q-31 32 -67.5 49t-77.5 17q-61 0 -109.5 -30t-76.5 -89t-28 -145t28 -145t76.5 -89t109.5 -30q47 0 86 17t70 51l65 -65q-45 -46 -100.5 -70t-120.5 -24q-64 0 -120.5 23t-100 68.5
t-68 111.5t-24.5 152zM307 760l75 150h111l-110 -150h-76z" />
    <glyph glyph-name="cacute" unicode="&#x107;" horiz-adv-x="504" 
d="M55 252q0 85 33.5 146t90.5 94t127 33q44 0 87.5 -16.5t73.5 -48.5l-56 -67q-19 22 -46.5 35t-62.5 13q-41 0 -76 -22t-56 -64.5t-21 -102.5t20.5 -99.5t54.5 -59t73 -19.5t69 13.5t50 34.5l53 -67q-30 -31 -75 -48t-93 -17q-70 0 -125.5 29t-88 87.5t-32.5 145.5z
M241 585l75 150h111l-110 -150h-76z" />
    <glyph glyph-name="Ccircumflex" unicode="&#x108;" horiz-adv-x="644" 
d="M60 345q0 86 24.5 152t68 111t100 68.5t120.5 23.5q60 0 114 -24t99 -68l-68 -65q-31 32 -67.5 49t-77.5 17q-61 0 -109.5 -30t-76.5 -89t-28 -145t28 -145t76.5 -89t109.5 -30q47 0 86 17t70 51l65 -65q-45 -46 -100.5 -70t-120.5 -24q-64 0 -120.5 23t-100 68.5
t-68 111.5t-24.5 152zM214 760l87 150h102l87 -150h-77l-61 86l-61 -86h-77z" />
    <glyph glyph-name="ccircumflex" unicode="&#x109;" horiz-adv-x="504" 
d="M55 252q0 85 33.5 146t90.5 94t127 33q44 0 87.5 -16.5t73.5 -48.5l-56 -67q-19 22 -46.5 35t-62.5 13q-41 0 -76 -22t-56 -64.5t-21 -102.5t20.5 -99.5t54.5 -59t73 -19.5t69 13.5t50 34.5l53 -67q-30 -31 -75 -48t-93 -17q-70 0 -125.5 29t-88 87.5t-32.5 145.5z
M148 585l87 150h102l87 -150h-77l-61 86l-61 -86h-77z" />
    <glyph glyph-name="Cdotaccent" unicode="&#x10a;" horiz-adv-x="644" 
d="M60 345q0 86 24.5 152t68 111t100 68.5t120.5 23.5q60 0 114 -24t99 -68l-68 -65q-31 32 -67.5 49t-77.5 17q-61 0 -109.5 -30t-76.5 -89t-28 -145t28 -145t76.5 -89t109.5 -30q47 0 86 17t70 51l65 -65q-45 -46 -100.5 -70t-120.5 -24q-64 0 -120.5 23t-100 68.5
t-68 111.5t-24.5 152zM291 812q0 27 17.5 45t43.5 18q28 0 44.5 -18t16.5 -45q0 -26 -16.5 -44t-44.5 -18q-26 0 -43.5 18t-17.5 44z" />
    <glyph glyph-name="cdotaccent" unicode="&#x10b;" horiz-adv-x="504" 
d="M55 252q0 85 33.5 146t90.5 94t127 33q44 0 87.5 -16.5t73.5 -48.5l-56 -67q-19 22 -46.5 35t-62.5 13q-41 0 -76 -22t-56 -64.5t-21 -102.5t20.5 -99.5t54.5 -59t73 -19.5t69 13.5t50 34.5l53 -67q-30 -31 -75 -48t-93 -17q-70 0 -125.5 29t-88 87.5t-32.5 145.5z
M225 637q0 27 17.5 45t43.5 18q28 0 44.5 -18t16.5 -45q0 -26 -16.5 -44t-44.5 -18q-26 0 -43.5 18t-17.5 44z" />
    <glyph glyph-name="Ccaron" unicode="&#x10c;" horiz-adv-x="644" 
d="M60 345q0 86 24.5 152t68 111t100 68.5t120.5 23.5q60 0 114 -24t99 -68l-68 -65q-31 32 -67.5 49t-77.5 17q-61 0 -109.5 -30t-76.5 -89t-28 -145t28 -145t76.5 -89t109.5 -30q47 0 86 17t70 51l65 -65q-45 -46 -100.5 -70t-120.5 -24q-64 0 -120.5 23t-100 68.5
t-68 111.5t-24.5 152zM490 910l-87 -150h-102l-87 150h77l61 -86l61 86h77z" />
    <glyph glyph-name="ccaron" unicode="&#x10d;" horiz-adv-x="504" 
d="M55 252q0 85 33.5 146t90.5 94t127 33q44 0 87.5 -16.5t73.5 -48.5l-56 -67q-19 22 -46.5 35t-62.5 13q-41 0 -76 -22t-56 -64.5t-21 -102.5t20.5 -99.5t54.5 -59t73 -19.5t69 13.5t50 34.5l53 -67q-30 -31 -75 -48t-93 -17q-70 0 -125.5 29t-88 87.5t-32.5 145.5z
M424 735l-87 -150h-102l-87 150h77l61 -86l61 86h77z" />
    <glyph glyph-name="Dcaron" unicode="&#x10e;" horiz-adv-x="701" 
d="M100 0v690h223q89 0 161 -40t114.5 -117t42.5 -188t-42.5 -188t-114.5 -117t-161 -40h-223zM196 86h122q64 0 114.5 30t80 88t29.5 141t-29.5 141t-80 88t-114.5 30h-122v-518zM446 910l-87 -150h-102l-87 150h77l61 -86l61 86h77z" />
    <glyph glyph-name="dcaron" unicode="&#x10f;" horiz-adv-x="586" 
d="M55 253q0 85 26.5 146t74 93.5t111.5 32.5q38 0 75 -17.5t62 -55.5v263l92 20v-613q0 -21 1.5 -38.5t5.5 -39.5l8 -44h-86l-15 74q-33 -37 -75 -60.5t-88 -23.5q-52 0 -96 31.5t-70 90.5t-26 141zM149 256q0 -58 16 -98.5t44 -61.5t63 -21t68.5 17.5t63.5 48.5v142
q0 58 -17.5 94t-45.5 53.5t-58 17.5q-62 0 -98 -53.5t-36 -138.5zM643 721q0 -14 -3.5 -28.5t-11.5 -37.5l-24 -70h-53l20 85q-16 6 -26 20t-10 31q0 23 15.5 38.5t38.5 15.5t38.5 -15.5t15.5 -38.5z" />
    <glyph glyph-name="Dcroat" unicode="&#x110;" horiz-adv-x="711" 
d="M35 305v80h75v305h223q89 0 161 -40t114.5 -117t42.5 -188t-42.5 -188t-114.5 -117t-161 -40h-223v305h-75zM206 86h122q64 0 114.5 30t80 88t29.5 141t-29.5 141t-80 88t-114.5 30h-122v-219h150v-80h-150v-219z" />
    <glyph glyph-name="dcroat" unicode="&#x111;" horiz-adv-x="591" 
d="M55 253q0 85 26.5 146t74 93.5t111.5 32.5q38 0 75 -17.5t62 -55.5v133h-150v60h150v70l92 20v-90h75v-60h-75v-463q0 -21 1.5 -38.5t5.5 -39.5l8 -44h-86l-15 74q-33 -37 -75 -60.5t-88 -23.5q-52 0 -96 31.5t-70 90.5t-26 141zM149 256q0 -58 16 -98.5t44 -61.5t63 -21
t68.5 17.5t63.5 48.5v142q0 58 -17.5 94t-45.5 53.5t-58 17.5q-62 0 -98 -53.5t-36 -138.5z" />
    <glyph glyph-name="Emacron" unicode="&#x112;" horiz-adv-x="621" 
d="M100 0v690h446v-86h-350v-211h300v-86h-300v-221h355v-86h-451zM175 760v70h296v-70h-296z" />
    <glyph glyph-name="emacron" unicode="&#x113;" horiz-adv-x="553" 
d="M55 252q0 90 31 151t83 91.5t116 30.5q59 0 107.5 -28.5t77 -86t28.5 -143.5q0 -9 -0.5 -18.5t-1.5 -18.5h-362v74h292l-18 -37q0 96 -36.5 136.5t-87.5 40.5q-40 0 -70.5 -21.5t-47.5 -64t-17 -106.5q0 -59 21.5 -98.5t57.5 -59.5t81 -20q36 0 66 12t53 30l43 -73
q-34 -28 -76.5 -40.5t-88.5 -12.5q-72 0 -128.5 29t-89.5 87.5t-33 145.5zM137 585v70h296v-70h-296z" />
    <glyph glyph-name="Ebreve" unicode="&#x114;" horiz-adv-x="621" 
d="M100 0v690h446v-86h-350v-211h300v-86h-300v-221h355v-86h-451zM184 905h70q5 -37 22.5 -55.5t46.5 -18.5t47 18.5t22 55.5h70q-4 -49 -22.5 -82.5t-48 -50.5t-68.5 -17t-68.5 17t-47.5 50.5t-23 82.5z" />
    <glyph glyph-name="ebreve" unicode="&#x115;" horiz-adv-x="553" 
d="M55 252q0 90 31 151t83 91.5t116 30.5q59 0 107.5 -28.5t77 -86t28.5 -143.5q0 -9 -0.5 -18.5t-1.5 -18.5h-362v74h292l-18 -37q0 96 -36.5 136.5t-87.5 40.5q-40 0 -70.5 -21.5t-47.5 -64t-17 -106.5q0 -59 21.5 -98.5t57.5 -59.5t81 -20q36 0 66 12t53 30l43 -73
q-34 -28 -76.5 -40.5t-88.5 -12.5q-72 0 -128.5 29t-89.5 87.5t-33 145.5zM146 730h70q5 -37 22.5 -55.5t46.5 -18.5t47 18.5t22 55.5h70q-4 -49 -22.5 -82.5t-48 -50.5t-68.5 -17t-68.5 17t-47.5 50.5t-23 82.5z" />
    <glyph glyph-name="Edotaccent" unicode="&#x116;" horiz-adv-x="621" 
d="M100 0v690h446v-86h-350v-211h300v-86h-300v-221h355v-86h-451zM262 812q0 27 17.5 45t43.5 18q28 0 44.5 -18t16.5 -45q0 -26 -16.5 -44t-44.5 -18q-26 0 -43.5 18t-17.5 44z" />
    <glyph glyph-name="edotaccent" unicode="&#x117;" horiz-adv-x="553" 
d="M55 252q0 90 31 151t83 91.5t116 30.5q59 0 107.5 -28.5t77 -86t28.5 -143.5q0 -9 -0.5 -18.5t-1.5 -18.5h-362v74h292l-18 -37q0 96 -36.5 136.5t-87.5 40.5q-40 0 -70.5 -21.5t-47.5 -64t-17 -106.5q0 -59 21.5 -98.5t57.5 -59.5t81 -20q36 0 66 12t53 30l43 -73
q-34 -28 -76.5 -40.5t-88.5 -12.5q-72 0 -128.5 29t-89.5 87.5t-33 145.5zM224 637q0 27 17.5 45t43.5 18q28 0 44.5 -18t16.5 -45q0 -26 -16.5 -44t-44.5 -18q-26 0 -43.5 18t-17.5 44z" />
    <glyph glyph-name="Eogonek" unicode="&#x118;" horiz-adv-x="621" 
d="M100 0v690h446v-86h-350v-211h300v-86h-300v-221h355v-86h-451zM392 -110q0 35 24 64.5t54 45.5h80q-40 -22 -66 -47.5t-26 -52.5q0 -18 12 -28.5t28 -10.5q17 0 29.5 5.5t22.5 11.5l20 -48q-18 -11 -37 -18t-45 -7q-40 0 -68 23t-28 62z" />
    <glyph glyph-name="eogonek" unicode="&#x119;" horiz-adv-x="553" 
d="M55 252q0 90 31 151t83 91.5t116 30.5q59 0 107.5 -28.5t77 -86t28.5 -143.5q0 -9 -0.5 -18.5t-1.5 -18.5h-362v74h292l-18 -37q0 96 -36.5 136.5t-87.5 40.5q-40 0 -70.5 -21.5t-47.5 -64t-17 -106.5q0 -59 21.5 -98.5t57.5 -59.5t81 -20q36 0 66 12t53 30l43 -73
q-34 -28 -76.5 -40.5t-88.5 -12.5q-72 0 -128.5 29t-89.5 87.5t-33 145.5zM213 -110q0 35 24 64.5t54 45.5h80q-40 -22 -66 -47.5t-26 -52.5q0 -18 12 -28.5t28 -10.5q17 0 29.5 5.5t22.5 11.5l20 -48q-18 -11 -37 -18t-45 -7q-40 0 -68 23t-28 62z" />
    <glyph glyph-name="Ecaron" unicode="&#x11a;" horiz-adv-x="621" 
d="M100 0v690h446v-86h-350v-211h300v-86h-300v-221h355v-86h-451zM461 910l-87 -150h-102l-87 150h77l61 -86l61 86h77z" />
    <glyph glyph-name="ecaron" unicode="&#x11b;" horiz-adv-x="553" 
d="M55 252q0 90 31 151t83 91.5t116 30.5q59 0 107.5 -28.5t77 -86t28.5 -143.5q0 -9 -0.5 -18.5t-1.5 -18.5h-362v74h292l-18 -37q0 96 -36.5 136.5t-87.5 40.5q-40 0 -70.5 -21.5t-47.5 -64t-17 -106.5q0 -59 21.5 -98.5t57.5 -59.5t81 -20q36 0 66 12t53 30l43 -73
q-34 -28 -76.5 -40.5t-88.5 -12.5q-72 0 -128.5 29t-89.5 87.5t-33 145.5zM423 735l-87 -150h-102l-87 150h77l61 -86l61 86h77z" />
    <glyph glyph-name="Gcircumflex" unicode="&#x11c;" horiz-adv-x="701" 
d="M60 345q0 86 25.5 152t70 111.5t103 68.5t124.5 23q62 0 116 -21t101 -65l-62 -71q-33 32 -72 49t-83 17q-64 0 -115 -30t-80 -88.5t-29 -145.5q0 -86 30 -146.5t82 -91.5t118 -31q38 0 71.5 9.5t64.5 28.5v143h-150v86h246v-261q-46 -40 -109 -66t-134 -26
q-67 0 -124.5 23t-101 68.5t-68 111.5t-24.5 152zM225 760l87 150h102l87 -150h-77l-61 86l-61 -86h-77z" />
    <glyph glyph-name="gcircumflex" unicode="&#x11d;" horiz-adv-x="586" 
d="M55 263q0 82 26.5 140.5t74.5 90t112 31.5q40 0 78.5 -19.5t63.5 -63.5l15 73h86l-8 -44q-4 -22 -5.5 -39.5t-1.5 -38.5v-347q0 -77 -30 -131t-82.5 -82t-118.5 -28q-49 0 -100 15t-86 35l33 81q35 -19 69 -32t80 -13q64 0 103.5 38t39.5 120v34q-32 -33 -72.5 -53
t-84.5 -20q-52 0 -96 30.5t-70 87t-26 135.5zM149 266q0 -55 16 -93.5t44 -58t63 -19.5q33 0 67 15.5t65 43.5v129q0 58 -17.5 94t-45.5 53.5t-58 17.5q-62 0 -98 -51t-36 -131zM148 585l87 150h102l87 -150h-77l-61 86l-61 -86h-77z" />
    <glyph glyph-name="Gbreve" unicode="&#x11e;" horiz-adv-x="701" 
d="M60 345q0 86 25.5 152t70 111.5t103 68.5t124.5 23q62 0 116 -21t101 -65l-62 -71q-33 32 -72 49t-83 17q-64 0 -115 -30t-80 -88.5t-29 -145.5q0 -86 30 -146.5t82 -91.5t118 -31q38 0 71.5 9.5t64.5 28.5v143h-150v86h246v-261q-46 -40 -109 -66t-134 -26
q-67 0 -124.5 23t-101 68.5t-68 111.5t-24.5 152zM224 905h70q5 -37 22.5 -55.5t46.5 -18.5t47 18.5t22 55.5h70q-4 -49 -22.5 -82.5t-48 -50.5t-68.5 -17t-68.5 17t-47.5 50.5t-23 82.5z" />
    <glyph glyph-name="gbreve" unicode="&#x11f;" horiz-adv-x="586" 
d="M55 263q0 82 26.5 140.5t74.5 90t112 31.5q40 0 78.5 -19.5t63.5 -63.5l15 73h86l-8 -44q-4 -22 -5.5 -39.5t-1.5 -38.5v-347q0 -77 -30 -131t-82.5 -82t-118.5 -28q-49 0 -100 15t-86 35l33 81q35 -19 69 -32t80 -13q64 0 103.5 38t39.5 120v34q-32 -33 -72.5 -53
t-84.5 -20q-52 0 -96 30.5t-70 87t-26 135.5zM149 266q0 -55 16 -93.5t44 -58t63 -19.5q33 0 67 15.5t65 43.5v129q0 58 -17.5 94t-45.5 53.5t-58 17.5q-62 0 -98 -51t-36 -131zM147 730h70q5 -37 22.5 -55.5t46.5 -18.5t47 18.5t22 55.5h70q-4 -49 -22.5 -82.5t-48 -50.5
t-68.5 -17t-68.5 17t-47.5 50.5t-23 82.5z" />
    <glyph glyph-name="Gdotaccent" unicode="&#x120;" horiz-adv-x="701" 
d="M60 345q0 86 25.5 152t70 111.5t103 68.5t124.5 23q62 0 116 -21t101 -65l-62 -71q-33 32 -72 49t-83 17q-64 0 -115 -30t-80 -88.5t-29 -145.5q0 -86 30 -146.5t82 -91.5t118 -31q38 0 71.5 9.5t64.5 28.5v143h-150v86h246v-261q-46 -40 -109 -66t-134 -26
q-67 0 -124.5 23t-101 68.5t-68 111.5t-24.5 152zM302 812q0 27 17.5 45t43.5 18q28 0 44.5 -18t16.5 -45q0 -26 -16.5 -44t-44.5 -18q-26 0 -43.5 18t-17.5 44z" />
    <glyph glyph-name="gdotaccent" unicode="&#x121;" horiz-adv-x="586" 
d="M55 263q0 82 26.5 140.5t74.5 90t112 31.5q40 0 78.5 -19.5t63.5 -63.5l15 73h86l-8 -44q-4 -22 -5.5 -39.5t-1.5 -38.5v-347q0 -77 -30 -131t-82.5 -82t-118.5 -28q-49 0 -100 15t-86 35l33 81q35 -19 69 -32t80 -13q64 0 103.5 38t39.5 120v34q-32 -33 -72.5 -53
t-84.5 -20q-52 0 -96 30.5t-70 87t-26 135.5zM149 266q0 -55 16 -93.5t44 -58t63 -19.5q33 0 67 15.5t65 43.5v129q0 58 -17.5 94t-45.5 53.5t-58 17.5q-62 0 -98 -51t-36 -131zM225 637q0 27 17.5 45t43.5 18q28 0 44.5 -18t16.5 -45q0 -26 -16.5 -44t-44.5 -18
q-26 0 -43.5 18t-17.5 44z" />
    <glyph glyph-name="uni0122" unicode="&#x122;" horiz-adv-x="701" 
d="M60 345q0 86 25.5 152t70 111.5t103 68.5t124.5 23q62 0 116 -21t101 -65l-62 -71q-33 32 -72 49t-83 17q-64 0 -115 -30t-80 -88.5t-29 -145.5q0 -86 30 -146.5t82 -91.5t118 -31q38 0 71.5 9.5t64.5 28.5v143h-150v86h246v-261q-46 -40 -109 -66t-134 -26
q-67 0 -124.5 23t-101 68.5t-68 111.5t-24.5 152zM432 -125q0 -14 -3.5 -28.5t-11.5 -37.5l-21 -60h-53l17 75q-16 6 -26 20t-10 31q0 23 15.5 38.5t38.5 15.5t38.5 -15.5t15.5 -38.5z" />
    <glyph glyph-name="uni0123" unicode="&#x123;" horiz-adv-x="586" 
d="M55 263q0 82 26.5 140.5t74.5 90t112 31.5q40 0 78.5 -19.5t63.5 -63.5l15 73h86l-8 -44q-4 -22 -5.5 -39.5t-1.5 -38.5v-347q0 -77 -30 -131t-82.5 -82t-118.5 -28q-49 0 -100 15t-86 35l33 81q35 -19 69 -32t80 -13q64 0 103.5 38t39.5 120v34q-32 -33 -72.5 -53
t-84.5 -20q-52 0 -96 30.5t-70 87t-26 135.5zM149 266q0 -55 16 -93.5t44 -58t63 -19.5q33 0 67 15.5t65 43.5v129q0 58 -17.5 94t-45.5 53.5t-58 17.5q-62 0 -98 -51t-36 -131zM232 634q0 14 3.5 28.5t11.5 37.5l24 70h53l-20 -85q16 -6 26 -20t10 -31q0 -23 -15.5 -38.5
t-38.5 -15.5t-38.5 15.5t-15.5 38.5z" />
    <glyph glyph-name="Hcircumflex" unicode="&#x124;" horiz-adv-x="736" 
d="M100 0v690h96v-297h344v297h96v-690h-96v307h-344v-307h-96zM230 760l87 150h102l87 -150h-77l-61 86l-61 -86h-77z" />
    <glyph glyph-name="hcircumflex" unicode="&#x125;" horiz-adv-x="604" 
d="M90 0v715l92 20v-287q32 35 72.5 56t85.5 21q51 0 91.5 -23t64 -69t23.5 -117v-316h-92v304q0 70 -31.5 102t-79.5 32q-35 0 -69 -16t-65 -45v-377h-92zM177 790l87 150h102l87 -150h-77l-61 86l-61 -86h-77z" />
    <glyph glyph-name="Hbar" unicode="&#x126;" horiz-adv-x="746" 
d="M105 0v525h-75v70h75v95h96v-95h344v95h96v-95h75v-70h-75v-525h-96v307h-344v-307h-96zM201 393h344v132h-344v-132z" />
    <glyph glyph-name="hbar" unicode="&#x127;" horiz-adv-x="609" 
d="M20 585v60h75v70l92 20v-90h150v-60h-150v-137q32 35 72.5 56t85.5 21q51 0 91.5 -23t64 -69t23.5 -117v-316h-92v304q0 70 -31.5 102t-79.5 32q-35 0 -69 -16t-65 -45v-377h-92v585h-75z" />
    <glyph glyph-name="Itilde" unicode="&#x128;" horiz-adv-x="456" 
d="M80 0v81h100v528h-100v81h296v-81h-100v-528h100v-81h-296zM82 760q5 57 27.5 88.5t61.5 31.5q20 0 36 -7.5t29 -17t25 -17t23 -7.5t19 9.5t11 34.5h60q-4 -57 -27 -88.5t-62 -31.5q-20 0 -36 7.5t-29 17t-25 17t-23 7.5q-10 0 -18.5 -9t-11.5 -35h-60z" />
    <glyph glyph-name="itilde" unicode="&#x129;" horiz-adv-x="272" 
d="M90 0v515h92v-515h-92zM-10 585q5 57 27.5 88.5t61.5 31.5q20 0 36 -7.5t29 -17t25 -17t23 -7.5t19 9.5t11 34.5h60q-4 -57 -27 -88.5t-62 -31.5q-20 0 -36 7.5t-29 17t-25 17t-23 7.5q-10 0 -18.5 -9t-11.5 -35h-60z" />
    <glyph glyph-name="Imacron" unicode="&#x12a;" horiz-adv-x="456" 
d="M80 0v81h100v528h-100v81h296v-81h-100v-528h100v-81h-296zM80 760v70h296v-70h-296z" />
    <glyph glyph-name="imacron" unicode="&#x12b;" horiz-adv-x="272" 
d="M90 0v515h92v-515h-92zM-12 585v70h296v-70h-296z" />
    <glyph glyph-name="Ibreve" unicode="&#x12c;" horiz-adv-x="456" 
d="M80 0v81h100v528h-100v81h296v-81h-100v-528h100v-81h-296zM89 905h70q5 -37 22.5 -55.5t46.5 -18.5t47 18.5t22 55.5h70q-4 -49 -22.5 -82.5t-48 -50.5t-68.5 -17t-68.5 17t-47.5 50.5t-23 82.5z" />
    <glyph glyph-name="ibreve" unicode="&#x12d;" horiz-adv-x="272" 
d="M90 0v515h92v-515h-92zM-3 730h70q5 -37 22.5 -55.5t46.5 -18.5t47 18.5t22 55.5h70q-4 -49 -22.5 -82.5t-48 -50.5t-68.5 -17t-68.5 17t-47.5 50.5t-23 82.5z" />
    <glyph glyph-name="Iogonek" unicode="&#x12e;" horiz-adv-x="456" 
d="M80 0v81h100v528h-100v81h296v-81h-100v-528h100v-81h-296zM153 -110q0 35 24 64.5t54 45.5h80q-40 -22 -66 -47.5t-26 -52.5q0 -18 12 -28.5t28 -10.5q17 0 29.5 5.5t22.5 11.5l20 -48q-18 -11 -37 -18t-45 -7q-40 0 -68 23t-28 62z" />
    <glyph glyph-name="iogonek" unicode="&#x12f;" horiz-adv-x="272" 
d="M90 0v515h92v-515h-92zM75 637q0 27 17.5 45t43.5 18q28 0 44.5 -18t16.5 -45q0 -26 -16.5 -44t-44.5 -18q-26 0 -43.5 18t-17.5 44zM24 -110q0 35 24 64.5t54 45.5h80q-40 -22 -66 -47.5t-26 -52.5q0 -18 12 -28.5t28 -10.5q17 0 29.5 5.5t22.5 11.5l20 -48
q-18 -11 -37 -18t-45 -7q-40 0 -68 23t-28 62z" />
    <glyph glyph-name="Idotaccent" unicode="&#x130;" horiz-adv-x="456" 
d="M80 0v81h100v528h-100v81h296v-81h-100v-528h100v-81h-296zM167 812q0 27 17.5 45t43.5 18q28 0 44.5 -18t16.5 -45q0 -26 -16.5 -44t-44.5 -18q-26 0 -43.5 18t-17.5 44z" />
    <glyph glyph-name="dotlessi" unicode="&#x131;" horiz-adv-x="272" 
d="M90 0v515h92v-515h-92z" />
    <glyph glyph-name="IJ" unicode="&#x132;" horiz-adv-x="739" 
d="M100 0v690h96v-690h-96zM296 25l38 79q18 -12 39.5 -19t46.5 -7q62 0 98.5 40.5t36.5 127.5v444h94v-454q0 -80 -30.5 -135t-82 -83t-115.5 -28q-34 0 -65 9t-60 26z" />
    <glyph glyph-name="ij" unicode="&#x133;" horiz-adv-x="544" 
d="M90 0v515h92v-515h-92zM75 667q0 27 17.5 45t43.5 18q28 0 44.5 -18t16.5 -45q0 -26 -16.5 -44t-44.5 -18q-26 0 -43.5 18t-17.5 44zM221 -181l16 76q12 -4 25 -6.5t28 -2.5q35 0 53.5 20.5t18.5 63.5v545h92v-549q0 -75 -45 -118t-113 -43q-20 0 -39.5 4t-35.5 10z
M347 667q0 27 17.5 45t43.5 18q28 0 44.5 -18t16.5 -45q0 -26 -16.5 -44t-44.5 -18q-26 0 -43.5 18t-17.5 44z" />
    <glyph glyph-name="Jcircumflex" unicode="&#x134;" horiz-adv-x="573" 
d="M45 107l71 56q18 -33 53 -59t85 -26q62 0 98.5 40.5t36.5 127.5v363h-182v81h276v-454q0 -80 -30.5 -135t-82 -83t-115.5 -28q-65 0 -122 33t-88 84zM207 760l87 150h102l87 -150h-77l-61 86l-61 -86h-77z" />
    <glyph glyph-name="jcircumflex" unicode="&#x135;" horiz-adv-x="272" 
d="M-51 -181l16 76q12 -4 25 -6.5t28 -2.5q35 0 53.5 20.5t18.5 63.5v545h92v-549q0 -75 -45 -118t-113 -43q-20 0 -39.5 4t-35.5 10zM-2 585l87 150h102l87 -150h-77l-61 86l-61 -86h-77z" />
    <glyph glyph-name="uni0136" unicode="&#x136;" horiz-adv-x="641" 
d="M100 0v690h96v-340l293 340h117l-265 -301l285 -389h-119l-228 320l-83 -95v-225h-96zM394 -125q0 -14 -3.5 -28.5t-11.5 -37.5l-21 -60h-53l17 75q-16 6 -26 20t-10 31q0 23 15.5 38.5t38.5 15.5t38.5 -15.5t15.5 -38.5z" />
    <glyph glyph-name="uni0137" unicode="&#x137;" horiz-adv-x="533" 
d="M90 0v715l92 20v-446l204 226h117l-194 -207l209 -308h-112l-158 243l-66 -71v-172h-92zM348 -125q0 -14 -3.5 -28.5t-11.5 -37.5l-21 -60h-53l17 75q-16 6 -26 20t-10 31q0 23 15.5 38.5t38.5 15.5t38.5 -15.5t15.5 -38.5z" />
    <glyph glyph-name="kra" unicode="&#x138;" horiz-adv-x="533" 
d="M90 0v515h92v-226l204 226h117l-194 -207l209 -308h-112l-158 243l-66 -71v-172h-92z" />
    <glyph glyph-name="Lacute" unicode="&#x139;" horiz-adv-x="556" 
d="M100 0v690h96v-604h320v-86h-416zM103 760l75 150h111l-110 -150h-76z" />
    <glyph glyph-name="lacute" unicode="&#x13a;" horiz-adv-x="272" 
d="M90 0v715l92 20v-735h-92zM91 790l75 150h111l-110 -150h-76z" />
    <glyph glyph-name="uni013B" unicode="&#x13b;" horiz-adv-x="556" 
d="M100 0v690h96v-604h320v-86h-416zM362 -125q0 -14 -3.5 -28.5t-11.5 -37.5l-21 -60h-53l17 75q-16 6 -26 20t-10 31q0 23 15.5 38.5t38.5 15.5t38.5 -15.5t15.5 -38.5z" />
    <glyph glyph-name="uni013C" unicode="&#x13c;" horiz-adv-x="272" 
d="M90 0v715l92 20v-735h-92zM190 -125q0 -14 -3.5 -28.5t-11.5 -37.5l-21 -60h-53l17 75q-16 6 -26 20t-10 31q0 23 15.5 38.5t38.5 15.5t38.5 -15.5t15.5 -38.5z" />
    <glyph glyph-name="Lcaron" unicode="&#x13d;" horiz-adv-x="556" 
d="M100 0v690h96v-604h320v-86h-416zM413 681q0 -14 -3.5 -28.5t-11.5 -37.5l-24 -70h-53l20 85q-16 6 -26 20t-10 31q0 23 15.5 38.5t38.5 15.5t38.5 -15.5t15.5 -38.5z" />
    <glyph glyph-name="lcaron" unicode="&#x13e;" horiz-adv-x="272" 
d="M90 0v715l92 20v-735h-92zM329 721q0 -14 -3.5 -28.5t-11.5 -37.5l-24 -70h-53l20 85q-16 6 -26 20t-10 31q0 23 15.5 38.5t38.5 15.5t38.5 -15.5t15.5 -38.5z" />
    <glyph glyph-name="Ldot" unicode="&#x13f;" horiz-adv-x="556" 
d="M100 0v690h96v-604h320v-86h-416zM365 348q0 27 17.5 45t43.5 18q28 0 44.5 -18t16.5 -45q0 -26 -16.5 -44t-44.5 -18q-26 0 -43.5 18t-17.5 44z" />
    <glyph glyph-name="ldot" unicode="&#x140;" horiz-adv-x="394" 
d="M90 0v715l92 20v-735h-92zM272 348q0 27 17.5 45t43.5 18q28 0 44.5 -18t16.5 -45q0 -26 -16.5 -44t-44.5 -18q-26 0 -43.5 18t-17.5 44z" />
    <glyph glyph-name="Lslash" unicode="&#x141;" horiz-adv-x="566" 
d="M110 0v252l-75 -42v90l75 42v348h96v-294l150 84v-90l-150 -84v-220h320v-86h-416z" />
    <glyph glyph-name="lslash" unicode="&#x142;" horiz-adv-x="308" 
d="M108 0v322l-93 -50v82l93 50v311l92 20v-281l93 50v-82l-93 -50v-372h-92z" />
    <glyph glyph-name="Nacute" unicode="&#x143;" horiz-adv-x="746" 
d="M100 0v690h146l324 -627l-20 -5v632h96v-690h-146l-324 627l20 5v-632h-96zM344 760l75 150h111l-110 -150h-76z" />
    <glyph glyph-name="nacute" unicode="&#x144;" horiz-adv-x="604" 
d="M75 515h86l15 -74q33 38 75.5 61t88.5 23q51 0 91.5 -23t64 -69t23.5 -117v-316h-92v304q0 47 -14.5 76.5t-39.5 43.5t-57 14q-35 0 -69 -17t-65 -47v-374h-92v393q0 21 -1.5 38.5t-5.5 39.5zM269 585l75 150h111l-110 -150h-76z" />
    <glyph glyph-name="uni0145" unicode="&#x145;" horiz-adv-x="746" 
d="M100 0v690h146l324 -627l-20 -5v632h96v-690h-146l-324 627l20 5v-632h-96zM427 -125q0 -14 -3.5 -28.5t-11.5 -37.5l-21 -60h-53l17 75q-16 6 -26 20t-10 31q0 23 15.5 38.5t38.5 15.5t38.5 -15.5t15.5 -38.5z" />
    <glyph glyph-name="uni0146" unicode="&#x146;" horiz-adv-x="604" 
d="M75 515h86l15 -74q33 38 75.5 61t88.5 23q51 0 91.5 -23t64 -69t23.5 -117v-316h-92v304q0 47 -14.5 76.5t-39.5 43.5t-57 14q-35 0 -69 -17t-65 -47v-374h-92v393q0 21 -1.5 38.5t-5.5 39.5zM358 -125q0 -14 -3.5 -28.5t-11.5 -37.5l-21 -60h-53l17 75q-16 6 -26 20
t-10 31q0 23 15.5 38.5t38.5 15.5t38.5 -15.5t15.5 -38.5z" />
    <glyph glyph-name="Ncaron" unicode="&#x147;" horiz-adv-x="746" 
d="M100 0v690h146l324 -627l-20 -5v632h96v-690h-146l-324 627l20 5v-632h-96zM527 910l-87 -150h-102l-87 150h77l61 -86l61 86h77z" />
    <glyph glyph-name="ncaron" unicode="&#x148;" horiz-adv-x="604" 
d="M75 515h86l15 -74q33 38 75.5 61t88.5 23q51 0 91.5 -23t64 -69t23.5 -117v-316h-92v304q0 47 -14.5 76.5t-39.5 43.5t-57 14q-35 0 -69 -17t-65 -47v-374h-92v393q0 21 -1.5 38.5t-5.5 39.5zM452 735l-87 -150h-102l-87 150h77l61 -86l61 86h77z" />
    <glyph glyph-name="napostrophe" unicode="&#x149;" horiz-adv-x="766" 
d="M57 470l35 138q-18 5 -31 20t-13 40q0 27 18.5 44.5t44.5 17.5q28 0 45.5 -18.5t17.5 -52.5q0 -16 -4 -32.5t-12 -36.5l-45 -120h-56zM237 515h86l15 -74q33 38 75.5 61t88.5 23q51 0 91.5 -23t64 -69t23.5 -117v-316h-92v304q0 47 -14.5 76.5t-39.5 43.5t-57 14
q-35 0 -69 -17t-65 -47v-374h-92v393q0 21 -1.5 38.5t-5.5 39.5z" />
    <glyph glyph-name="Eng" unicode="&#x14a;" horiz-adv-x="746" 
d="M100 0v690h146l326 -551l-22 -6v557h96v-724q0 -75 -46.5 -118t-115.5 -43q-20 0 -39.5 4t-35.5 10l16 76q12 -4 25 -6.5t28 -2.5q35 0 53.5 20.5t18.5 63.5v30l-376 636l22 6v-642h-96z" />
    <glyph glyph-name="eng" unicode="&#x14b;" horiz-adv-x="604" 
d="M75 515h86l15 -74q33 38 75.5 61t88.5 23q51 0 91.5 -23t64 -69t23.5 -117v-350q0 -75 -45 -118t-113 -43q-20 0 -39.5 4t-35.5 10l16 76q12 -4 25 -6.5t28 -2.5q35 0 53.5 20.5t18.5 63.5v334q0 47 -14.5 76.5t-39.5 43.5t-57 14q-35 0 -69 -17t-65 -47v-374h-92v393
q0 21 -1.5 38.5t-5.5 39.5z" />
    <glyph glyph-name="Omacron" unicode="&#x14c;" horiz-adv-x="726" 
d="M60 345q0 87 23.5 153.5t65.5 111.5t97 67.5t117 22.5t117 -22.5t97 -67.5t65.5 -111.5t23.5 -153.5t-23.5 -153.5t-65.5 -111.5t-97 -67.5t-117 -22.5t-117 22.5t-97 67.5t-65.5 111.5t-23.5 153.5zM159 345q0 -66 15.5 -116t43 -83.5t64.5 -50t81 -16.5t81 16.5
t64.5 50t43 83.5t15.5 116t-15.5 116t-43 83.5t-64.5 50t-81 16.5t-81 -16.5t-64.5 -50t-43 -83.5t-15.5 -116zM215 760v70h296v-70h-296z" />
    <glyph glyph-name="omacron" unicode="&#x14d;" horiz-adv-x="572" 
d="M55 257q0 87 30 146.5t82 90.5t119 31t119 -31t82 -90.5t30 -146.5q0 -86 -30 -146t-82 -90.5t-119 -30.5t-119 30.5t-82 90.5t-30 146zM149 257q0 -60 16.5 -101.5t47 -63t73.5 -21.5t73.5 21.5t47 63t16.5 101.5t-16.5 101.5t-47 63.5t-73.5 22t-73.5 -22t-47 -63.5
t-16.5 -101.5zM138 585v70h296v-70h-296z" />
    <glyph glyph-name="Obreve" unicode="&#x14e;" horiz-adv-x="726" 
d="M60 345q0 87 23.5 153.5t65.5 111.5t97 67.5t117 22.5t117 -22.5t97 -67.5t65.5 -111.5t23.5 -153.5t-23.5 -153.5t-65.5 -111.5t-97 -67.5t-117 -22.5t-117 22.5t-97 67.5t-65.5 111.5t-23.5 153.5zM159 345q0 -66 15.5 -116t43 -83.5t64.5 -50t81 -16.5t81 16.5
t64.5 50t43 83.5t15.5 116t-15.5 116t-43 83.5t-64.5 50t-81 16.5t-81 -16.5t-64.5 -50t-43 -83.5t-15.5 -116zM224 905h70q5 -37 22.5 -55.5t46.5 -18.5t47 18.5t22 55.5h70q-4 -49 -22.5 -82.5t-48 -50.5t-68.5 -17t-68.5 17t-47.5 50.5t-23 82.5z" />
    <glyph glyph-name="obreve" unicode="&#x14f;" horiz-adv-x="572" 
d="M55 257q0 87 30 146.5t82 90.5t119 31t119 -31t82 -90.5t30 -146.5q0 -86 -30 -146t-82 -90.5t-119 -30.5t-119 30.5t-82 90.5t-30 146zM149 257q0 -60 16.5 -101.5t47 -63t73.5 -21.5t73.5 21.5t47 63t16.5 101.5t-16.5 101.5t-47 63.5t-73.5 22t-73.5 -22t-47 -63.5
t-16.5 -101.5zM147 730h70q5 -37 22.5 -55.5t46.5 -18.5t47 18.5t22 55.5h70q-4 -49 -22.5 -82.5t-48 -50.5t-68.5 -17t-68.5 17t-47.5 50.5t-23 82.5z" />
    <glyph glyph-name="Ohungarumlaut" unicode="&#x150;" horiz-adv-x="726" 
d="M60 345q0 87 23.5 153.5t65.5 111.5t97 67.5t117 22.5t117 -22.5t97 -67.5t65.5 -111.5t23.5 -153.5t-23.5 -153.5t-65.5 -111.5t-97 -67.5t-117 -22.5t-117 22.5t-97 67.5t-65.5 111.5t-23.5 153.5zM159 345q0 -66 15.5 -116t43 -83.5t64.5 -50t81 -16.5t81 16.5
t64.5 50t43 83.5t15.5 116t-15.5 116t-43 83.5t-64.5 50t-81 16.5t-81 -16.5t-64.5 -50t-43 -83.5t-15.5 -116zM243 760l75 150h111l-110 -150h-76zM393 760l75 150h111l-110 -150h-76z" />
    <glyph glyph-name="ohungarumlaut" unicode="&#x151;" horiz-adv-x="572" 
d="M55 257q0 87 30 146.5t82 90.5t119 31t119 -31t82 -90.5t30 -146.5q0 -86 -30 -146t-82 -90.5t-119 -30.5t-119 30.5t-82 90.5t-30 146zM149 257q0 -60 16.5 -101.5t47 -63t73.5 -21.5t73.5 21.5t47 63t16.5 101.5t-16.5 101.5t-47 63.5t-73.5 22t-73.5 -22t-47 -63.5
t-16.5 -101.5zM166 585l75 150h111l-110 -150h-76zM316 585l75 150h111l-110 -150h-76z" />
    <glyph glyph-name="OE" unicode="&#x152;" horiz-adv-x="981" 
d="M60 345q0 87 27 152t75 108t111 64t135 21h498v-86h-330v-211h280v-86h-280v-221h335v-86h-503q-72 0 -135 21t-111 64t-75 108t-27 152zM159 345q0 -88 32.5 -145.5t89 -85.5t127.5 -28h72v518h-72q-71 0 -127.5 -28t-89 -85t-32.5 -146z" />
    <glyph glyph-name="oe" unicode="&#x153;" horiz-adv-x="876" 
d="M55 257q0 87 27.5 146.5t76 90.5t110.5 31q59 0 105 -31.5t72 -91.5q26 62 72.5 92.5t101.5 30.5q56 0 101.5 -28.5t72.5 -86t27 -143.5q0 -9 -0.5 -18.5t-1.5 -18.5h-326q6 -78 48 -117.5t101 -39.5q33 0 60.5 12t48.5 30l43 -73q-32 -28 -72 -40.5t-83 -12.5
q-64 0 -115 30.5t-79 91.5q-25 -59 -71.5 -90t-104.5 -31q-62 0 -110.5 30.5t-76 90.5t-27.5 146zM149 257q0 -60 14 -101.5t41 -63t65 -21.5q40 0 69 21.5t44.5 63t15.5 101.5t-15.5 101.5t-44.5 63.5t-69 22q-38 0 -65 -22t-41 -63.5t-14 -101.5zM495 304h234
q-6 76 -36.5 108t-73.5 32q-47 0 -80.5 -35t-43.5 -105z" />
    <glyph glyph-name="Racute" unicode="&#x154;" horiz-adv-x="650" 
d="M100 0v690h233q68 0 123 -25t88 -72.5t33 -117.5q0 -82 -44.5 -133t-114.5 -71l177 -271h-114l-161 260h-124v-260h-96zM196 343h132q64 0 107 34.5t43 97.5q0 62 -42.5 95.5t-107.5 33.5h-132v-261zM273 760l75 150h111l-110 -150h-76z" />
    <glyph glyph-name="racute" unicode="&#x155;" horiz-adv-x="370" 
d="M75 515h86l17 -82q29 43 71.5 67.5t95.5 24.5v-99q-53 -2 -94 -18.5t-69 -45.5v-362h-92v393q0 21 -1.5 38.5t-5.5 39.5zM165 585l75 150h111l-110 -150h-76z" />
    <glyph glyph-name="uni0156" unicode="&#x156;" horiz-adv-x="650" 
d="M100 0v690h233q68 0 123 -25t88 -72.5t33 -117.5q0 -82 -44.5 -133t-114.5 -71l177 -271h-114l-161 260h-124v-260h-96zM196 343h132q64 0 107 34.5t43 97.5q0 62 -42.5 95.5t-107.5 33.5h-132v-261zM393 -125q0 -14 -3.5 -28.5t-11.5 -37.5l-21 -60h-53l17 75
q-16 6 -26 20t-10 31q0 23 15.5 38.5t38.5 15.5t38.5 -15.5t15.5 -38.5z" />
    <glyph glyph-name="uni0157" unicode="&#x157;" horiz-adv-x="370" 
d="M75 515h86l17 -82q29 43 71.5 67.5t95.5 24.5v-99q-53 -2 -94 -18.5t-69 -45.5v-362h-92v393q0 21 -1.5 38.5t-5.5 39.5zM190 -125q0 -14 -3.5 -28.5t-11.5 -37.5l-21 -60h-53l17 75q-16 6 -26 20t-10 31q0 23 15.5 38.5t38.5 15.5t38.5 -15.5t15.5 -38.5z" />
    <glyph glyph-name="Rcaron" unicode="&#x158;" horiz-adv-x="650" 
d="M100 0v690h233q68 0 123 -25t88 -72.5t33 -117.5q0 -82 -44.5 -133t-114.5 -71l177 -271h-114l-161 260h-124v-260h-96zM196 343h132q64 0 107 34.5t43 97.5q0 62 -42.5 95.5t-107.5 33.5h-132v-261zM456 910l-87 -150h-102l-87 150h77l61 -86l61 86h77z" />
    <glyph glyph-name="rcaron" unicode="&#x159;" horiz-adv-x="370" 
d="M75 515h86l17 -82q29 43 71.5 67.5t95.5 24.5v-99q-53 -2 -94 -18.5t-69 -45.5v-362h-92v393q0 21 -1.5 38.5t-5.5 39.5zM348 735l-87 -150h-102l-87 150h77l61 -86l61 86h77z" />
    <glyph glyph-name="Sacute" unicode="&#x15a;" horiz-adv-x="624" 
d="M50 94l56 69q44 -41 99.5 -63.5t122.5 -22.5q47 0 78.5 13t47.5 34.5t16 46.5q0 27 -14.5 49.5t-51 43.5t-102.5 43q-85 29 -133.5 59.5t-68.5 66.5t-20 79q0 52 29.5 94.5t82.5 68t122 25.5q59 0 121 -23t110 -64l-55 -72q-37 36 -83.5 56t-99.5 20q-67 0 -100.5 -28.5
t-33.5 -66.5q0 -22 13.5 -42t47.5 -38.5t96 -38.5q89 -28 141 -62.5t75 -74t23 -83.5q0 -53 -29 -97t-84.5 -70t-135.5 -26q-50 0 -100.5 13.5t-94.5 37t-75 53.5zM269 760l75 150h111l-110 -150h-76z" />
    <glyph glyph-name="sacute" unicode="&#x15b;" horiz-adv-x="501" 
d="M50 61l54 62q27 -22 63.5 -39t85.5 -17q51 0 76 17t25 45q0 18 -10.5 33.5t-37 30t-74.5 28.5q-88 27 -126 66.5t-38 92.5q0 42 24.5 74.5t67.5 51.5t98 19q43 0 88.5 -14.5t80.5 -43.5l-51 -66q-24 20 -56.5 33.5t-70.5 13.5q-46 0 -69.5 -17t-23.5 -41
q0 -19 10.5 -32.5t37 -25.5t73.5 -26q66 -19 102.5 -44.5t51.5 -55.5t15 -66q0 -43 -25 -77t-70 -53.5t-106 -19.5q-58 0 -109 20t-86 51zM213 585l75 150h111l-110 -150h-76z" />
    <glyph glyph-name="Scircumflex" unicode="&#x15c;" horiz-adv-x="624" 
d="M50 94l56 69q44 -41 99.5 -63.5t122.5 -22.5q47 0 78.5 13t47.5 34.5t16 46.5q0 27 -14.5 49.5t-51 43.5t-102.5 43q-85 29 -133.5 59.5t-68.5 66.5t-20 79q0 52 29.5 94.5t82.5 68t122 25.5q59 0 121 -23t110 -64l-55 -72q-37 36 -83.5 56t-99.5 20q-67 0 -100.5 -28.5
t-33.5 -66.5q0 -22 13.5 -42t47.5 -38.5t96 -38.5q89 -28 141 -62.5t75 -74t23 -83.5q0 -53 -29 -97t-84.5 -70t-135.5 -26q-50 0 -100.5 13.5t-94.5 37t-75 53.5zM176 760l87 150h102l87 -150h-77l-61 86l-61 -86h-77z" />
    <glyph glyph-name="scircumflex" unicode="&#x15d;" horiz-adv-x="501" 
d="M50 61l54 62q27 -22 63.5 -39t85.5 -17q51 0 76 17t25 45q0 18 -10.5 33.5t-37 30t-74.5 28.5q-88 27 -126 66.5t-38 92.5q0 42 24.5 74.5t67.5 51.5t98 19q43 0 88.5 -14.5t80.5 -43.5l-51 -66q-24 20 -56.5 33.5t-70.5 13.5q-46 0 -69.5 -17t-23.5 -41
q0 -19 10.5 -32.5t37 -25.5t73.5 -26q66 -19 102.5 -44.5t51.5 -55.5t15 -66q0 -43 -25 -77t-70 -53.5t-106 -19.5q-58 0 -109 20t-86 51zM120 585l87 150h102l87 -150h-77l-61 86l-61 -86h-77z" />
    <glyph glyph-name="Scedilla" unicode="&#x15e;" horiz-adv-x="624" 
d="M50 94l56 69q44 -41 99.5 -63.5t122.5 -22.5q47 0 78.5 13t47.5 34.5t16 46.5q0 27 -14.5 49.5t-51 43.5t-102.5 43q-85 29 -133.5 59.5t-68.5 66.5t-20 79q0 52 29.5 94.5t82.5 68t122 25.5q59 0 121 -23t110 -64l-55 -72q-37 36 -83.5 56t-99.5 20q-67 0 -100.5 -28.5
t-33.5 -66.5q0 -22 13.5 -42t47.5 -38.5t96 -38.5q89 -28 141 -62.5t75 -74t23 -83.5q0 -53 -29 -97t-84.5 -70t-135.5 -26q-50 0 -100.5 13.5t-94.5 37t-75 53.5zM242 -240l12 55q53 1 69.5 14.5t16.5 30.5q0 15 -9 24.5t-29 10.5l-30 2l18 118l58 -6l-12 -74
q44 -4 64 -24.5t20 -51.5q0 -22 -13.5 -45t-46 -38.5t-88.5 -15.5h-30z" />
    <glyph glyph-name="scedilla" unicode="&#x15f;" horiz-adv-x="501" 
d="M50 61l54 62q27 -22 63.5 -39t85.5 -17q51 0 76 17t25 45q0 18 -10.5 33.5t-37 30t-74.5 28.5q-88 27 -126 66.5t-38 92.5q0 42 24.5 74.5t67.5 51.5t98 19q43 0 88.5 -14.5t80.5 -43.5l-51 -66q-24 20 -56.5 33.5t-70.5 13.5q-46 0 -69.5 -17t-23.5 -41
q0 -19 10.5 -32.5t37 -25.5t73.5 -26q66 -19 102.5 -44.5t51.5 -55.5t15 -66q0 -43 -25 -77t-70 -53.5t-106 -19.5q-58 0 -109 20t-86 51zM167 -240l12 55q53 1 69.5 14.5t16.5 30.5q0 15 -9 24.5t-29 10.5l-30 2l18 118l58 -6l-12 -74q44 -4 64 -24.5t20 -51.5
q0 -22 -13.5 -45t-46 -38.5t-88.5 -15.5h-30z" />
    <glyph glyph-name="Scaron" unicode="&#x160;" horiz-adv-x="624" 
d="M50 94l56 69q44 -41 99.5 -63.5t122.5 -22.5q47 0 78.5 13t47.5 34.5t16 46.5q0 27 -14.5 49.5t-51 43.5t-102.5 43q-85 29 -133.5 59.5t-68.5 66.5t-20 79q0 52 29.5 94.5t82.5 68t122 25.5q59 0 121 -23t110 -64l-55 -72q-37 36 -83.5 56t-99.5 20q-67 0 -100.5 -28.5
t-33.5 -66.5q0 -22 13.5 -42t47.5 -38.5t96 -38.5q89 -28 141 -62.5t75 -74t23 -83.5q0 -53 -29 -97t-84.5 -70t-135.5 -26q-50 0 -100.5 13.5t-94.5 37t-75 53.5zM452 910l-87 -150h-102l-87 150h77l61 -86l61 86h77z" />
    <glyph glyph-name="scaron" unicode="&#x161;" horiz-adv-x="501" 
d="M50 61l54 62q27 -22 63.5 -39t85.5 -17q51 0 76 17t25 45q0 18 -10.5 33.5t-37 30t-74.5 28.5q-88 27 -126 66.5t-38 92.5q0 42 24.5 74.5t67.5 51.5t98 19q43 0 88.5 -14.5t80.5 -43.5l-51 -66q-24 20 -56.5 33.5t-70.5 13.5q-46 0 -69.5 -17t-23.5 -41
q0 -19 10.5 -32.5t37 -25.5t73.5 -26q66 -19 102.5 -44.5t51.5 -55.5t15 -66q0 -43 -25 -77t-70 -53.5t-106 -19.5q-58 0 -109 20t-86 51zM396 735l-87 -150h-102l-87 150h77l61 -86l61 86h77z" />
    <glyph glyph-name="uni0162" unicode="&#x162;" horiz-adv-x="576" 
d="M30 604v86h516v-86h-210v-604h-96v604h-210zM210 -240l12 55q53 1 69.5 14.5t16.5 30.5q0 15 -9 24.5t-29 10.5l-30 2l18 118l58 -6l-12 -74q44 -4 64 -24.5t20 -51.5q0 -22 -13.5 -45t-46 -38.5t-88.5 -15.5h-30z" />
    <glyph glyph-name="uni0163" unicode="&#x163;" horiz-adv-x="394" 
d="M20 435v80h90v119l92 20v-139h152v-80h-152v-279q0 -40 19 -61.5t59 -21.5q17 0 34.5 4.5t38.5 12.5l16 -79q-24 -9 -51 -15t-54 -6q-42 0 -77 19t-56 55t-21 88v283h-90zM152 -240l12 55q53 1 69.5 14.5t16.5 30.5q0 15 -9 24.5t-29 10.5l-30 2l18 118l58 -6l-12 -74
q44 -4 64 -24.5t20 -51.5q0 -22 -13.5 -45t-46 -38.5t-88.5 -15.5h-30z" />
    <glyph glyph-name="Tcaron" unicode="&#x164;" horiz-adv-x="576" 
d="M30 604v86h516v-86h-210v-604h-96v604h-210zM426 910l-87 -150h-102l-87 150h77l61 -86l61 86h77z" />
    <glyph glyph-name="tcaron" unicode="&#x165;" horiz-adv-x="394" 
d="M20 435v80h90v119l92 20v-139h152v-80h-152v-279q0 -40 19 -61.5t59 -21.5q17 0 34.5 4.5t38.5 12.5l16 -79q-24 -9 -51 -15t-54 -6q-42 0 -77 19t-56 55t-21 88v283h-90zM411 721q0 -14 -3.5 -28.5t-11.5 -37.5l-24 -70h-53l20 85q-16 6 -26 20t-10 31q0 23 15.5 38.5
t38.5 15.5t38.5 -15.5t15.5 -38.5z" />
    <glyph glyph-name="Tbar" unicode="&#x166;" horiz-adv-x="586" 
d="M35 604v86h516v-86h-210v-234h150v-80h-150v-290h-96v290h-150v80h150v234h-210z" />
    <glyph glyph-name="tbar" unicode="&#x167;" horiz-adv-x="414" 
d="M30 435v80h90v119l92 20v-139h152v-80h-152v-125h152v-70h-152v-84q0 -40 19 -61.5t59 -21.5q17 0 34.5 4.5t38.5 12.5l16 -79q-24 -9 -51 -15t-54 -6q-42 0 -77 19t-56 55t-21 88v88h-90v70h90v125h-90z" />
    <glyph glyph-name="Utilde" unicode="&#x168;" horiz-adv-x="706" 
d="M90 250v440h96v-430q0 -58 21 -98.5t58.5 -61.5t88.5 -21t89 21t58.5 61.5t20.5 98.5v430h94v-440q0 -83 -34.5 -141.5t-94 -88.5t-134.5 -30q-74 0 -134 30t-94.5 88.5t-34.5 141.5zM207 760q5 57 27.5 88.5t61.5 31.5q20 0 36 -7.5t29 -17t25 -17t23 -7.5t19 9.5
t11 34.5h60q-4 -57 -27 -88.5t-62 -31.5q-20 0 -36 7.5t-29 17t-25 17t-23 7.5q-10 0 -18.5 -9t-11.5 -35h-60z" />
    <glyph glyph-name="utilde" unicode="&#x169;" 
d="M85 199v316h92v-304q0 -70 30.5 -102t78.5 -32q35 0 68.5 17t63.5 47v374h92v-393q0 -21 1.5 -38.5t5.5 -39.5l8 -44h-86l-15 74q-32 -37 -73.5 -60.5t-88.5 -23.5q-51 0 -91 23t-63 69.5t-23 116.5zM152 585q5 57 27.5 88.5t61.5 31.5q20 0 36 -7.5t29 -17t25 -17
t23 -7.5t19 9.5t11 34.5h60q-4 -57 -27 -88.5t-62 -31.5q-20 0 -36 7.5t-29 17t-25 17t-23 7.5q-10 0 -18.5 -9t-11.5 -35h-60z" />
    <glyph glyph-name="Umacron" unicode="&#x16a;" horiz-adv-x="706" 
d="M90 250v440h96v-430q0 -58 21 -98.5t58.5 -61.5t88.5 -21t89 21t58.5 61.5t20.5 98.5v430h94v-440q0 -83 -34.5 -141.5t-94 -88.5t-134.5 -30q-74 0 -134 30t-94.5 88.5t-34.5 141.5zM205 760v70h296v-70h-296z" />
    <glyph glyph-name="umacron" unicode="&#x16b;" 
d="M85 199v316h92v-304q0 -70 30.5 -102t78.5 -32q35 0 68.5 17t63.5 47v374h92v-393q0 -21 1.5 -38.5t5.5 -39.5l8 -44h-86l-15 74q-32 -37 -73.5 -60.5t-88.5 -23.5q-51 0 -91 23t-63 69.5t-23 116.5zM150 585v70h296v-70h-296z" />
    <glyph glyph-name="Ubreve" unicode="&#x16c;" horiz-adv-x="706" 
d="M90 250v440h96v-430q0 -58 21 -98.5t58.5 -61.5t88.5 -21t89 21t58.5 61.5t20.5 98.5v430h94v-440q0 -83 -34.5 -141.5t-94 -88.5t-134.5 -30q-74 0 -134 30t-94.5 88.5t-34.5 141.5zM214 905h70q5 -37 22.5 -55.5t46.5 -18.5t47 18.5t22 55.5h70q-4 -49 -22.5 -82.5
t-48 -50.5t-68.5 -17t-68.5 17t-47.5 50.5t-23 82.5z" />
    <glyph glyph-name="ubreve" unicode="&#x16d;" 
d="M85 199v316h92v-304q0 -70 30.5 -102t78.5 -32q35 0 68.5 17t63.5 47v374h92v-393q0 -21 1.5 -38.5t5.5 -39.5l8 -44h-86l-15 74q-32 -37 -73.5 -60.5t-88.5 -23.5q-51 0 -91 23t-63 69.5t-23 116.5zM159 730h70q5 -37 22.5 -55.5t46.5 -18.5t47 18.5t22 55.5h70
q-4 -49 -22.5 -82.5t-48 -50.5t-68.5 -17t-68.5 17t-47.5 50.5t-23 82.5z" />
    <glyph glyph-name="Uring" unicode="&#x16e;" horiz-adv-x="706" 
d="M90 250v440h96v-430q0 -58 21 -98.5t58.5 -61.5t88.5 -21t89 21t58.5 61.5t20.5 98.5v430h94v-440q0 -83 -34.5 -141.5t-94 -88.5t-134.5 -30q-74 0 -134 30t-94.5 88.5t-34.5 141.5zM237 869q0 51 33.5 82.5t82.5 31.5t83 -31.5t34 -82.5t-34 -82.5t-83 -31.5
t-82.5 31.5t-33.5 82.5zM303 869q0 -28 14 -43.5t36 -15.5q23 0 37 15.5t14 43.5t-14 43.5t-37 15.5q-22 0 -36 -15.5t-14 -43.5z" />
    <glyph glyph-name="uring" unicode="&#x16f;" 
d="M85 199v316h92v-304q0 -70 30.5 -102t78.5 -32q35 0 68.5 17t63.5 47v374h92v-393q0 -21 1.5 -38.5t5.5 -39.5l8 -44h-86l-15 74q-32 -37 -73.5 -60.5t-88.5 -23.5q-51 0 -91 23t-63 69.5t-23 116.5zM182 694q0 51 33.5 82.5t82.5 31.5t83 -31.5t34 -82.5t-34 -82.5
t-83 -31.5t-82.5 31.5t-33.5 82.5zM248 694q0 -28 14 -43.5t36 -15.5q23 0 37 15.5t14 43.5t-14 43.5t-37 15.5q-22 0 -36 -15.5t-14 -43.5z" />
    <glyph glyph-name="Uhungarumlaut" unicode="&#x170;" horiz-adv-x="706" 
d="M90 250v440h96v-430q0 -58 21 -98.5t58.5 -61.5t88.5 -21t89 21t58.5 61.5t20.5 98.5v430h94v-440q0 -83 -34.5 -141.5t-94 -88.5t-134.5 -30q-74 0 -134 30t-94.5 88.5t-34.5 141.5zM233 760l75 150h111l-110 -150h-76zM383 760l75 150h111l-110 -150h-76z" />
    <glyph glyph-name="uhungarumlaut" unicode="&#x171;" 
d="M85 199v316h92v-304q0 -70 30.5 -102t78.5 -32q35 0 68.5 17t63.5 47v374h92v-393q0 -21 1.5 -38.5t5.5 -39.5l8 -44h-86l-15 74q-32 -37 -73.5 -60.5t-88.5 -23.5q-51 0 -91 23t-63 69.5t-23 116.5zM178 585l75 150h111l-110 -150h-76zM328 585l75 150h111l-110 -150
h-76z" />
    <glyph glyph-name="Uogonek" unicode="&#x172;" horiz-adv-x="706" 
d="M90 250v440h96v-430q0 -58 21 -98.5t58.5 -61.5t88.5 -21t89 21t58.5 61.5t20.5 98.5v430h94v-440q0 -83 -34.5 -141.5t-94 -88.5t-134.5 -30q-74 0 -134 30t-94.5 88.5t-34.5 141.5zM263 -110q0 35 24 64.5t54 45.5h80q-40 -22 -66 -47.5t-26 -52.5q0 -18 12 -28.5
t28 -10.5q17 0 29.5 5.5t22.5 11.5l20 -48q-18 -11 -37 -18t-45 -7q-40 0 -68 23t-28 62z" />
    <glyph glyph-name="uogonek" unicode="&#x173;" 
d="M85 199v316h92v-304q0 -70 30.5 -102t78.5 -32q35 0 68.5 17t63.5 47v374h92v-393q0 -21 1.5 -38.5t5.5 -39.5l8 -44h-86l-15 74q-32 -37 -73.5 -60.5t-88.5 -23.5q-51 0 -91 23t-63 69.5t-23 116.5zM366 -110q0 35 24 64.5t54 45.5h80q-40 -22 -66 -47.5t-26 -52.5
q0 -18 12 -28.5t28 -10.5q17 0 29.5 5.5t22.5 11.5l20 -48q-18 -11 -37 -18t-45 -7q-40 0 -68 23t-28 62z" />
    <glyph glyph-name="Wcircumflex" unicode="&#x174;" horiz-adv-x="961" 
d="M20 690h102l170 -578h-24l174 578h81l176 -578h-25l169 578h98l-217 -690h-80l-176 561h26l-176 -561h-80zM342 760l87 150h102l87 -150h-77l-61 86l-61 -86h-77z" />
    <glyph glyph-name="wcircumflex" unicode="&#x175;" horiz-adv-x="749" 
d="M10 515h98l125 -419h-25l131 419h75l133 -419h-25l123 419h94l-172 -515h-72l-134 403h28l-135 -403h-72zM236 585l87 150h102l87 -150h-77l-61 86l-61 -86h-77z" />
    <glyph glyph-name="Ycircumflex" unicode="&#x176;" horiz-adv-x="616" 
d="M15 690h110l207 -353h-44l207 353h106l-245 -407v-283h-96v283zM172 760l87 150h102l87 -150h-77l-61 86l-61 -86h-77z" />
    <glyph glyph-name="ycircumflex" unicode="&#x177;" horiz-adv-x="496" 
d="M10 515h99l142 -389l140 389h95l-212 -541q-24 -62 -55 -99.5t-65.5 -53.5t-70.5 -16q-16 0 -30.5 3.5t-28.5 8.5l13 75q13 -4 22.5 -5.5t22.5 -1.5q35 0 62.5 24t54.5 88l7 17zM112 585l87 150h102l87 -150h-77l-61 86l-61 -86h-77z" />
    <glyph glyph-name="Ydieresis" unicode="&#x178;" horiz-adv-x="616" 
d="M15 690h110l207 -353h-44l207 353h106l-245 -407v-283h-96v283zM155 812q0 24 16 41t41 17q27 0 42 -17t15 -41q0 -23 -15 -40t-42 -17q-25 0 -41 17t-16 40zM351 812q0 24 16 41t41 17q27 0 42 -17t15 -41q0 -23 -15 -40t-42 -17q-25 0 -41 17t-16 40z" />
    <glyph glyph-name="Zacute" unicode="&#x179;" horiz-adv-x="614" 
d="M60 66l362 538h-352v86h474v-66l-362 -538h372v-86h-494v66zM262 760l75 150h111l-110 -150h-76z" />
    <glyph glyph-name="zacute" unicode="&#x17a;" horiz-adv-x="504" 
d="M50 60l275 375h-265v80h384v-60l-275 -375h285v-80h-404v60zM207 585l75 150h111l-110 -150h-76z" />
    <glyph glyph-name="Zdotaccent" unicode="&#x17b;" horiz-adv-x="614" 
d="M60 66l362 538h-352v86h474v-66l-362 -538h372v-86h-494v66zM246 812q0 27 17.5 45t43.5 18q28 0 44.5 -18t16.5 -45q0 -26 -16.5 -44t-44.5 -18q-26 0 -43.5 18t-17.5 44z" />
    <glyph glyph-name="zdotaccent" unicode="&#x17c;" horiz-adv-x="504" 
d="M50 60l275 375h-265v80h384v-60l-275 -375h285v-80h-404v60zM191 637q0 27 17.5 45t43.5 18q28 0 44.5 -18t16.5 -45q0 -26 -16.5 -44t-44.5 -18q-26 0 -43.5 18t-17.5 44z" />
    <glyph glyph-name="Zcaron" unicode="&#x17d;" horiz-adv-x="614" 
d="M60 66l362 538h-352v86h474v-66l-362 -538h372v-86h-494v66zM445 910l-87 -150h-102l-87 150h77l61 -86l61 86h77z" />
    <glyph glyph-name="zcaron" unicode="&#x17e;" horiz-adv-x="504" 
d="M50 60l275 375h-265v80h384v-60l-275 -375h285v-80h-404v60zM390 735l-87 -150h-102l-87 150h77l61 -86l61 86h77z" />
    <glyph glyph-name="uni0186" unicode="&#x186;" horiz-adv-x="645" 
d="M585 345q0 -85 -24.5 -151t-68 -111.5t-100 -69t-120.5 -23.5q-67 0 -122 22.5t-100 66.5l64 71q32 -35 71.5 -52t86.5 -17q62 0 110 30t76 89t28 145t-27.5 145t-75 89t-106.5 30q-46 0 -82.5 -17t-67.5 -49l-67 65q43 46 99.5 69t122.5 23q83 0 152 -41t110 -120.5
t41 -193.5z" />
    <glyph glyph-name="uni018E" unicode="&#x18e;" horiz-adv-x="621" 
d="M521 0h-451v86h355v221h-300v86h300v211h-350v86h446v-690z" />
    <glyph glyph-name="uni018F" unicode="&#x18f;" horiz-adv-x="706" 
d="M60 335q0 8 0.5 18t1.5 17h506v-86h-432l23 51q0 -84 25.5 -141t69.5 -86t99 -29q56 0 99.5 29.5t69 89t25.5 147.5q0 89 -26 148t-74 88.5t-114 29.5q-33 0 -66.5 -8.5t-64 -23t-54.5 -31.5l-46 78q31 22 67 38.5t77 26t87 9.5q91 0 161.5 -40t111 -119t40.5 -196
t-39.5 -196t-106 -119t-147.5 -40q-80 0 -147 40t-106.5 117t-39.5 188z" />
    <glyph glyph-name="uni0190" unicode="&#x190;" horiz-adv-x="617" 
d="M567 75q-43 -44 -102 -64.5t-138 -20.5q-84 0 -144 24t-91.5 69.5t-31.5 107.5q0 59 32 103t90 64q-47 21 -73.5 59.5t-26.5 90.5q0 59 30 102t84.5 66.5t129.5 23.5q74 0 134.5 -21.5t103.5 -62.5l-56 -71q-38 32 -84 48t-99 16q-70 0 -107 -27.5t-37 -80.5
q0 -49 36.5 -76t103.5 -27h106v-86h-120q-73 0 -110.5 -29t-37.5 -85t42.5 -86.5t120.5 -30.5q62 0 106.5 15.5t84.5 49.5z" />
    <glyph glyph-name="florin" unicode="&#x192;" 
d="M89 -181l16 76q12 -4 25 -6.5t28 -2.5q35 0 53.5 20.5t18.5 63.5v465h-90v80h90v42q0 55 22 93.5t59 59t81 20.5q31 0 58 -6t51 -17l-18 -74q-21 9 -40 13.5t-38 4.5q-42 0 -62.5 -26.5t-20.5 -70.5v-39h152v-80h-152v-469q0 -50 -20.5 -86t-56.5 -55.5t-81 -19.5
q-20 0 -39.5 4t-35.5 10z" />
    <glyph glyph-name="uni0194" unicode="&#x194;" horiz-adv-x="657" 
d="M12 690h103l214 -439l215 439h100l-263 -531q33 -58 52.5 -98.5t28.5 -70.5t9 -57q0 -39 -17 -68t-49 -44.5t-77 -15.5q-44 0 -76.5 15.5t-49.5 44.5t-17 68q0 27 9 57t29 71t53 100zM279 -59q0 -24 12.5 -38.5t36.5 -14.5t36.5 14.5t12.5 38.5q0 22 -9.5 51.5
t-39.5 83.5q-30 -54 -39.5 -83.5t-9.5 -51.5z" />
    <glyph glyph-name="uni0196" unicode="&#x196;" horiz-adv-x="308" 
d="M327 4q-16 -7 -35 -10.5t-37 -3.5q-75 0 -115 42.5t-40 116.5v541h96v-535q0 -42 16.5 -63t47.5 -21q11 0 22 2t27 7z" />
    <glyph glyph-name="uni019A" unicode="&#x19a;" horiz-adv-x="426" 
d="M167 0v350h-157v77h157v288l92 20v-308h157v-77h-157v-350h-92z" />
    <glyph glyph-name="uni019B" unicode="&#x19b;" horiz-adv-x="496" 
d="M392 0l-141 375l-142 -375h-99l192 486l-31 81l-92 -37l-22 56l92 37l-31 81l80 31l31 -79l93 37l22 -57l-93 -37l235 -599h-94z" />
    <glyph glyph-name="uni019D" unicode="&#x19d;" horiz-adv-x="746" 
d="M-41 -181l16 76q12 -4 25 -6.5t28 -2.5q35 0 53.5 20.5t18.5 63.5v720h146l324 -627l-20 -5v632h96v-690h-146l-324 627l20 5v-666q0 -75 -46.5 -118t-115.5 -43q-20 0 -39.5 4t-35.5 10z" />
    <glyph glyph-name="uni019F" unicode="&#x19f;" horiz-adv-x="726" 
d="M60 345q0 87 23.5 153.5t65.5 111.5t97 67.5t117 22.5t117 -22.5t97 -67.5t65.5 -111.5t23.5 -153.5t-23.5 -153.5t-65.5 -111.5t-97 -67.5t-117 -22.5t-117 22.5t-97 67.5t-65.5 111.5t-23.5 153.5zM160 308q6 -76 33.5 -127t71.5 -76.5t98 -25.5q55 0 98.5 25.5
t71 76.5t33.5 127h-406zM161 392h404q-7 73 -35 121.5t-71 73t-96 24.5t-96 -24.5t-71 -73t-35 -121.5z" />
    <glyph glyph-name="Ohorn" unicode="&#x1a0;" horiz-adv-x="726" 
d="M60 345q0 87 23.5 153.5t65.5 111.5t97 67.5t117 22.5t117 -22.5t97 -67.5t65.5 -111.5t23.5 -153.5t-23.5 -153.5t-65.5 -111.5t-97 -67.5t-117 -22.5t-117 22.5t-97 67.5t-65.5 111.5t-23.5 153.5zM159 345q0 -66 15.5 -116t43 -83.5t64.5 -50t81 -16.5t81 16.5
t64.5 50t43 83.5t15.5 116t-15.5 116t-43 83.5t-64.5 50t-81 16.5t-81 -16.5t-64.5 -50t-43 -83.5t-15.5 -116zM443 615v75q61 0 88 29.5t27 80.5h84q0 -58 -24 -99.5t-68.5 -63.5t-106.5 -22z" />
    <glyph glyph-name="ohorn" unicode="&#x1a1;" horiz-adv-x="572" 
d="M55 257q0 87 30 146.5t82 90.5t119 31t119 -31t82 -90.5t30 -146.5q0 -86 -30 -146t-82 -90.5t-119 -30.5t-119 30.5t-82 90.5t-30 146zM149 257q0 -60 16.5 -101.5t47 -63t73.5 -21.5t73.5 21.5t47 63t16.5 101.5t-16.5 101.5t-47 63.5t-73.5 22t-73.5 -22t-47 -63.5
t-16.5 -101.5zM338 440v75q61 0 88 29.5t27 80.5h84q0 -58 -24 -99.5t-68.5 -63.5t-106.5 -22z" />
    <glyph glyph-name="Uhorn" unicode="&#x1af;" horiz-adv-x="706" 
d="M90 250v440h96v-430q0 -58 21 -98.5t58.5 -61.5t88.5 -21t89 21t58.5 61.5t20.5 98.5v430h94v-440q0 -83 -34.5 -141.5t-94 -88.5t-134.5 -30q-74 0 -134 30t-94.5 88.5t-34.5 141.5zM566 615v75q61 0 88 29.5t27 80.5h84q0 -58 -24 -99.5t-68.5 -63.5t-106.5 -22z" />
    <glyph glyph-name="uhorn" unicode="&#x1b0;" horiz-adv-x="640" 
d="M85 199v316h92v-304q0 -70 30.5 -102t78.5 -32q35 0 68.5 17t63.5 47v374h92v-393q0 -21 1.5 -38.5t5.5 -39.5l8 -44h-86l-15 74q-32 -37 -73.5 -60.5t-88.5 -23.5q-51 0 -91 23t-63 69.5t-23 116.5zM460 440v75q61 0 88 29.5t27 80.5h84q0 -58 -24 -99.5t-68.5 -63.5
t-106.5 -22z" />
    <glyph glyph-name="uni01B1" unicode="&#x1b1;" horiz-adv-x="726" 
d="M363 79q56 0 99.5 29t69 84t25.5 133q0 66 -18 115.5t-46.5 84.5t-59.5 55v110h223v-81h-142q43 -33 74.5 -75.5t49.5 -94.5t18 -114q0 -80 -23 -142t-63.5 -105t-93.5 -65.5t-113 -22.5q-80 0 -147 39.5t-106.5 114.5t-39.5 181q0 62 18 114t50 94.5t74 75.5h-142v81
h223v-110q-31 -20 -59.5 -55t-46.5 -84.5t-18 -115.5q0 -78 25.5 -133t69.5 -84t99 -29z" />
    <glyph glyph-name="uni01C4" unicode="&#x1c4;" horiz-adv-x="1315" 
d="M100 0v690h223q89 0 161 -40t114.5 -117t42.5 -188t-42.5 -188t-114.5 -117t-161 -40h-223zM196 86h122q64 0 114.5 30t80 88t29.5 141t-29.5 141t-80 88t-114.5 30h-122v-518zM761 66l362 538h-352v86h474v-66l-362 -538h372v-86h-494v66zM1146 910l-87 -150h-102
l-87 150h77l61 -86l61 86h77z" />
    <glyph glyph-name="uni01C5" unicode="&#x1c5;" horiz-adv-x="1205" 
d="M100 0v690h223q89 0 161 -40t114.5 -117t42.5 -188t-42.5 -188t-114.5 -117t-161 -40h-223zM196 86h122q64 0 114.5 30t80 88t29.5 141t-29.5 141t-80 88t-114.5 30h-122v-518zM751 60l275 375h-265v80h384v-60l-275 -375h285v-80h-404v60zM1091 735l-87 -150h-102
l-87 150h77l61 -86l61 86h77z" />
    <glyph glyph-name="uni01C6" unicode="&#x1c6;" horiz-adv-x="1090" 
d="M55 253q0 85 26.5 146t74 93.5t111.5 32.5q38 0 75 -17.5t62 -55.5v263l92 20v-613q0 -21 1.5 -38.5t5.5 -39.5l8 -44h-86l-15 74q-33 -37 -75 -60.5t-88 -23.5q-52 0 -96 31.5t-70 90.5t-26 141zM149 256q0 -58 16 -98.5t44 -61.5t63 -21t68.5 17.5t63.5 48.5v142
q0 58 -17.5 94t-45.5 53.5t-58 17.5q-62 0 -98 -53.5t-36 -138.5zM636 60l275 375h-265v80h384v-60l-275 -375h285v-80h-404v60zM976 735l-87 -150h-102l-87 150h77l61 -86l61 86h77z" />
    <glyph glyph-name="uni01C7" unicode="&#x1c7;" horiz-adv-x="1119" 
d="M100 0v690h96v-604h320v-86h-416zM591 107l71 56q18 -33 53 -59t85 -26q62 0 98.5 40.5t36.5 127.5v363h-182v81h276v-454q0 -80 -30.5 -135t-82 -83t-115.5 -28q-65 0 -122 33t-88 84z" />
    <glyph glyph-name="uni01C8" unicode="&#x1c8;" horiz-adv-x="828" 
d="M100 0v690h96v-604h320v-86h-416zM505 -181l16 76q12 -4 25 -6.5t28 -2.5q35 0 53.5 20.5t18.5 63.5v545h92v-549q0 -75 -45 -118t-113 -43q-20 0 -39.5 4t-35.5 10zM631 667q0 27 17.5 45t43.5 18q28 0 44.5 -18t16.5 -45q0 -26 -16.5 -44t-44.5 -18q-26 0 -43.5 18
t-17.5 44z" />
    <glyph glyph-name="uni01C9" unicode="&#x1c9;" horiz-adv-x="544" 
d="M90 0v715l92 20v-735h-92zM221 -181l16 76q12 -4 25 -6.5t28 -2.5q35 0 53.5 20.5t18.5 63.5v545h92v-549q0 -75 -45 -118t-113 -43q-20 0 -39.5 4t-35.5 10zM347 667q0 27 17.5 45t43.5 18q28 0 44.5 -18t16.5 -45q0 -26 -16.5 -44t-44.5 -18q-26 0 -43.5 18t-17.5 44z
" />
    <glyph glyph-name="uni01CA" unicode="&#x1ca;" horiz-adv-x="1259" 
d="M100 0v690h146l324 -627l-20 -5v632h96v-690h-146l-324 627l20 5v-632h-96zM721 107l71 56q18 -33 53 -59t85 -26q62 0 98.5 40.5t36.5 127.5v363h-182v81h276v-454q0 -80 -30.5 -135t-82 -83t-115.5 -28q-65 0 -122 33t-88 84z" />
    <glyph glyph-name="uni01CB" unicode="&#x1cb;" horiz-adv-x="1018" 
d="M100 0v690h146l324 -627l-20 -5v632h96v-690h-146l-324 627l20 5v-632h-96zM695 -181l16 76q12 -4 25 -6.5t28 -2.5q35 0 53.5 20.5t18.5 63.5v545h92v-549q0 -75 -45 -118t-113 -43q-20 0 -39.5 4t-35.5 10zM821 667q0 27 17.5 45t43.5 18q28 0 44.5 -18t16.5 -45
q0 -26 -16.5 -44t-44.5 -18q-26 0 -43.5 18t-17.5 44z" />
    <glyph glyph-name="uni01CC" unicode="&#x1cc;" horiz-adv-x="876" 
d="M75 515h86l15 -74q33 38 75.5 61t88.5 23q51 0 91.5 -23t64 -69t23.5 -117v-316h-92v304q0 47 -14.5 76.5t-39.5 43.5t-57 14q-35 0 -69 -17t-65 -47v-374h-92v393q0 21 -1.5 38.5t-5.5 39.5zM553 -181l16 76q12 -4 25 -6.5t28 -2.5q35 0 53.5 20.5t18.5 63.5v545h92
v-549q0 -75 -45 -118t-113 -43q-20 0 -39.5 4t-35.5 10zM679 667q0 27 17.5 45t43.5 18q28 0 44.5 -18t16.5 -45q0 -26 -16.5 -44t-44.5 -18q-26 0 -43.5 18t-17.5 44z" />
    <glyph glyph-name="uni01CD" unicode="&#x1cd;" horiz-adv-x="656" 
d="M20 0l266 690h84l266 -690h-104l-87 235l58 -41h-354l58 41l-87 -235h-100zM209 240l-28 40h290l-28 -40l-132 354h30zM466 910l-87 -150h-102l-87 150h77l61 -86l61 86h77z" />
    <glyph glyph-name="uni01CE" unicode="&#x1ce;" horiz-adv-x="543" 
d="M60 132q0 45 24 83t79 63t148 28l55 2v6q0 66 -31 94.5t-86 28.5q-40 0 -74 -12t-68 -31l-32 78q35 22 86 37.5t97 15.5q57 0 102 -22t71.5 -66.5t26.5 -111.5v-203q0 -21 1.5 -38.5t5.5 -39.5l8 -44h-86l-15 73q-30 -36 -74.5 -59.5t-95.5 -23.5q-37 0 -69.5 17
t-52.5 49t-20 76zM154 140q0 -31 18.5 -48.5t49.5 -17.5q38 0 74.5 18t69.5 49v101l-51 -5q-65 -6 -100 -21t-48 -34.5t-13 -41.5zM403 735l-87 -150h-102l-87 150h77l61 -86l61 86h77z" />
    <glyph glyph-name="uni01DD" unicode="&#x1dd;" horiz-adv-x="553" 
d="M55 248q0 9 0.5 18.5t1.5 18.5h362v-74h-292l18 37q0 -64 17 -103t45 -56.5t62 -17.5q40 0 70.5 21.5t47.5 64.5t17 106q0 59 -21 98.5t-57.5 59.5t-81.5 20q-36 0 -66 -12t-53 -30l-43 73q35 28 77 40.5t88 12.5q72 0 129 -29t89.5 -87t32.5 -146q0 -90 -31 -151
t-83 -91.5t-116 -30.5q-59 0 -107.5 28.5t-77 86t-28.5 143.5z" />
    <glyph glyph-name="uni01E4" unicode="&#x1e4;" horiz-adv-x="701" 
d="M60 345q0 86 25.5 152t70 111.5t103 68.5t124.5 23q62 0 116 -21t101 -65l-62 -71q-33 32 -72 49t-83 17q-64 0 -115 -30t-80 -88.5t-29 -145.5q0 -86 30 -146.5t82 -91.5t118 -31q38 0 71.5 7.5t64.5 25.5v29h-170v80h170v59h-150v86h246v-145h70v-80h-70v-64
q-46 -37 -109 -60.5t-134 -23.5q-67 0 -124.5 23t-101 68.5t-68 111.5t-24.5 152z" />
    <glyph glyph-name="uni01E5" unicode="&#x1e5;" horiz-adv-x="586" 
d="M55 263q0 82 26.5 140.5t74.5 90t112 31.5q40 0 78.5 -19.5t63.5 -63.5l15 73h86l-8 -44q-4 -22 -5.5 -39.5t-1.5 -38.5v-367q0 -11 -0.5 -21.5t-2.5 -20.5h78v-60h-95q-27 -58 -83 -88.5t-128 -30.5q-49 0 -100 15t-86 35l33 81q35 -19 69 -32t80 -13q32 0 59 8t46 25
h-160v60h193q2 10 3.5 21t1.5 24v54q-32 -33 -72.5 -53t-84.5 -20q-52 0 -96 30.5t-70 87t-26 135.5zM149 266q0 -55 16 -93.5t44 -58t63 -19.5q33 0 67 15.5t65 43.5v129q0 58 -17.5 94t-45.5 53.5t-58 17.5q-62 0 -98 -51t-36 -131z" />
    <glyph glyph-name="Gcaron" unicode="&#x1e6;" horiz-adv-x="701" 
d="M60 345q0 86 25.5 152t70 111.5t103 68.5t124.5 23q62 0 116 -21t101 -65l-62 -71q-33 32 -72 49t-83 17q-64 0 -115 -30t-80 -88.5t-29 -145.5q0 -86 30 -146.5t82 -91.5t118 -31q38 0 71.5 9.5t64.5 28.5v143h-150v86h246v-261q-46 -40 -109 -66t-134 -26
q-67 0 -124.5 23t-101 68.5t-68 111.5t-24.5 152zM501 910l-87 -150h-102l-87 150h77l61 -86l61 86h77z" />
    <glyph glyph-name="gcaron" unicode="&#x1e7;" horiz-adv-x="586" 
d="M55 263q0 82 26.5 140.5t74.5 90t112 31.5q40 0 78.5 -19.5t63.5 -63.5l15 73h86l-8 -44q-4 -22 -5.5 -39.5t-1.5 -38.5v-347q0 -77 -30 -131t-82.5 -82t-118.5 -28q-49 0 -100 15t-86 35l33 81q35 -19 69 -32t80 -13q64 0 103.5 38t39.5 120v34q-32 -33 -72.5 -53
t-84.5 -20q-52 0 -96 30.5t-70 87t-26 135.5zM149 266q0 -55 16 -93.5t44 -58t63 -19.5q33 0 67 15.5t65 43.5v129q0 58 -17.5 94t-45.5 53.5t-58 17.5q-62 0 -98 -51t-36 -131zM424 735l-87 -150h-102l-87 150h77l61 -86l61 86h77z" />
    <glyph glyph-name="uni01EA" unicode="&#x1ea;" horiz-adv-x="726" 
d="M60 345q0 87 23.5 153.5t65.5 111.5t97 67.5t117 22.5t117 -22.5t97 -67.5t65.5 -111.5t23.5 -153.5t-23.5 -153.5t-65.5 -111.5t-97 -67.5t-117 -22.5t-117 22.5t-97 67.5t-65.5 111.5t-23.5 153.5zM159 345q0 -66 15.5 -116t43 -83.5t64.5 -50t81 -16.5t81 16.5
t64.5 50t43 83.5t15.5 116t-15.5 116t-43 83.5t-64.5 50t-81 16.5t-81 -16.5t-64.5 -50t-43 -83.5t-15.5 -116zM259 -110q0 35 24 64.5t54 45.5h80q-40 -22 -66 -47.5t-26 -52.5q0 -18 12 -28.5t28 -10.5q17 0 29.5 5.5t22.5 11.5l20 -48q-18 -11 -37 -18t-45 -7
q-40 0 -68 23t-28 62z" />
    <glyph glyph-name="uni01EB" unicode="&#x1eb;" horiz-adv-x="572" 
d="M410 -170q-18 -11 -37 -18t-45 -7q-40 0 -68 23t-28 62q0 30 18.5 56.5t43.5 43.5h-4h-4q-67 0 -119 30.5t-82 90.5t-30 146q0 87 30 146.5t82 90.5t119 31t119 -31t82 -90.5t30 -146.5q0 -85 -27.5 -141.5t-77.5 -91.5q-61 -42 -87.5 -70.5t-26.5 -53.5q0 -18 12 -28.5
t28 -10.5q17 0 29.5 5.5t22.5 11.5zM149 257q0 -60 16.5 -101.5t47 -63t73.5 -21.5t73.5 21.5t47 63t16.5 101.5t-16.5 101.5t-47 63.5t-73.5 22t-73.5 -22t-47 -63.5t-16.5 -101.5z" />
    <glyph glyph-name="uni01F0" unicode="&#x1f0;" horiz-adv-x="272" 
d="M-51 -181l16 76q12 -4 25 -6.5t28 -2.5q35 0 53.5 20.5t18.5 63.5v545h92v-549q0 -75 -45 -118t-113 -43q-20 0 -39.5 4t-35.5 10zM274 735l-87 -150h-102l-87 150h77l61 -86l61 86h77z" />
    <glyph glyph-name="Aringacute" unicode="&#x1fa;" horiz-adv-x="656" 
d="M20 0l266 690h84l266 -690h-104l-87 235l58 -41h-354l58 41l-87 -235h-100zM209 240l-28 40h290l-28 -40l-132 354h30zM212 774q0 51 33.5 82.5t82.5 31.5t83 -31.5t34 -82.5t-34 -82.5t-83 -31.5t-82.5 31.5t-33.5 82.5zM278 774q0 -28 14 -43.5t36 -15.5q23 0 37 15.5
t14 43.5t-14 43.5t-37 15.5q-22 0 -36 -15.5t-14 -43.5zM283 860l75 150h111l-110 -150h-76z" />
    <glyph glyph-name="aringacute" unicode="&#x1fb;" horiz-adv-x="543" 
d="M60 132q0 45 24 83t79 63t148 28l55 2v6q0 66 -31 94.5t-86 28.5q-40 0 -74 -12t-68 -31l-32 78q35 22 86 37.5t97 15.5q57 0 102 -22t71.5 -66.5t26.5 -111.5v-203q0 -21 1.5 -38.5t5.5 -39.5l8 -44h-86l-15 73q-30 -36 -74.5 -59.5t-95.5 -23.5q-37 0 -69.5 17
t-52.5 49t-20 76zM154 140q0 -31 18.5 -48.5t49.5 -17.5q38 0 74.5 18t69.5 49v101l-51 -5q-65 -6 -100 -21t-48 -34.5t-13 -41.5zM149 699q0 51 33.5 82.5t82.5 31.5t83 -31.5t34 -82.5t-34 -82.5t-83 -31.5t-82.5 31.5t-33.5 82.5zM215 699q0 -28 14 -43.5t36 -15.5
q23 0 37 15.5t14 43.5t-14 43.5t-37 15.5q-22 0 -36 -15.5t-14 -43.5zM220 785l75 150h111l-110 -150h-76z" />
    <glyph glyph-name="AEacute" unicode="&#x1fc;" horiz-adv-x="961" 
d="M10 0l298 690h578v-86h-350v-211h300v-86h-300v-221h355v-86h-451v194h-249l-81 -194h-100zM227 280h213v324h-77zM535 760l75 150h111l-110 -150h-76z" />
    <glyph glyph-name="aeacute" unicode="&#x1fd;" horiz-adv-x="853" 
d="M60 132q0 45 24 83.5t79 63t148 27.5l55 2v6q0 66 -31 94.5t-86 28.5q-26 0 -50 -5.5t-46.5 -15t-45.5 -22.5l-32 78q35 22 86 37.5t97 15.5q53 0 95.5 -19.5t68.5 -59.5q30 39 72 59t91 20q59 0 107.5 -28.5t77 -86t28.5 -143.5q0 -9 -0.5 -18.5t-1.5 -18.5h-341
q6 -77 49.5 -116.5t104.5 -39.5q36 0 66 12t53 30l43 -73q-34 -28 -76.5 -40.5t-88.5 -12.5q-63 0 -114 24t-83 73q-36 -43 -84 -70t-107 -27q-41 0 -77.5 17t-58.5 49t-22 76zM154 140q0 -31 21.5 -48.5t56.5 -17.5q43 0 80.5 20.5t66.5 57.5q-6 20 -9 42.5t-4 47.5l-51 -5
q-65 -6 -100 -21t-48 -34.5t-13 -41.5zM457 304h249q-7 76 -41.5 108t-80.5 32q-49 0 -83 -35t-44 -105zM381 585l75 150h111l-110 -150h-76z" />
    <glyph glyph-name="Oslashacute" unicode="&#x1fe;" horiz-adv-x="726" 
d="M60 345q0 87 23.5 153.5t65.5 111.5t97 67.5t117 22.5t117 -22.5t97 -67.5t65.5 -111.5t23.5 -153.5t-23.5 -153.5t-65.5 -111.5t-97 -67.5t-117 -22.5t-117 22.5t-97 67.5t-65.5 111.5t-23.5 153.5zM159 345q0 -66 15.5 -116t43 -83.5t64.5 -50t81 -16.5t81 16.5
t64.5 50t43 83.5t15.5 116t-15.5 116t-43 83.5t-64.5 50t-81 16.5t-81 -16.5t-64.5 -50t-43 -83.5t-15.5 -116zM130 -32l399 789l67 -35l-399 -789zM318 760l75 150h111l-110 -150h-76z" />
    <glyph glyph-name="oslashacute" unicode="&#x1ff;" horiz-adv-x="572" 
d="M55 257q0 87 30 146.5t82 90.5t119 31t119 -31t82 -90.5t30 -146.5q0 -86 -30 -146t-82 -90.5t-119 -30.5t-119 30.5t-82 90.5t-30 146zM149 257q0 -60 16.5 -101.5t47 -63t73.5 -21.5t73.5 21.5t47 63t16.5 101.5t-16.5 101.5t-47 63.5t-73.5 22t-73.5 -22t-47 -63.5
t-16.5 -101.5zM415 585l67 -34l-325 -623l-67 34zM241 585l75 150h111l-110 -150h-76z" />
    <glyph glyph-name="uni0200" unicode="&#x200;" horiz-adv-x="656" 
d="M20 0l266 690h84l266 -690h-104l-87 235l58 -41h-354l58 41l-87 -235h-100zM209 240l-28 40h290l-28 -40l-132 354h30zM112 910h111l75 -150h-76zM262 910h111l75 -150h-76z" />
    <glyph glyph-name="uni0201" unicode="&#x201;" horiz-adv-x="543" 
d="M60 132q0 45 24 83t79 63t148 28l55 2v6q0 66 -31 94.5t-86 28.5q-40 0 -74 -12t-68 -31l-32 78q35 22 86 37.5t97 15.5q57 0 102 -22t71.5 -66.5t26.5 -111.5v-203q0 -21 1.5 -38.5t5.5 -39.5l8 -44h-86l-15 73q-30 -36 -74.5 -59.5t-95.5 -23.5q-37 0 -69.5 17
t-52.5 49t-20 76zM154 140q0 -31 18.5 -48.5t49.5 -17.5q38 0 74.5 18t69.5 49v101l-51 -5q-65 -6 -100 -21t-48 -34.5t-13 -41.5zM49 735h111l75 -150h-76zM199 735h111l75 -150h-76z" />
    <glyph glyph-name="uni0202" unicode="&#x202;" horiz-adv-x="656" 
d="M20 0l266 690h84l266 -690h-104l-87 235l58 -41h-354l58 41l-87 -235h-100zM209 240l-28 40h290l-28 -40l-132 354h30zM467 760h-70q-4 38 -22 56t-47 18t-46.5 -18t-22.5 -56h-70q5 49 23 82.5t47.5 50.5t68.5 17t68.5 -17t48 -50.5t22.5 -82.5z" />
    <glyph glyph-name="uni0203" unicode="&#x203;" horiz-adv-x="543" 
d="M60 132q0 45 24 83t79 63t148 28l55 2v6q0 66 -31 94.5t-86 28.5q-40 0 -74 -12t-68 -31l-32 78q35 22 86 37.5t97 15.5q57 0 102 -22t71.5 -66.5t26.5 -111.5v-203q0 -21 1.5 -38.5t5.5 -39.5l8 -44h-86l-15 73q-30 -36 -74.5 -59.5t-95.5 -23.5q-37 0 -69.5 17
t-52.5 49t-20 76zM154 140q0 -31 18.5 -48.5t49.5 -17.5q38 0 74.5 18t69.5 49v101l-51 -5q-65 -6 -100 -21t-48 -34.5t-13 -41.5zM404 585h-70q-4 38 -22 56t-47 18t-46.5 -18t-22.5 -56h-70q5 49 23 82.5t47.5 50.5t68.5 17t68.5 -17t48 -50.5t22.5 -82.5z" />
    <glyph glyph-name="uni0204" unicode="&#x204;" horiz-adv-x="621" 
d="M100 0v690h446v-86h-350v-211h300v-86h-300v-221h355v-86h-451zM107 910h111l75 -150h-76zM257 910h111l75 -150h-76z" />
    <glyph glyph-name="uni0205" unicode="&#x205;" horiz-adv-x="553" 
d="M55 252q0 90 31 151t83 91.5t116 30.5q59 0 107.5 -28.5t77 -86t28.5 -143.5q0 -9 -0.5 -18.5t-1.5 -18.5h-362v74h292l-18 -37q0 96 -36.5 136.5t-87.5 40.5q-40 0 -70.5 -21.5t-47.5 -64t-17 -106.5q0 -59 21.5 -98.5t57.5 -59.5t81 -20q36 0 66 12t53 30l43 -73
q-34 -28 -76.5 -40.5t-88.5 -12.5q-72 0 -128.5 29t-89.5 87.5t-33 145.5zM69 735h111l75 -150h-76zM219 735h111l75 -150h-76z" />
    <glyph glyph-name="uni0206" unicode="&#x206;" horiz-adv-x="621" 
d="M100 0v690h446v-86h-350v-211h300v-86h-300v-221h355v-86h-451zM462 760h-70q-4 38 -22 56t-47 18t-46.5 -18t-22.5 -56h-70q5 49 23 82.5t47.5 50.5t68.5 17t68.5 -17t48 -50.5t22.5 -82.5z" />
    <glyph glyph-name="uni0207" unicode="&#x207;" horiz-adv-x="553" 
d="M55 252q0 90 31 151t83 91.5t116 30.5q59 0 107.5 -28.5t77 -86t28.5 -143.5q0 -9 -0.5 -18.5t-1.5 -18.5h-362v74h292l-18 -37q0 96 -36.5 136.5t-87.5 40.5q-40 0 -70.5 -21.5t-47.5 -64t-17 -106.5q0 -59 21.5 -98.5t57.5 -59.5t81 -20q36 0 66 12t53 30l43 -73
q-34 -28 -76.5 -40.5t-88.5 -12.5q-72 0 -128.5 29t-89.5 87.5t-33 145.5zM424 585h-70q-4 38 -22 56t-47 18t-46.5 -18t-22.5 -56h-70q5 49 23 82.5t47.5 50.5t68.5 17t68.5 -17t48 -50.5t22.5 -82.5z" />
    <glyph glyph-name="uni0208" unicode="&#x208;" horiz-adv-x="456" 
d="M80 0v81h100v528h-100v81h296v-81h-100v-528h100v-81h-296zM12 910h111l75 -150h-76zM162 910h111l75 -150h-76z" />
    <glyph glyph-name="uni0209" unicode="&#x209;" horiz-adv-x="272" 
d="M90 0v515h92v-515h-92zM-80 735h111l75 -150h-76zM70 735h111l75 -150h-76z" />
    <glyph glyph-name="uni020A" unicode="&#x20a;" horiz-adv-x="456" 
d="M80 0v81h100v528h-100v81h296v-81h-100v-528h100v-81h-296zM367 760h-70q-4 38 -22 56t-47 18t-46.5 -18t-22.5 -56h-70q5 49 23 82.5t47.5 50.5t68.5 17t68.5 -17t48 -50.5t22.5 -82.5z" />
    <glyph glyph-name="uni020B" unicode="&#x20b;" horiz-adv-x="272" 
d="M90 0v515h92v-515h-92zM275 585h-70q-4 38 -22 56t-47 18t-46.5 -18t-22.5 -56h-70q5 49 23 82.5t47.5 50.5t68.5 17t68.5 -17t48 -50.5t22.5 -82.5z" />
    <glyph glyph-name="uni020C" unicode="&#x20c;" horiz-adv-x="726" 
d="M60 345q0 87 23.5 153.5t65.5 111.5t97 67.5t117 22.5t117 -22.5t97 -67.5t65.5 -111.5t23.5 -153.5t-23.5 -153.5t-65.5 -111.5t-97 -67.5t-117 -22.5t-117 22.5t-97 67.5t-65.5 111.5t-23.5 153.5zM159 345q0 -66 15.5 -116t43 -83.5t64.5 -50t81 -16.5t81 16.5
t64.5 50t43 83.5t15.5 116t-15.5 116t-43 83.5t-64.5 50t-81 16.5t-81 -16.5t-64.5 -50t-43 -83.5t-15.5 -116zM147 910h111l75 -150h-76zM297 910h111l75 -150h-76z" />
    <glyph glyph-name="uni020D" unicode="&#x20d;" horiz-adv-x="572" 
d="M55 257q0 87 30 146.5t82 90.5t119 31t119 -31t82 -90.5t30 -146.5q0 -86 -30 -146t-82 -90.5t-119 -30.5t-119 30.5t-82 90.5t-30 146zM149 257q0 -60 16.5 -101.5t47 -63t73.5 -21.5t73.5 21.5t47 63t16.5 101.5t-16.5 101.5t-47 63.5t-73.5 22t-73.5 -22t-47 -63.5
t-16.5 -101.5zM70 735h111l75 -150h-76zM220 735h111l75 -150h-76z" />
    <glyph glyph-name="uni020E" unicode="&#x20e;" horiz-adv-x="726" 
d="M60 345q0 87 23.5 153.5t65.5 111.5t97 67.5t117 22.5t117 -22.5t97 -67.5t65.5 -111.5t23.5 -153.5t-23.5 -153.5t-65.5 -111.5t-97 -67.5t-117 -22.5t-117 22.5t-97 67.5t-65.5 111.5t-23.5 153.5zM159 345q0 -66 15.5 -116t43 -83.5t64.5 -50t81 -16.5t81 16.5
t64.5 50t43 83.5t15.5 116t-15.5 116t-43 83.5t-64.5 50t-81 16.5t-81 -16.5t-64.5 -50t-43 -83.5t-15.5 -116zM502 760h-70q-4 38 -22 56t-47 18t-46.5 -18t-22.5 -56h-70q5 49 23 82.5t47.5 50.5t68.5 17t68.5 -17t48 -50.5t22.5 -82.5z" />
    <glyph glyph-name="uni020F" unicode="&#x20f;" horiz-adv-x="572" 
d="M55 257q0 87 30 146.5t82 90.5t119 31t119 -31t82 -90.5t30 -146.5q0 -86 -30 -146t-82 -90.5t-119 -30.5t-119 30.5t-82 90.5t-30 146zM149 257q0 -60 16.5 -101.5t47 -63t73.5 -21.5t73.5 21.5t47 63t16.5 101.5t-16.5 101.5t-47 63.5t-73.5 22t-73.5 -22t-47 -63.5
t-16.5 -101.5zM425 585h-70q-4 38 -22 56t-47 18t-46.5 -18t-22.5 -56h-70q5 49 23 82.5t47.5 50.5t68.5 17t68.5 -17t48 -50.5t22.5 -82.5z" />
    <glyph glyph-name="uni0210" unicode="&#x210;" horiz-adv-x="650" 
d="M100 0v690h233q68 0 123 -25t88 -72.5t33 -117.5q0 -82 -44.5 -133t-114.5 -71l177 -271h-114l-161 260h-124v-260h-96zM196 343h132q64 0 107 34.5t43 97.5q0 62 -42.5 95.5t-107.5 33.5h-132v-261zM102 910h111l75 -150h-76zM252 910h111l75 -150h-76z" />
    <glyph glyph-name="uni0211" unicode="&#x211;" horiz-adv-x="370" 
d="M75 515h86l17 -82q29 43 71.5 67.5t95.5 24.5v-99q-53 -2 -94 -18.5t-69 -45.5v-362h-92v393q0 21 -1.5 38.5t-5.5 39.5zM-6 735h111l75 -150h-76zM144 735h111l75 -150h-76z" />
    <glyph glyph-name="uni0212" unicode="&#x212;" horiz-adv-x="650" 
d="M100 0v690h233q68 0 123 -25t88 -72.5t33 -117.5q0 -82 -44.5 -133t-114.5 -71l177 -271h-114l-161 260h-124v-260h-96zM196 343h132q64 0 107 34.5t43 97.5q0 62 -42.5 95.5t-107.5 33.5h-132v-261zM457 760h-70q-4 38 -22 56t-47 18t-46.5 -18t-22.5 -56h-70
q5 49 23 82.5t47.5 50.5t68.5 17t68.5 -17t48 -50.5t22.5 -82.5z" />
    <glyph glyph-name="uni0213" unicode="&#x213;" horiz-adv-x="370" 
d="M75 515h86l17 -82q29 43 71.5 67.5t95.5 24.5v-99q-53 -2 -94 -18.5t-69 -45.5v-362h-92v393q0 21 -1.5 38.5t-5.5 39.5zM349 585h-70q-4 38 -22 56t-47 18t-46.5 -18t-22.5 -56h-70q5 49 23 82.5t47.5 50.5t68.5 17t68.5 -17t48 -50.5t22.5 -82.5z" />
    <glyph glyph-name="uni0214" unicode="&#x214;" horiz-adv-x="706" 
d="M90 250v440h96v-430q0 -58 21 -98.5t58.5 -61.5t88.5 -21t89 21t58.5 61.5t20.5 98.5v430h94v-440q0 -83 -34.5 -141.5t-94 -88.5t-134.5 -30q-74 0 -134 30t-94.5 88.5t-34.5 141.5zM137 910h111l75 -150h-76zM287 910h111l75 -150h-76z" />
    <glyph glyph-name="uni0215" unicode="&#x215;" 
d="M85 199v316h92v-304q0 -70 30.5 -102t78.5 -32q35 0 68.5 17t63.5 47v374h92v-393q0 -21 1.5 -38.5t5.5 -39.5l8 -44h-86l-15 74q-32 -37 -73.5 -60.5t-88.5 -23.5q-51 0 -91 23t-63 69.5t-23 116.5zM82 735h111l75 -150h-76zM232 735h111l75 -150h-76z" />
    <glyph glyph-name="uni0216" unicode="&#x216;" horiz-adv-x="706" 
d="M90 250v440h96v-430q0 -58 21 -98.5t58.5 -61.5t88.5 -21t89 21t58.5 61.5t20.5 98.5v430h94v-440q0 -83 -34.5 -141.5t-94 -88.5t-134.5 -30q-74 0 -134 30t-94.5 88.5t-34.5 141.5zM492 760h-70q-4 38 -22 56t-47 18t-46.5 -18t-22.5 -56h-70q5 49 23 82.5t47.5 50.5
t68.5 17t68.5 -17t48 -50.5t22.5 -82.5z" />
    <glyph glyph-name="uni0217" unicode="&#x217;" 
d="M85 199v316h92v-304q0 -70 30.5 -102t78.5 -32q35 0 68.5 17t63.5 47v374h92v-393q0 -21 1.5 -38.5t5.5 -39.5l8 -44h-86l-15 74q-32 -37 -73.5 -60.5t-88.5 -23.5q-51 0 -91 23t-63 69.5t-23 116.5zM437 585h-70q-4 38 -22 56t-47 18t-46.5 -18t-22.5 -56h-70
q5 49 23 82.5t47.5 50.5t68.5 17t68.5 -17t48 -50.5t22.5 -82.5z" />
    <glyph glyph-name="uni0218" unicode="&#x218;" horiz-adv-x="624" 
d="M50 94l56 69q44 -41 99.5 -63.5t122.5 -22.5q47 0 78.5 13t47.5 34.5t16 46.5q0 27 -14.5 49.5t-51 43.5t-102.5 43q-85 29 -133.5 59.5t-68.5 66.5t-20 79q0 52 29.5 94.5t82.5 68t122 25.5q59 0 121 -23t110 -64l-55 -72q-37 36 -83.5 56t-99.5 20q-67 0 -100.5 -28.5
t-33.5 -66.5q0 -22 13.5 -42t47.5 -38.5t96 -38.5q89 -28 141 -62.5t75 -74t23 -83.5q0 -53 -29 -97t-84.5 -70t-135.5 -26q-50 0 -100.5 13.5t-94.5 37t-75 53.5zM374 -125q0 -14 -3.5 -28.5t-11.5 -37.5l-21 -60h-53l17 75q-16 6 -26 20t-10 31q0 23 15.5 38.5t38.5 15.5
t38.5 -15.5t15.5 -38.5z" />
    <glyph glyph-name="uni0219" unicode="&#x219;" horiz-adv-x="501" 
d="M50 61l54 62q27 -22 63.5 -39t85.5 -17q51 0 76 17t25 45q0 18 -10.5 33.5t-37 30t-74.5 28.5q-88 27 -126 66.5t-38 92.5q0 42 24.5 74.5t67.5 51.5t98 19q43 0 88.5 -14.5t80.5 -43.5l-51 -66q-24 20 -56.5 33.5t-70.5 13.5q-46 0 -69.5 -17t-23.5 -41
q0 -19 10.5 -32.5t37 -25.5t73.5 -26q66 -19 102.5 -44.5t51.5 -55.5t15 -66q0 -43 -25 -77t-70 -53.5t-106 -19.5q-58 0 -109 20t-86 51zM299 -125q0 -14 -3.5 -28.5t-11.5 -37.5l-21 -60h-53l17 75q-16 6 -26 20t-10 31q0 23 15.5 38.5t38.5 15.5t38.5 -15.5t15.5 -38.5z
" />
    <glyph glyph-name="uni021A" unicode="&#x21a;" horiz-adv-x="576" 
d="M30 604v86h516v-86h-210v-604h-96v604h-210zM342 -125q0 -14 -3.5 -28.5t-11.5 -37.5l-21 -60h-53l17 75q-16 6 -26 20t-10 31q0 23 15.5 38.5t38.5 15.5t38.5 -15.5t15.5 -38.5z" />
    <glyph glyph-name="uni021B" unicode="&#x21b;" horiz-adv-x="394" 
d="M20 435v80h90v119l92 20v-139h152v-80h-152v-279q0 -40 19 -61.5t59 -21.5q17 0 34.5 4.5t38.5 12.5l16 -79q-24 -9 -51 -15t-54 -6q-42 0 -77 19t-56 55t-21 88v283h-90zM284 -125q0 -14 -3.5 -28.5t-11.5 -37.5l-21 -60h-53l17 75q-16 6 -26 20t-10 31q0 23 15.5 38.5
t38.5 15.5t38.5 -15.5t15.5 -38.5z" />
    <glyph glyph-name="uni022A" unicode="&#x22a;" horiz-adv-x="726" 
d="M60 345q0 87 23.5 153.5t65.5 111.5t97 67.5t117 22.5t117 -22.5t97 -67.5t65.5 -111.5t23.5 -153.5t-23.5 -153.5t-65.5 -111.5t-97 -67.5t-117 -22.5t-117 22.5t-97 67.5t-65.5 111.5t-23.5 153.5zM159 345q0 -66 15.5 -116t43 -83.5t64.5 -50t81 -16.5t81 16.5
t64.5 50t43 83.5t15.5 116t-15.5 116t-43 83.5t-64.5 50t-81 16.5t-81 -16.5t-64.5 -50t-43 -83.5t-15.5 -116zM208 812q0 24 16 41t41 17q27 0 42 -17t15 -41q0 -23 -15 -40t-42 -17q-25 0 -41 17t-16 40zM404 812q0 24 16 41t41 17q27 0 42 -17t15 -41q0 -23 -15 -40
t-42 -17q-25 0 -41 17t-16 40zM215 945v70h296v-70h-296z" />
    <glyph glyph-name="uni022B" unicode="&#x22b;" horiz-adv-x="572" 
d="M55 257q0 87 30 146.5t82 90.5t119 31t119 -31t82 -90.5t30 -146.5q0 -86 -30 -146t-82 -90.5t-119 -30.5t-119 30.5t-82 90.5t-30 146zM149 257q0 -60 16.5 -101.5t47 -63t73.5 -21.5t73.5 21.5t47 63t16.5 101.5t-16.5 101.5t-47 63.5t-73.5 22t-73.5 -22t-47 -63.5
t-16.5 -101.5zM131 637q0 24 16 41t41 17q27 0 42 -17t15 -41q0 -23 -15 -40t-42 -17q-25 0 -41 17t-16 40zM327 637q0 24 16 41t41 17q27 0 42 -17t15 -41q0 -23 -15 -40t-42 -17q-25 0 -41 17t-16 40zM138 765v70h296v-70h-296z" />
    <glyph glyph-name="uni022C" unicode="&#x22c;" horiz-adv-x="726" 
d="M60 345q0 87 23.5 153.5t65.5 111.5t97 67.5t117 22.5t117 -22.5t97 -67.5t65.5 -111.5t23.5 -153.5t-23.5 -153.5t-65.5 -111.5t-97 -67.5t-117 -22.5t-117 22.5t-97 67.5t-65.5 111.5t-23.5 153.5zM159 345q0 -66 15.5 -116t43 -83.5t64.5 -50t81 -16.5t81 16.5
t64.5 50t43 83.5t15.5 116t-15.5 116t-43 83.5t-64.5 50t-81 16.5t-81 -16.5t-64.5 -50t-43 -83.5t-15.5 -116zM217 760q5 57 27.5 88.5t61.5 31.5q20 0 36 -7.5t29 -17t25 -17t23 -7.5t19 9.5t11 34.5h60q-4 -57 -27 -88.5t-62 -31.5q-20 0 -36 7.5t-29 17t-25 17t-23 7.5
q-10 0 -18.5 -9t-11.5 -35h-60zM215 945v70h296v-70h-296z" />
    <glyph glyph-name="uni022D" unicode="&#x22d;" horiz-adv-x="572" 
d="M55 257q0 87 30 146.5t82 90.5t119 31t119 -31t82 -90.5t30 -146.5q0 -86 -30 -146t-82 -90.5t-119 -30.5t-119 30.5t-82 90.5t-30 146zM149 257q0 -60 16.5 -101.5t47 -63t73.5 -21.5t73.5 21.5t47 63t16.5 101.5t-16.5 101.5t-47 63.5t-73.5 22t-73.5 -22t-47 -63.5
t-16.5 -101.5zM140 585q5 57 27.5 88.5t61.5 31.5q20 0 36 -7.5t29 -17t25 -17t23 -7.5t19 9.5t11 34.5h60q-4 -57 -27 -88.5t-62 -31.5q-20 0 -36 7.5t-29 17t-25 17t-23 7.5q-10 0 -18.5 -9t-11.5 -35h-60zM138 745v70h296v-70h-296z" />
    <glyph glyph-name="uni0230" unicode="&#x230;" horiz-adv-x="726" 
d="M60 345q0 87 23.5 153.5t65.5 111.5t97 67.5t117 22.5t117 -22.5t97 -67.5t65.5 -111.5t23.5 -153.5t-23.5 -153.5t-65.5 -111.5t-97 -67.5t-117 -22.5t-117 22.5t-97 67.5t-65.5 111.5t-23.5 153.5zM159 345q0 -66 15.5 -116t43 -83.5t64.5 -50t81 -16.5t81 16.5
t64.5 50t43 83.5t15.5 116t-15.5 116t-43 83.5t-64.5 50t-81 16.5t-81 -16.5t-64.5 -50t-43 -83.5t-15.5 -116zM302 812q0 27 17.5 45t43.5 18q28 0 44.5 -18t16.5 -45q0 -26 -16.5 -44t-44.5 -18q-26 0 -43.5 18t-17.5 44zM215 945v70h296v-70h-296z" />
    <glyph glyph-name="uni0231" unicode="&#x231;" horiz-adv-x="572" 
d="M55 257q0 87 30 146.5t82 90.5t119 31t119 -31t82 -90.5t30 -146.5q0 -86 -30 -146t-82 -90.5t-119 -30.5t-119 30.5t-82 90.5t-30 146zM149 257q0 -60 16.5 -101.5t47 -63t73.5 -21.5t73.5 21.5t47 63t16.5 101.5t-16.5 101.5t-47 63.5t-73.5 22t-73.5 -22t-47 -63.5
t-16.5 -101.5zM225 637q0 27 17.5 45t43.5 18q28 0 44.5 -18t16.5 -45q0 -26 -16.5 -44t-44.5 -18q-26 0 -43.5 18t-17.5 44zM138 765v70h296v-70h-296z" />
    <glyph glyph-name="uni0232" unicode="&#x232;" horiz-adv-x="616" 
d="M15 690h110l207 -353h-44l207 353h106l-245 -407v-283h-96v283zM162 760v70h296v-70h-296z" />
    <glyph glyph-name="uni0233" unicode="&#x233;" horiz-adv-x="496" 
d="M10 515h99l142 -389l140 389h95l-212 -541q-24 -62 -55 -99.5t-65.5 -53.5t-70.5 -16q-16 0 -30.5 3.5t-28.5 8.5l13 75q13 -4 22.5 -5.5t22.5 -1.5q35 0 62.5 24t54.5 88l7 17zM102 585v70h296v-70h-296z" />
    <glyph glyph-name="uni0237" unicode="&#x237;" horiz-adv-x="272" 
d="M-51 -181l16 76q12 -4 25 -6.5t28 -2.5q35 0 53.5 20.5t18.5 63.5v545h92v-549q0 -75 -45 -118t-113 -43q-20 0 -39.5 4t-35.5 10z" />
    <glyph glyph-name="uni023A" unicode="&#x23a;" horiz-adv-x="656" 
d="M20 0l266 690h84l266 -690h-104l-87 235l58 -41h-354l58 41l-87 -235h-100zM209 240l-28 40h290l-28 -40l-132 354h30zM93 -32l399 789l67 -35l-399 -789z" />
    <glyph glyph-name="uni023B" unicode="&#x23b;" horiz-adv-x="644" 
d="M60 345q0 86 24.5 152t68 111t100 68.5t120.5 23.5q60 0 114 -24t99 -68l-68 -65q-31 32 -67.5 49t-77.5 17q-61 0 -109.5 -30t-76.5 -89t-28 -145t28 -145t76.5 -89t109.5 -30q47 0 86 17t70 51l65 -65q-45 -46 -100.5 -70t-120.5 -24q-64 0 -120.5 23t-100 68.5
t-68 111.5t-24.5 152zM120 -32l399 789l67 -35l-399 -789z" />
    <glyph glyph-name="uni023C" unicode="&#x23c;" horiz-adv-x="504" 
d="M55 252q0 85 33.5 146t90.5 94t127 33q44 0 87.5 -16.5t73.5 -48.5l-56 -67q-19 22 -46.5 35t-62.5 13q-41 0 -76 -22t-56 -64.5t-21 -102.5t20.5 -99.5t54.5 -59t73 -19.5t69 13.5t50 34.5l53 -67q-30 -31 -75 -48t-93 -17q-70 0 -125.5 29t-88 87.5t-32.5 145.5z
M396 585l67 -34l-325 -623l-67 34z" />
    <glyph glyph-name="uni023D" unicode="&#x23d;" horiz-adv-x="644" 
d="M188 0v350h-158v77h158v263h96v-263h163v-77h-163v-264h320v-86h-416z" />
    <glyph glyph-name="uni023E" unicode="&#x23e;" horiz-adv-x="576" 
d="M30 604v86h516v-86h-210v-604h-96v604h-210zM55 -32l399 789l67 -35l-399 -789z" />
    <glyph glyph-name="uni0251" unicode="&#x251;" horiz-adv-x="629" 
d="M261 -10q-64 0 -110.5 32t-71 91.5t-24.5 143.5q0 83 27.5 143t74.5 92.5t107 32.5q65 0 107 -31.5t76 -108.5l38 131h93l-87 -248l49 -142q7 -20 21 -31t40 -13l-20 -84q-49 1 -79 25.5t-44 73.5l-26 87l27 -5q-31 -95 -79.5 -142t-118.5 -47zM149 259q0 -92 30.5 -140
t86.5 -48q44 0 77 33t54 106l26 92v-86l-23 82q-22 74 -50 110.5t-81 36.5q-52 0 -86 -48.5t-34 -137.5z" />
    <glyph glyph-name="uni0254" unicode="&#x254;" horiz-adv-x="504" 
d="M449 252q0 -87 -33 -145.5t-88.5 -87.5t-124.5 -29q-48 0 -93 17t-75 48l53 67q20 -21 50 -34.5t69 -13.5q40 0 73.5 19.5t54 59t20.5 99.5t-21 102.5t-56 64.5t-76 22q-35 0 -63 -13t-48 -35l-50 67q32 32 76 48.5t90 16.5q68 0 122.5 -33t87 -94t32.5 -146z" />
    <glyph glyph-name="uni0259" unicode="&#x259;" horiz-adv-x="553" 
d="M55 248q0 9 0.5 18.5t1.5 18.5h362v-74h-292l18 37q0 -64 17 -103t45 -56.5t62 -17.5q40 0 70.5 21.5t47.5 64.5t17 106q0 59 -21 98.5t-57.5 59.5t-81.5 20q-36 0 -66 -12t-53 -30l-43 73q35 28 77 40.5t88 12.5q72 0 129 -29t89.5 -87t32.5 -146q0 -90 -31 -151
t-83 -91.5t-116 -30.5q-59 0 -107.5 28.5t-77 86t-28.5 143.5z" />
    <glyph glyph-name="uni025B" unicode="&#x25b;" horiz-adv-x="505" 
d="M258 -9q-59 0 -105 18t-72 50.5t-26 73.5q0 35 14 61t41 43.5t65 23.5v-6q-34 7 -59 24t-38.5 41.5t-13.5 53.5q0 45 25 79t70.5 53t104.5 19q68 0 119 -19.5t87 -58.5l-61 -62q-22 27 -57 41.5t-79 14.5q-53 0 -84 -20t-31 -55q0 -32 29 -50t81 -18h84v-78h-84
q-59 0 -88.5 -18.5t-29.5 -55.5q0 -34 30.5 -52.5t85.5 -18.5q45 0 85.5 17.5t64.5 46.5l51 -70q-37 -40 -89.5 -59t-119.5 -19z" />
    <glyph glyph-name="uni0261" unicode="&#x261;" horiz-adv-x="586" 
d="M55 263q0 82 26.5 140.5t74.5 90t112 31.5q40 0 78.5 -19.5t63.5 -63.5l15 73h86l-8 -44q-4 -22 -5.5 -39.5t-1.5 -38.5v-347q0 -77 -30 -131t-82.5 -82t-118.5 -28q-49 0 -100 15t-86 35l33 81q35 -19 69 -32t80 -13q64 0 103.5 38t39.5 120v34q-32 -33 -72.5 -53
t-84.5 -20q-52 0 -96 30.5t-70 87t-26 135.5zM149 266q0 -55 16 -93.5t44 -58t63 -19.5q33 0 67 15.5t65 43.5v129q0 58 -17.5 94t-45.5 53.5t-58 17.5q-62 0 -98 -51t-36 -131z" />
    <glyph glyph-name="uni0262" unicode="&#x262;" horiz-adv-x="594" 
d="M57 258q0 80 37 140t103.5 93.5t153.5 33.5q55 0 103.5 -16t91.5 -49l-51 -62q-31 23 -66 34.5t-76 11.5q-62 0 -107.5 -23t-70 -64.5t-24.5 -99.5q0 -63 25.5 -105t72 -63.5t109.5 -21.5q35 0 64.5 6t55.5 19v89h-134v80h224v-202q-45 -33 -103 -51t-118 -18
q-87 0 -152.5 33.5t-101.5 94t-36 140.5z" />
    <glyph glyph-name="uni0263" unicode="&#x263;" horiz-adv-x="507" 
d="M254 -195q-55 0 -88 31.5t-33 83.5q0 23 7 47.5t23 58.5t43 85l-203 404h99l153 -321l154 321h95l-203 -405q28 -50 44 -84t23 -58.5t7 -47.5q0 -52 -32.5 -83.5t-88.5 -31.5zM215 -74q0 -20 10.5 -32.5t28.5 -12.5t28.5 12.5t10.5 32.5q0 16 -7 40t-32 69
q-25 -45 -32 -69t-7 -40z" />
    <glyph glyph-name="uni0269" unicode="&#x269;" horiz-adv-x="307" 
d="M289 6q-11 -5 -23.5 -9t-24.5 -5.5t-24 -1.5q-61 0 -94 36.5t-33 103.5v384h92v-375q0 -37 13.5 -54.5t39.5 -17.5q11 0 20.5 2t19.5 6z" />
    <glyph glyph-name="uni026A" unicode="&#x26a;" horiz-adv-x="430" 
d="M38 0v80h132v356h-132v80h354v-80h-130v-356h130v-80h-354z" />
    <glyph glyph-name="uni026B" unicode="&#x26b;" horiz-adv-x="432" 
d="M308 307q-10 0 -20 2t-19 6v-315h-92v377q-11 7 -21.5 11.5t-21.5 4.5q-24 0 -39.5 -16t-15.5 -60h-74q0 76 34 114.5t90 38.5q13 0 25 -3.5t23 -8.5v257l92 20v-340q9 -5 17.5 -8t16.5 -3q24 0 39.5 16t15.5 60h69q0 -77 -32 -115t-87 -38z" />
    <glyph glyph-name="uni026C" unicode="&#x26c;" horiz-adv-x="458" 
d="M176 284q-70 0 -115.5 34t-45.5 95q0 50 30.5 80.5t72.5 30.5q25 0 42.5 -13t27.5 -37v241l92 20v-374h163v-77h-163v-284h-92v284h-12zM100 408q0 -22 17.5 -34.5t59.5 -12.5h11v41q0 23 -12.5 36.5t-32.5 13.5t-31.5 -12.5t-11.5 -31.5z" />
    <glyph glyph-name="uni0272" unicode="&#x272;" horiz-adv-x="604" 
d="M-51 -181l16 76q12 -4 25 -6.5t28 -2.5q35 0 53.5 20.5t18.5 63.5v423q0 21 -1.5 38.5t-5.5 39.5l-8 44h86l15 -74q33 38 75.5 61t88.5 23q51 0 91.5 -23t64 -69t23.5 -117v-316h-92v304q0 47 -14.5 76.5t-39.5 43.5t-57 14q-35 0 -69 -17t-65 -47v-408q0 -75 -45 -118
t-113 -43q-20 0 -39.5 4t-35.5 10z" />
    <glyph glyph-name="uni0275" unicode="&#x275;" horiz-adv-x="572" 
d="M55 257q0 87 30 146.5t82 90.5t119 31t119 -31t82 -90.5t30 -146.5q0 -86 -30 -146t-82 -90.5t-119 -30.5t-119 30.5t-82 90.5t-30 146zM151 220q7 -72 42 -110.5t93 -38.5t93 38.5t42 110.5h-270zM151 300h270q-8 70 -43.5 107t-91.5 37t-91.5 -37t-43.5 -107z" />
    <glyph glyph-name="uni028A" unicode="&#x28a;" horiz-adv-x="572" 
d="M286 -10q-67 0 -119 30t-82 86.5t-30 135.5q0 67 23 113.5t61 79.5h-84v80h176v-74q-44 -34 -63 -77t-19 -107q0 -60 16.5 -101.5t47 -63t73.5 -21.5t73.5 21.5t47 63t16.5 101.5q0 64 -19 107t-63 77v74h176v-80h-83q38 -33 60.5 -79.5t22.5 -113.5q0 -79 -30 -135.5
t-82 -86.5t-119 -30z" />
    <glyph glyph-name="uni0294" unicode="&#x294;" horiz-adv-x="534" 
d="M20 576q29 71 94.5 111.5t150.5 40.5q70 0 122 -24.5t80.5 -69.5t28.5 -107q0 -48 -18 -90t-58 -81.5t-107 -82.5v-273h-92v320q63 34 103 66t59 66t19 73q0 54 -36.5 86.5t-101.5 32.5q-60 0 -101 -28t-67 -84z" />
    <glyph glyph-name="uni0295" unicode="&#x295;" horiz-adv-x="534" 
d="M514 576l-76 -44q-25 56 -66.5 84t-101.5 28q-64 0 -101 -32.5t-37 -86.5q0 -39 19 -73t59 -66t103 -66v-320h-92v273q-67 43 -107 82.5t-58 81.5t-18 90q0 62 30 107t83.5 69.5t121.5 24.5q86 0 149.5 -40.5t91.5 -111.5z" />
    <glyph glyph-name="uni029F" unicode="&#x29f;" horiz-adv-x="486" 
d="M90 0v515h92v-435h279v-80h-371z" />
    <glyph glyph-name="uni02B0" unicode="&#x2b0;" horiz-adv-x="338" 
d="M37 381v433l62 12v-174q20 22 44.5 35t52.5 13q31 0 55.5 -14t39 -42t14.5 -71v-192h-62v185q0 40 -19 57.5t-47 17.5q-21 0 -41 -8.5t-37 -25.5v-226h-62z" />
    <glyph glyph-name="uni02B7" unicode="&#x2b7;" horiz-adv-x="468" 
d="M10 690h64l76 -273l-24 1l81 272h56l81 -272l-24 -1l76 273h62l-95 -309h-61l-81 254h26l-81 -254h-61z" />
    <glyph glyph-name="uni02B8" unicode="&#x2b8;" horiz-adv-x="304" 
d="M57 263q-11 0 -22.5 2.5t-20.5 6.5l9 51q8 -4 14.5 -5.5t13.5 -1.5q20 0 34.5 14t33.5 60l5 11l-113 290h66l90 -255h-29l92 255h64l-126 -322q-22 -57 -47.5 -81.5t-63.5 -24.5z" />
    <glyph glyph-name="uni02B9" unicode="&#x2b9;" horiz-adv-x="232" 
d="M65 720h102l-17 -250h-68z" />
    <glyph glyph-name="uni02BA" unicode="&#x2ba;" horiz-adv-x="402" 
d="M65 720h102l-17 -250h-68zM235 720h102l-17 -250h-68z" />
    <glyph glyph-name="uni02BC" unicode="&#x2bc;" horiz-adv-x="255" 
d="M74 470l35 138q-18 5 -31 20t-13 40q0 27 18.5 44.5t44.5 17.5q28 0 45.5 -18.5t17.5 -52.5q0 -16 -4 -32.5t-12 -36.5l-45 -120h-56z" />
    <glyph glyph-name="uni02C0" unicode="&#x2c0;" horiz-adv-x="344" 
d="M20 708q17 43 56.5 67t90.5 24q63 0 101 -32.5t38 -88.5q0 -43 -25 -78.5t-85 -73.5v-147h-55v175q38 21 61.5 40t35 39.5t11.5 43.5q0 32 -22 51.5t-61 19.5q-36 0 -60.5 -16.5t-39.5 -50.5z" />
    <glyph glyph-name="circumflex" unicode="&#x2c6;" horiz-adv-x="500" 
d="M112 585l87 150h102l87 -150h-77l-61 86l-61 -86h-77z" />
    <glyph glyph-name="caron" unicode="&#x2c7;" horiz-adv-x="500" 
d="M388 735l-87 -150h-102l-87 150h77l61 -86l61 86h77z" />
    <glyph glyph-name="uni02D0" unicode="&#x2d0;" horiz-adv-x="300" 
d="M81 0l69 111l69 -111h-138zM81 515h138l-69 -111z" />
    <glyph glyph-name="uni02D1" unicode="&#x2d1;" horiz-adv-x="300" 
d="M81 515h138l-69 -111z" />
    <glyph glyph-name="breve" unicode="&#x2d8;" horiz-adv-x="500" 
d="M111 730h70q5 -37 22.5 -55.5t46.5 -18.5t47 18.5t22 55.5h70q-4 -49 -22.5 -82.5t-48 -50.5t-68.5 -17t-68.5 17t-47.5 50.5t-23 82.5z" />
    <glyph glyph-name="dotaccent" unicode="&#x2d9;" horiz-adv-x="500" 
d="M189 637q0 27 17.5 45t43.5 18q28 0 44.5 -18t16.5 -45q0 -26 -16.5 -44t-44.5 -18q-26 0 -43.5 18t-17.5 44z" />
    <glyph glyph-name="ring" unicode="&#x2da;" horiz-adv-x="500" 
d="M134 694q0 51 33.5 82.5t82.5 31.5t83 -31.5t34 -82.5t-34 -82.5t-83 -31.5t-82.5 31.5t-33.5 82.5zM200 694q0 -28 14 -43.5t36 -15.5q23 0 37 15.5t14 43.5t-14 43.5t-37 15.5q-22 0 -36 -15.5t-14 -43.5z" />
    <glyph glyph-name="ogonek" unicode="&#x2db;" horiz-adv-x="500" 
d="M161 -110q0 35 24 64.5t54 45.5h80q-40 -22 -66 -47.5t-26 -52.5q0 -18 12 -28.5t28 -10.5q17 0 29.5 5.5t22.5 11.5l20 -48q-18 -11 -37 -18t-45 -7q-40 0 -68 23t-28 62z" />
    <glyph glyph-name="tilde" unicode="&#x2dc;" horiz-adv-x="500" 
d="M104 585q5 57 27.5 88.5t61.5 31.5q20 0 36 -7.5t29 -17t25 -17t23 -7.5t19 9.5t11 34.5h60q-4 -57 -27 -88.5t-62 -31.5q-20 0 -36 7.5t-29 17t-25 17t-23 7.5q-10 0 -18.5 -9t-11.5 -35h-60z" />
    <glyph glyph-name="hungarumlaut" unicode="&#x2dd;" horiz-adv-x="500" 
d="M82 585l75 150h111l-110 -150h-76zM232 585l75 150h111l-110 -150h-76z" />
    <glyph glyph-name="gravecomb" unicode="&#x300;" horiz-adv-x="0" 
d="M-141 735h111l75 -150h-76z" />
    <glyph glyph-name="acutecomb" unicode="&#x301;" horiz-adv-x="0" 
d="M-45 585l75 150h111l-110 -150h-76z" />
    <glyph glyph-name="uni0302" unicode="&#x302;" horiz-adv-x="0" 
d="M-138 585l87 150h102l87 -150h-77l-61 86l-61 -86h-77z" />
    <glyph glyph-name="tildecomb" unicode="&#x303;" horiz-adv-x="0" 
d="M-146 585q5 57 27.5 88.5t61.5 31.5q20 0 36 -7.5t29 -17t25 -17t23 -7.5t19 9.5t11 34.5h60q-4 -57 -27 -88.5t-62 -31.5q-20 0 -36 7.5t-29 17t-25 17t-23 7.5q-10 0 -18.5 -9t-11.5 -35h-60z" />
    <glyph glyph-name="uni0304" unicode="&#x304;" horiz-adv-x="0" 
d="M-148 585v70h296v-70h-296z" />
    <glyph glyph-name="uni0306" unicode="&#x306;" horiz-adv-x="0" 
d="M-139 730h70q5 -37 22.5 -55.5t46.5 -18.5t47 18.5t22 55.5h70q-4 -49 -22.5 -82.5t-48 -50.5t-68.5 -17t-68.5 17t-47.5 50.5t-23 82.5z" />
    <glyph glyph-name="uni0307" unicode="&#x307;" horiz-adv-x="0" 
d="M-61 637q0 27 17.5 45t43.5 18q28 0 44.5 -18t16.5 -45q0 -26 -16.5 -44t-44.5 -18q-26 0 -43.5 18t-17.5 44z" />
    <glyph glyph-name="uni0308" unicode="&#x308;" horiz-adv-x="0" 
d="M-155 637q0 24 16 41t41 17q27 0 42 -17t15 -41q0 -23 -15 -40t-42 -17q-25 0 -41 17t-16 40zM41 637q0 24 16 41t41 17q27 0 42 -17t15 -41q0 -23 -15 -40t-42 -17q-25 0 -41 17t-16 40z" />
    <glyph glyph-name="hookabovecomb" unicode="&#x309;" horiz-adv-x="0" 
d="M-36 585v73q15 0 25.5 6t10.5 19t-10.5 18.5t-25.5 5.5v55q65 0 86.5 -23t21.5 -56q0 -23 -11 -40.5t-31 -24.5v-33h-66z" />
    <glyph glyph-name="uni030A" unicode="&#x30a;" horiz-adv-x="0" 
d="M-116 694q0 51 33.5 82.5t82.5 31.5t83 -31.5t34 -82.5t-34 -82.5t-83 -31.5t-82.5 31.5t-33.5 82.5zM-50 694q0 -28 14 -43.5t36 -15.5q23 0 37 15.5t14 43.5t-14 43.5t-37 15.5q-22 0 -36 -15.5t-14 -43.5z" />
    <glyph glyph-name="uni030B" unicode="&#x30b;" horiz-adv-x="0" 
d="M-120 585l75 150h111l-110 -150h-76zM30 585l75 150h111l-110 -150h-76z" />
    <glyph glyph-name="uni030C" unicode="&#x30c;" horiz-adv-x="0" 
d="M138 735l-87 -150h-102l-87 150h77l61 -86l61 86h77z" />
    <glyph glyph-name="uni030F" unicode="&#x30f;" horiz-adv-x="0" 
d="M-216 735h111l75 -150h-76zM-66 735h111l75 -150h-76z" />
    <glyph glyph-name="uni0311" unicode="&#x311;" horiz-adv-x="0" 
d="M139 585h-70q-4 38 -22 56t-47 18t-46.5 -18t-22.5 -56h-70q5 49 23 82.5t47.5 50.5t68.5 17t68.5 -17t48 -50.5t22.5 -82.5z" />
    <glyph glyph-name="uni0312" unicode="&#x312;" horiz-adv-x="0" 
d="M-54 634q0 14 3.5 28.5t11.5 37.5l24 70h53l-20 -85q16 -6 26 -20t10 -31q0 -23 -15.5 -38.5t-38.5 -15.5t-38.5 15.5t-15.5 38.5z" />
    <glyph glyph-name="uni0313" unicode="&#x313;" horiz-adv-x="0" 
d="M57 721q0 -14 -3.5 -28.5t-11.5 -37.5l-24 -70h-53l20 85q-16 6 -26 20t-10 31q0 23 15.5 38.5t38.5 15.5t38.5 -15.5t15.5 -38.5z" />
    <glyph glyph-name="uni0315" unicode="&#x315;" horiz-adv-x="0" 
d="M57 721q0 -14 -3.5 -28.5t-11.5 -37.5l-24 -70h-53l20 85q-16 6 -26 20t-10 31q0 23 15.5 38.5t38.5 15.5t38.5 -15.5t15.5 -38.5z" />
    <glyph glyph-name="uni031B" unicode="&#x31b;" horiz-adv-x="0" 
d="M0 615v75q61 0 88 29.5t27 80.5h84q0 -58 -24 -99.5t-68.5 -63.5t-106.5 -22z" />
    <glyph glyph-name="dotbelowcomb" unicode="&#x323;" horiz-adv-x="0" 
d="M-61 -133q0 27 17.5 45t43.5 18q28 0 44.5 -18t16.5 -45q0 -26 -16.5 -44t-44.5 -18q-26 0 -43.5 18t-17.5 44z" />
    <glyph glyph-name="uni0324" unicode="&#x324;" horiz-adv-x="0" 
d="M-155 -220q0 24 16 41t41 17q27 0 42 -17t15 -41q0 -23 -15 -40t-42 -17q-25 0 -41 17t-16 40zM41 -220q0 24 16 41t41 17q27 0 42 -17t15 -41q0 -23 -15 -40t-42 -17q-25 0 -41 17t-16 40z" />
    <glyph glyph-name="uni0325" unicode="&#x325;" horiz-adv-x="0" 
d="M-107 -179q0 48 31.5 78.5t75.5 30.5t76 -30.5t32 -78.5t-32 -78.5t-76 -30.5t-75.5 30.5t-31.5 78.5zM-44 -180q0 -22 12.5 -35t31.5 -13q20 0 33 13t13 35q0 24 -13 36.5t-33 12.5q-19 0 -31.5 -12.5t-12.5 -36.5z" />
    <glyph glyph-name="uni0326" unicode="&#x326;" horiz-adv-x="0" 
d="M54 -124q0 -14 -3.5 -28.5t-11.5 -37.5l-21 -60h-53l17 75q-16 6 -26 20t-10 31q0 23 15.5 38.5t38.5 15.5t38.5 -15.5t15.5 -38.5z" />
    <glyph glyph-name="uni0327" unicode="&#x327;" horiz-adv-x="0" 
d="M-78 -240l12 55q53 1 69.5 14.5t16.5 30.5q0 15 -9 24.5t-29 10.5l-30 2l18 118l58 -6l-12 -74q44 -4 64 -24.5t20 -51.5q0 -22 -13.5 -45t-46 -38.5t-88.5 -15.5h-30z" />
    <glyph glyph-name="uni0328" unicode="&#x328;" horiz-adv-x="0" 
d="M-141 -110q0 35 24 64.5t54 45.5h80q-40 -22 -66 -47.5t-26 -52.5q0 -18 12 -28.5t28 -10.5q17 0 29.5 5.5t22.5 11.5l20 -48q-18 -11 -37 -18t-45 -7q-40 0 -68 23t-28 62z" />
    <glyph glyph-name="uni032E" unicode="&#x32e;" horiz-adv-x="0" 
d="M-139 -75h70q5 -37 22.5 -55.5t46.5 -18.5t47 18.5t22 55.5h70q-4 -49 -22.5 -82.5t-48 -50.5t-68.5 -17t-68.5 17t-47.5 50.5t-23 82.5z" />
    <glyph glyph-name="uni0331" unicode="&#x331;" horiz-adv-x="0" 
d="M-148 -145v70h296v-70h-296z" />
    <glyph glyph-name="uni0332" unicode="&#x332;" horiz-adv-x="0" 
d="M-148 -145v70h296v-70h-296z" />
    <glyph glyph-name="uni0335" unicode="&#x335;" horiz-adv-x="0" 
d="M-148 260v70h296v-70h-296z" />
    <glyph glyph-name="uni0338" unicode="&#x338;" horiz-adv-x="0" 
d="M415 586l67 -34l-325 -623l-67 34z" />
    <glyph glyph-name="uni0394" unicode="&#x394;" horiz-adv-x="636" 
d="M20 0l258 690h80l258 -690h-596zM151 86h330l-165 466z" />
    <glyph glyph-name="Theta" unicode="&#x398;" horiz-adv-x="726" 
d="M60 345q0 87 23.5 153.5t65.5 111.5t97 67.5t117 22.5t117 -22.5t97 -67.5t65.5 -111.5t23.5 -153.5t-23.5 -153.5t-65.5 -111.5t-97 -67.5t-117 -22.5t-117 22.5t-97 67.5t-65.5 111.5t-23.5 153.5zM160 308q6 -76 33.5 -127t71.5 -76.5t98 -25.5q55 0 98.5 25.5
t71 76.5t33.5 127h-406zM161 392h404q-7 73 -35 121.5t-71 73t-96 24.5t-96 -24.5t-71 -73t-35 -121.5z" />
    <glyph glyph-name="Iota" unicode="&#x399;" horiz-adv-x="456" 
d="M80 0v81h100v528h-100v81h296v-81h-100v-528h100v-81h-296z" />
    <glyph glyph-name="Chi" unicode="&#x3a7;" horiz-adv-x="644" 
d="M30 0l260 386v-72l-250 376h116l195 -293h-48l191 293h110l-249 -371v72l259 -391h-116l-205 308h48l-201 -308h-110z" />
    <glyph glyph-name="uni03A9" unicode="&#x3a9;" horiz-adv-x="726" 
d="M363 611q-55 0 -99 -29t-69.5 -83.5t-25.5 -133.5q0 -65 18 -115t46.5 -85t59.5 -55v-110h-223v81h142q-42 33 -74 75.5t-50 94.5t-18 114q0 107 39.5 181.5t106.5 114t147 39.5q60 0 113 -22.5t93.5 -65.5t63.5 -105t23 -142q0 -62 -18 -114t-49.5 -94.5t-74.5 -75.5
h142v-81h-223v110q31 20 59.5 55t46.5 85t18 115q0 79 -25.5 133.5t-69 83.5t-99.5 29z" />
    <glyph glyph-name="theta" unicode="&#x3b8;" horiz-adv-x="572" 
d="M55 339q0 169 60 260t171 91q74 0 125.5 -41t78.5 -119t27 -191q0 -168 -60 -258.5t-171 -90.5t-171 90.5t-60 258.5zM150 305q3 -77 18 -129t44.5 -78.5t73.5 -26.5t73.5 26.5t45 78.5t17.5 129h-272zM150 385h272q-3 73 -19 123t-45 75.5t-72 25.5q-42 0 -71.5 -25.5
t-45 -75.5t-19.5 -123z" />
    <glyph glyph-name="iota" unicode="&#x3b9;" horiz-adv-x="307" 
d="M289 6q-11 -5 -23.5 -9t-24.5 -5.5t-24 -1.5q-61 0 -94 36.5t-33 103.5v384h92v-375q0 -37 13.5 -54.5t39.5 -17.5q11 0 20.5 2t19.5 6z" />
    <glyph glyph-name="lambda" unicode="&#x3bb;" horiz-adv-x="496" 
d="M392 0l-141 375l-142 -375h-99l192 486l-84 218l80 31l288 -735h-94z" />
    <glyph glyph-name="uni03BC" unicode="&#x3bc;" 
d="M85 -185v700h92v-304q0 -70 30.5 -102t78.5 -32q35 0 68.5 17t63.5 47v374h92v-415q0 -16 7 -22.5t18 -6.5q6 0 10.5 1t10.5 3v-75q-10 -4 -23.5 -7t-24.5 -3q-31 0 -55 20t-29 64q-31 -37 -69.5 -60.5t-82.5 -23.5q-32 0 -58.5 11.5t-43.5 33.5l7 -220h-92z" />
    <glyph glyph-name="pi" unicode="&#x3c0;" 
d="M40 434v81h515v-81h-75v-334q0 -16 7 -22.5t18 -6.5q6 0 10.5 1t10.5 3v-75q-10 -4 -23.5 -7t-24.5 -3q-29 0 -49 11t-30.5 37.5t-10.5 71.5v324h-181v-434h-92v434h-75z" />
    <glyph glyph-name="chi" unicode="&#x3c7;" horiz-adv-x="516" 
d="M27 -190l198 397v-78l-185 376l92 20l146 -303h-37l138 293h103l-192 -385v78l190 -388l-91 -20l-153 315h37l-143 -305h-103z" />
    <glyph glyph-name="uni1400" unicode="&#x1400;" horiz-adv-x="448" 
d="M64 395v57h320v-57h-320zM64 258v57h320v-57h-320z" />
    <glyph glyph-name="uni1401" unicode="&#x1401;" horiz-adv-x="716" 
d="M340 0l-308 664v26h652v-26l-308 -664h-36zM345 116l232 517l8 -22h-455l13 22l232 -517h-30z" />
    <glyph glyph-name="uni1402" unicode="&#x1402;" horiz-adv-x="716" 
d="M32 0v26l308 664h36l308 -664v-26h-652zM140 57l-10 22h455l-11 -22l-232 517h30zM358 757q-28 0 -52 13t-38.5 36t-14.5 53q0 45 31 73.5t74 28.5q28 0 51.5 -13t38 -36t14.5 -53t-14.5 -53t-38 -36t-51.5 -13zM358 802q25 0 40.5 16.5t15.5 40.5t-15.5 40.5t-40.5 16.5
t-40.5 -16.5t-15.5 -40.5t15 -40.5t41 -16.5z" />
    <glyph glyph-name="uni1403" unicode="&#x1403;" horiz-adv-x="716" 
d="M32 0v26l308 664h36l308 -664v-26h-652zM140 57l-10 22h455l-11 -22l-232 517h30z" />
    <glyph glyph-name="uni1404" unicode="&#x1404;" horiz-adv-x="716" 
d="M32 0v26l308 664h36l308 -664v-26h-652zM140 57l-10 22h455l-11 -22l-232 517h30zM358 780q-22 0 -38.5 16t-16.5 39t16.5 38.5t38.5 15.5q23 0 39 -15.5t16 -38.5t-16 -39t-39 -16z" />
    <glyph glyph-name="uni1405" unicode="&#x1405;" horiz-adv-x="677" 
d="M75 0v690h26l542 -328v-35l-542 -327h-26zM158 107l-25 5l409 247v-28l-409 249l25 3v-476z" />
    <glyph glyph-name="uni1406" unicode="&#x1406;" horiz-adv-x="677" 
d="M75 0v690h26l542 -328v-35l-542 -327h-26zM158 107l-25 5l409 247v-28l-409 249l25 3v-476zM117 780q-22 0 -38.5 16t-16.5 39t16.5 38.5t38.5 15.5q23 0 39 -15.5t16 -38.5t-16 -39t-39 -16z" />
    <glyph glyph-name="uni1407" unicode="&#x1407;" horiz-adv-x="677" 
d="M75 0v690h26l542 -328v-35l-542 -327h-26zM158 107l-25 5l409 247v-28l-409 249l25 3v-476zM454 780q-23 0 -39.5 16t-16.5 39t16.5 38.5t39.5 15.5t39 -15.5t16 -38.5t-16 -39t-39 -16zM280 780q-23 0 -39 16t-16 39t16 38.5t39 15.5t39 -15.5t16 -38.5t-16 -39t-39 -16
z" />
    <glyph glyph-name="uni1408" unicode="&#x1408;" horiz-adv-x="677" 
d="M75 0v690h26l542 -328v-35l-542 -327h-26zM156 107l-23 3l409 247v-24l-409 249l23 1v-476zM290 263h-38v164h38v-164z" />
    <glyph glyph-name="uni1409" unicode="&#x1409;" horiz-adv-x="677" 
d="M75 0v690h26l542 -328v-35l-542 -327h-26zM158 107l-25 5l409 247v-28l-409 249l25 3v-476zM272 307q-16 0 -27 11t-11 27t11 27t27 11t27 -11t11 -27t-11 -27t-27 -11z" />
    <glyph glyph-name="uni140A" unicode="&#x140a;" horiz-adv-x="676" 
d="M576 0l-542 327v35l542 328h25v-690h-25zM519 107v476l24 -3l-408 -249v28l408 -248z" />
    <glyph glyph-name="uni140B" unicode="&#x140b;" horiz-adv-x="676" 
d="M576 0l-542 327v35l542 328h25v-690h-25zM519 107v476l24 -3l-408 -249v28l408 -248zM559 780q-22 0 -38.5 16t-16.5 39t16.5 38.5t38.5 15.5q23 0 39 -15.5t16 -38.5t-16 -39t-39 -16z" />
    <glyph glyph-name="uni140C" unicode="&#x140c;" horiz-adv-x="940" 
d="M112 299q-23 0 -39 16.5t-16 39.5t16 39t39 16t39 -16t16 -39t-16 -39.5t-39 -16.5zM564 0l-308 664v26h652v-26l-308 -664h-36zM569 116l232 517l8 -22h-455l13 22l232 -517h-30z" />
    <glyph glyph-name="uni140D" unicode="&#x140d;" horiz-adv-x="940" 
d="M340 0l-308 664v26h652v-26l-308 -664h-36zM345 116l232 517l8 -22h-455l13 22l232 -517h-30zM828 299q-23 0 -39 16.5t-16 39.5t16 39t39 16t39 -16t16 -39t-16 -39.5t-39 -16.5z" />
    <glyph glyph-name="uni140E" unicode="&#x140e;" horiz-adv-x="940" 
d="M112 299q-23 0 -39 16.5t-16 39.5t16 39t39 16t39 -16t16 -39t-16 -39.5t-39 -16.5zM256 0v26l308 664h36l308 -664v-26h-652zM364 57l-10 22h455l-11 -22l-232 517h30z" />
    <glyph glyph-name="uni140F" unicode="&#x140f;" horiz-adv-x="940" 
d="M32 0v26l308 664h36l308 -664v-26h-652zM140 57l-10 22h455l-11 -22l-232 517h30zM828 299q-23 0 -39 16.5t-16 39.5t16 39t39 16t39 -16t16 -39t-16 -39.5t-39 -16.5z" />
    <glyph glyph-name="uni1410" unicode="&#x1410;" horiz-adv-x="940" 
d="M112 299q-23 0 -39 16.5t-16 39.5t16 39t39 16t39 -16t16 -39t-16 -39.5t-39 -16.5zM256 0v26l308 664h36l308 -664v-26h-652zM364 57l-10 22h455l-11 -22l-232 517h30zM582 780q-22 0 -38.5 16t-16.5 39t16.5 38.5t38.5 15.5q23 0 39 -15.5t16 -38.5t-16 -39t-39 -16z
" />
    <glyph glyph-name="uni1411" unicode="&#x1411;" horiz-adv-x="940" 
d="M32 0v26l308 664h36l308 -664v-26h-652zM140 57l-10 22h455l-11 -22l-232 517h30zM358 780q-22 0 -38.5 16t-16.5 39t16.5 38.5t38.5 15.5q23 0 39 -15.5t16 -38.5t-16 -39t-39 -16zM828 299q-23 0 -39 16.5t-16 39.5t16 39t39 16t39 -16t16 -39t-16 -39.5t-39 -16.5z
" />
    <glyph glyph-name="uni1412" unicode="&#x1412;" horiz-adv-x="901" 
d="M112 299q-23 0 -39 16.5t-16 39.5t16 39t39 16t39 -16t16 -39t-16 -39.5t-39 -16.5zM299 0v690h26l542 -328v-35l-542 -327h-26zM382 107l-25 5l409 247v-28l-409 249l25 3v-476z" />
    <glyph glyph-name="uni1413" unicode="&#x1413;" horiz-adv-x="901" 
d="M75 0v690h26l542 -328v-35l-542 -327h-26zM158 107l-25 5l409 247v-28l-409 249l25 3v-476zM789 299q-23 0 -39 16.5t-16 39.5t16 39t39 16t39 -16t16 -39t-16 -39.5t-39 -16.5z" />
    <glyph glyph-name="uni1414" unicode="&#x1414;" horiz-adv-x="901" 
d="M112 299q-23 0 -39 16.5t-16 39.5t16 39t39 16t39 -16t16 -39t-16 -39.5t-39 -16.5zM299 0v690h26l542 -328v-35l-542 -327h-26zM382 107l-25 5l409 247v-28l-409 249l25 3v-476zM582 780q-22 0 -38.5 16t-16.5 39t16.5 38.5t38.5 15.5q23 0 39 -15.5t16 -38.5t-16 -39
t-39 -16z" />
    <glyph glyph-name="uni1415" unicode="&#x1415;" horiz-adv-x="901" 
d="M75 0v690h26l542 -328v-35l-542 -327h-26zM158 107l-25 5l409 247v-28l-409 249l25 3v-476zM117 780q-22 0 -38.5 16t-16.5 39t16.5 38.5t38.5 15.5q23 0 39 -15.5t16 -38.5t-16 -39t-39 -16zM789 299q-23 0 -39 16.5t-16 39.5t16 39t39 16t39 -16t16 -39t-16 -39.5
t-39 -16.5z" />
    <glyph glyph-name="uni1416" unicode="&#x1416;" horiz-adv-x="677" 
d="M75 0v690h26l542 -328v-35l-542 -327h-26zM158 107l-25 5l409 247v-28l-409 249l25 3v-476zM284 684q-22 0 -38.5 16t-16.5 39t16.5 38.5t38.5 15.5q23 0 39 -15.5t16 -38.5t-16 -39t-39 -16zM459 579q-22 0 -38.5 16t-16.5 39t16.5 38.5t38.5 15.5q23 0 39 -15.5
t16 -38.5t-16 -39t-39 -16z" />
    <glyph glyph-name="uni1417" unicode="&#x1417;" horiz-adv-x="900" 
d="M112 299q-23 0 -39 16.5t-16 39.5t16 39t39 16t39 -16t16 -39t-16 -39.5t-39 -16.5zM800 0l-542 327v35l542 328h25v-690h-25zM743 107v476l24 -3l-408 -249v28l408 -248z" />
    <glyph glyph-name="uni1418" unicode="&#x1418;" horiz-adv-x="900" 
d="M576 0l-542 327v35l542 328h25v-690h-25zM519 107v476l24 -3l-408 -249v28l408 -248zM788 299q-23 0 -39 16.5t-16 39.5t16 39t39 16t39 -16t16 -39t-16 -39.5t-39 -16.5z" />
    <glyph glyph-name="uni1419" unicode="&#x1419;" horiz-adv-x="900" 
d="M112 299q-23 0 -39 16.5t-16 39.5t16 39t39 16t39 -16t16 -39t-16 -39.5t-39 -16.5zM800 0l-542 327v35l542 328h25v-690h-25zM743 107v476l24 -3l-408 -249v28l408 -248zM783 780q-22 0 -38.5 16t-16.5 39t16.5 38.5t38.5 15.5q23 0 39 -15.5t16 -38.5t-16 -39t-39 -16z
" />
    <glyph glyph-name="uni141A" unicode="&#x141a;" horiz-adv-x="900" 
d="M576 0l-542 327v35l542 328h25v-690h-25zM519 107v476l24 -3l-408 -249v28l408 -248zM559 780q-22 0 -38.5 16t-16.5 39t16.5 38.5t38.5 15.5q23 0 39 -15.5t16 -38.5t-16 -39t-39 -16zM788 299q-23 0 -39 16.5t-16 39.5t16 39t39 16t39 -16t16 -39t-16 -39.5t-39 -16.5z
" />
    <glyph glyph-name="uni141B" unicode="&#x141b;" horiz-adv-x="676" 
d="M576 0l-542 327v35l542 328h25v-690h-25zM519 107v476l24 -3l-408 -249v28l408 -248zM216 579q-22 0 -38.5 16t-16.5 39t16.5 38.5t38.5 15.5q23 0 39 -15.5t16 -38.5t-16 -39t-39 -16zM392 684q-22 0 -38.5 16t-16.5 39t16.5 38.5t38.5 15.5q23 0 39 -15.5t16 -38.5
t-16 -39t-39 -16z" />
    <glyph glyph-name="uni141C" unicode="&#x141c;" horiz-adv-x="626" 
d="M203 339q-63 0 -101 40t-38 116v195h64v-194q0 -51 20.5 -74t55.5 -23t56 22.5t21 75.5v193h64v-194q0 -51 21 -74t55 -23q36 0 56 22.5t20 75.5v193h65v-193q0 -78 -37.5 -118t-100.5 -40q-45 0 -76 22.5t-46 67.5h22q-15 -45 -45 -67.5t-76 -22.5z" />
    <glyph glyph-name="uni141D" unicode="&#x141d;" horiz-adv-x="446" 
d="M299 510q-37 0 -61.5 26.5t-24.5 66.5q0 41 24.5 67t61.5 26q38 0 62 -26t24 -67q0 -40 -24 -66.5t-62 -26.5zM147 339q-37 0 -61.5 26.5t-24.5 66.5q0 41 25 67t62 26t61 -26t24 -67q0 -40 -24.5 -66.5t-61.5 -26.5zM147 375q21 0 34 16t13 41q0 26 -13 41.5t-34 15.5
t-34.5 -15.5t-13.5 -41.5q0 -25 13.5 -41t34.5 -16zM299 546q21 0 34.5 16t13.5 41q0 26 -13.5 41.5t-34.5 15.5q-22 0 -34.5 -15.5t-12.5 -41.5q0 -25 12.5 -41t34.5 -16z" />
    <glyph glyph-name="uni141E" unicode="&#x141e;" horiz-adv-x="436" 
d="M55 345v14l154 331h18l154 -331v-14h-326zM119 374l-13 22h223l-14 -22l-114 253h33z" />
    <glyph glyph-name="uni141F" unicode="&#x141f;" horiz-adv-x="318" 
d="M41 345l160 345h76l-160 -345h-76z" />
    <glyph glyph-name="uni1420" unicode="&#x1420;" horiz-adv-x="318" 
d="M201 345l-160 345h76l160 -345h-76z" />
    <glyph glyph-name="uni1421" unicode="&#x1421;" horiz-adv-x="424" 
d="M213 339q-68 0 -108.5 42t-40.5 118v191h68v-190q0 -49 21 -73.5t60 -24.5q38 0 58.5 24t20.5 74v190h68v-190q0 -78 -39.5 -119.5t-107.5 -41.5z" />
    <glyph glyph-name="uni1422" unicode="&#x1422;" horiz-adv-x="424" 
d="M64 345v190q0 77 40.5 119t108.5 42t107.5 -41.5t39.5 -120.5v-189h-68v189q0 51 -20.5 75t-58.5 24q-39 0 -60 -24.5t-21 -74.5v-189h-68z" />
    <glyph glyph-name="uni1423" unicode="&#x1423;" horiz-adv-x="369" 
d="M61 345v64h70q54 0 81.5 27.5t27.5 80.5t-27.5 81t-81.5 28h-70v64h74q83 0 128 -46.5t45 -126.5q0 -79 -44.5 -125.5t-127.5 -46.5h-75z" />
    <glyph glyph-name="uni1424" unicode="&#x1424;" horiz-adv-x="468" 
d="M234 355q-50 0 -89.5 22.5t-62 61t-22.5 87.5t22.5 87t62 60.5t89.5 22.5q49 0 88 -22.5t62 -60.5t23 -87t-22.5 -87.5t-61.5 -61t-89 -22.5zM234 414q48 0 78.5 32t30.5 80q0 47 -31 79t-78 32q-49 0 -79 -32t-30 -79q0 -48 30 -80t79 -32z" />
    <glyph glyph-name="uni1425" unicode="&#x1425;" horiz-adv-x="469" 
d="M117 345h-76l160 345h76zM268 345h-77l161 345h76z" />
    <glyph glyph-name="uni1426" unicode="&#x1426;" horiz-adv-x="331" 
d="M132 345h-68v345h68v-345zM267 345h-69v345h69v-345z" />
    <glyph glyph-name="uni1427" unicode="&#x1427;" horiz-adv-x="224" 
d="M112 299q-23 0 -39 16.5t-16 39.5t16 39t39 16t39 -16t16 -39t-16 -39.5t-39 -16.5z" />
    <glyph glyph-name="uni1428" unicode="&#x1428;" horiz-adv-x="445" 
d="M62 489v68h321v-68h-321z" />
    <glyph glyph-name="uni1429" unicode="&#x1429;" horiz-adv-x="446" 
d="M189 362v134h-127v63h127v131h68v-131h127v-63h-127v-134h-68z" />
    <glyph glyph-name="uni142A" unicode="&#x142a;" horiz-adv-x="446" 
d="M189 345v280h-127v65h322v-65h-127v-280h-68z" />
    <glyph glyph-name="uni142B" unicode="&#x142b;" horiz-adv-x="1035" 
d="M340 0l-308 664v26h652v-26l-308 -664h-36zM345 116l232 517l8 -22h-455l13 22l232 -517h-30zM918 345l-160 345h76l160 -345h-76z" />
    <glyph glyph-name="uni142C" unicode="&#x142c;" horiz-adv-x="808" 
d="M32 0v26l308 664h36l308 -664v-26h-652zM140 57l-10 22h455l-11 -22l-232 517h30zM691 345l-160 345h76l160 -345h-76z" />
    <glyph glyph-name="uni142D" unicode="&#x142d;" horiz-adv-x="852" 
d="M75 0v690h26l542 -328v-35l-542 -327h-26zM158 107l-25 5l409 247v-28l-409 249l25 3v-476zM735 345l-160 345h76l160 -345h-76z" />
    <glyph glyph-name="uni142E" unicode="&#x142e;" horiz-adv-x="949" 
d="M575 0l-542 327v35l542 328h25v-690h-25zM518 107v476l24 -3l-408 -249v28l408 -248zM832 345l-160 345h76l160 -345h-76z" />
    <glyph glyph-name="uni142F" unicode="&#x142f;" horiz-adv-x="716" 
d="M340 0l-308 664v26h94l258 -575h-49l261 575h88v-26l-308 -664h-36z" />
    <glyph glyph-name="uni1430" unicode="&#x1430;" horiz-adv-x="716" 
d="M32 0v26l308 664h36l308 -664v-26h-92l-259 575h51l-262 -575h-90zM358 757q-28 0 -52 13t-38.5 36t-14.5 53q0 45 31 73.5t74 28.5q28 0 51.5 -13t38 -36t14.5 -53t-14.5 -53t-38 -36t-51.5 -13zM358 802q25 0 40.5 16.5t15.5 40.5t-15.5 40.5t-40.5 16.5t-40.5 -16.5
t-15.5 -40.5t15 -40.5t41 -16.5z" />
    <glyph glyph-name="uni1431" unicode="&#x1431;" horiz-adv-x="716" 
d="M32 0v26l308 664h36l308 -664v-26h-92l-259 575h51l-262 -575h-90z" />
    <glyph glyph-name="uni1432" unicode="&#x1432;" horiz-adv-x="716" 
d="M32 0v26l308 664h36l308 -664v-26h-92l-259 575h51l-262 -575h-90zM358 780q-22 0 -38.5 16t-16.5 39t16.5 38.5t38.5 15.5q23 0 39 -15.5t16 -38.5t-16 -39t-39 -16z" />
    <glyph glyph-name="uni1433" unicode="&#x1433;" horiz-adv-x="649" 
d="M53 0v90l455 277v-43l-455 277v89h25l537 -328v-35l-537 -327h-25z" />
    <glyph glyph-name="uni1434" unicode="&#x1434;" horiz-adv-x="649" 
d="M53 0v90l455 277v-43l-455 277v89h25l537 -328v-35l-537 -327h-25zM96 780q-22 0 -38.5 16t-16.5 39t16.5 38.5t38.5 15.5q23 0 39 -15.5t16 -38.5t-16 -39t-39 -16z" />
    <glyph glyph-name="uni1435" unicode="&#x1435;" horiz-adv-x="649" 
d="M53 0v90l455 277v-43l-455 277v89h25l537 -328v-35l-537 -327h-25zM434 780q-23 0 -39.5 16t-16.5 39t16.5 38.5t39.5 15.5t39 -15.5t16 -38.5t-16 -39t-39 -16zM260 780q-23 0 -39 16t-16 39t16 38.5t39 15.5t39 -15.5t16 -38.5t-16 -39t-39 -16z" />
    <glyph glyph-name="uni1436" unicode="&#x1436;" horiz-adv-x="649" 
d="M53 0v90l455 277v-43l-455 277v89h25l537 -328v-35l-537 -327h-25zM230 258h-47v174h47v-174z" />
    <glyph glyph-name="uni1437" unicode="&#x1437;" horiz-adv-x="649" 
d="M53 0v90l455 277v-43l-455 277v89h25l537 -328v-35l-537 -327h-25zM207 298q-19 0 -33 14t-14 33q0 20 14 33t33 13q20 0 33 -13t13 -33q0 -19 -13 -33t-33 -14z" />
    <glyph glyph-name="uni1438" unicode="&#x1438;" horiz-adv-x="649" 
d="M571 0l-537 327v35l537 328h25v-90l-455 -277v43l455 -277v-89h-25z" />
    <glyph glyph-name="uni1439" unicode="&#x1439;" horiz-adv-x="649" 
d="M571 0l-537 327v35l537 328h25v-90l-455 -277v43l455 -277v-89h-25zM554 780q-22 0 -38.5 16t-16.5 39t16.5 38.5t38.5 15.5q23 0 39 -15.5t16 -38.5t-16 -39t-39 -16z" />
    <glyph glyph-name="uni143A" unicode="&#x143a;" horiz-adv-x="940" 
d="M112 299q-23 0 -39 16.5t-16 39.5t16 39t39 16t39 -16t16 -39t-16 -39.5t-39 -16.5zM564 0l-308 664v26h94l258 -575h-49l261 575h88v-26l-308 -664h-36z" />
    <glyph glyph-name="uni143B" unicode="&#x143b;" horiz-adv-x="940" 
d="M340 0l-308 664v26h94l258 -575h-49l261 575h88v-26l-308 -664h-36zM828 299q-23 0 -39 16.5t-16 39.5t16 39t39 16t39 -16t16 -39t-16 -39.5t-39 -16.5z" />
    <glyph glyph-name="uni143C" unicode="&#x143c;" horiz-adv-x="940" 
d="M112 299q-23 0 -39 16.5t-16 39.5t16 39t39 16t39 -16t16 -39t-16 -39.5t-39 -16.5zM256 0v26l308 664h36l308 -664v-26h-92l-259 575h51l-262 -575h-90z" />
    <glyph glyph-name="uni143D" unicode="&#x143d;" horiz-adv-x="940" 
d="M32 0v26l308 664h36l308 -664v-26h-92l-259 575h51l-262 -575h-90zM828 299q-23 0 -39 16.5t-16 39.5t16 39t39 16t39 -16t16 -39t-16 -39.5t-39 -16.5z" />
    <glyph glyph-name="uni143E" unicode="&#x143e;" horiz-adv-x="940" 
d="M112 299q-23 0 -39 16.5t-16 39.5t16 39t39 16t39 -16t16 -39t-16 -39.5t-39 -16.5zM256 0v26l308 664h36l308 -664v-26h-92l-259 575h51l-262 -575h-90zM582 780q-22 0 -38.5 16t-16.5 39t16.5 38.5t38.5 15.5q23 0 39 -15.5t16 -38.5t-16 -39t-39 -16z" />
    <glyph glyph-name="uni143F" unicode="&#x143f;" horiz-adv-x="940" 
d="M32 0v26l308 664h36l308 -664v-26h-92l-259 575h51l-262 -575h-90zM358 780q-22 0 -38.5 16t-16.5 39t16.5 38.5t38.5 15.5q23 0 39 -15.5t16 -38.5t-16 -39t-39 -16zM828 299q-23 0 -39 16.5t-16 39.5t16 39t39 16t39 -16t16 -39t-16 -39.5t-39 -16.5z" />
    <glyph glyph-name="uni1440" unicode="&#x1440;" horiz-adv-x="873" 
d="M112 299q-23 0 -39 16.5t-16 39.5t16 39t39 16t39 -16t16 -39t-16 -39.5t-39 -16.5zM277 0v90l455 277v-43l-455 277v89h25l537 -328v-35l-537 -327h-25z" />
    <glyph glyph-name="uni1441" unicode="&#x1441;" horiz-adv-x="873" 
d="M53 0v90l455 277v-43l-455 277v89h25l537 -328v-35l-537 -327h-25zM761 299q-23 0 -39 16.5t-16 39.5t16 39t39 16t39 -16t16 -39t-16 -39.5t-39 -16.5z" />
    <glyph glyph-name="uni1442" unicode="&#x1442;" horiz-adv-x="873" 
d="M112 299q-23 0 -39 16.5t-16 39.5t16 39t39 16t39 -16t16 -39t-16 -39.5t-39 -16.5zM277 0v90l455 277v-43l-455 277v89h25l537 -328v-35l-537 -327h-25zM557 780q-22 0 -38.5 16t-16.5 39t16.5 38.5t38.5 15.5q23 0 39 -15.5t16 -38.5t-16 -39t-39 -16z" />
    <glyph glyph-name="uni1443" unicode="&#x1443;" horiz-adv-x="873" 
d="M53 0v90l455 277v-43l-455 277v89h25l537 -328v-35l-537 -327h-25zM96 780q-22 0 -38.5 16t-16.5 39t16.5 38.5t38.5 15.5q23 0 39 -15.5t16 -38.5t-16 -39t-39 -16zM761 299q-23 0 -39 16.5t-16 39.5t16 39t39 16t39 -16t16 -39t-16 -39.5t-39 -16.5z" />
    <glyph glyph-name="uni1444" unicode="&#x1444;" horiz-adv-x="873" 
d="M112 299q-23 0 -39 16.5t-16 39.5t16 39t39 16t39 -16t16 -39t-16 -39.5t-39 -16.5zM795 0l-537 327v35l537 328h25v-90l-455 -277v43l455 -277v-89h-25z" />
    <glyph glyph-name="uni1445" unicode="&#x1445;" horiz-adv-x="873" 
d="M571 0l-537 327v35l537 328h25v-90l-455 -277v43l455 -277v-89h-25zM761 299q-23 0 -39 16.5t-16 39.5t16 39t39 16t39 -16t16 -39t-16 -39.5t-39 -16.5z" />
    <glyph glyph-name="uni1446" unicode="&#x1446;" horiz-adv-x="873" 
d="M112 299q-23 0 -39 16.5t-16 39.5t16 39t39 16t39 -16t16 -39t-16 -39.5t-39 -16.5zM795 0l-537 327v35l537 328h25v-90l-455 -277v43l455 -277v-89h-25zM778 780q-22 0 -38.5 16t-16.5 39t16.5 38.5t38.5 15.5q23 0 39 -15.5t16 -38.5t-16 -39t-39 -16z" />
    <glyph glyph-name="uni1447" unicode="&#x1447;" horiz-adv-x="873" 
d="M571 0l-537 327v35l537 328h25v-90l-455 -277v43l455 -277v-89h-25zM554 780q-22 0 -38.5 16t-16.5 39t16.5 38.5t38.5 15.5q23 0 39 -15.5t16 -38.5t-16 -39t-39 -16zM761 299q-23 0 -39 16.5t-16 39.5t16 39t39 16t39 -16t16 -39t-16 -39.5t-39 -16.5z" />
    <glyph glyph-name="uni1448" unicode="&#x1448;" horiz-adv-x="649" 
d="M571 0l-537 327v35l537 328h25v-90l-455 -277v43l455 -277v-89h-25zM213 579q-22 0 -38.5 16t-16.5 39t16.5 38.5t38.5 15.5q23 0 39 -15.5t16 -38.5t-16 -39t-39 -16zM390 684q-22 0 -38.5 16t-16.5 39t16.5 38.5t38.5 15.5q23 0 39 -15.5t16 -38.5t-16 -39t-39 -16z
" />
    <glyph glyph-name="uni1449" unicode="&#x1449;" horiz-adv-x="409" 
d="M329 345l-265 163v19l265 163h15v-63l-221 -134v49l221 -135v-62h-15z" />
    <glyph glyph-name="uni144A" unicode="&#x144a;" horiz-adv-x="196" 
d="M64 345v345h68v-345h-68z" />
    <glyph glyph-name="uni144B" unicode="&#x144b;" horiz-adv-x="359" 
d="M64 183v344h68v-170l-17 11q5 29 30.5 48t61.5 19q31 0 55.5 -13t39.5 -39t15 -66v-134h-69v121q0 69 -54 69q-28 0 -45 -17.5t-17 -49.5v-123h-68z" />
    <glyph glyph-name="uni144C" unicode="&#x144c;" horiz-adv-x="713" 
d="M356 -13q-89 0 -153.5 37t-99 106.5t-34.5 168.5v391h95v-390q0 -109 51.5 -167t140.5 -58q92 0 142.5 57t50.5 168v390h95v-388q0 -150 -76.5 -232.5t-211.5 -82.5z" />
    <glyph glyph-name="uni144D" unicode="&#x144d;" horiz-adv-x="713" 
d="M69 0v387q0 101 35 171t100.5 107t154.5 37q132 0 208.5 -81.5t76.5 -230.5v-390h-95v389q0 110 -51 167.5t-140 57.5q-91 0 -142.5 -57.5t-51.5 -167.5v-389h-95zM356 757q-28 0 -52 13t-38.5 36t-14.5 53q0 45 31 73.5t74 28.5q28 0 51.5 -13t38 -36t14.5 -53
t-14.5 -53t-38 -36t-51.5 -13zM356 802q25 0 40.5 16.5t15.5 40.5t-15.5 40.5t-40.5 16.5t-40.5 -16.5t-15.5 -40.5t15 -40.5t41 -16.5z" />
    <glyph glyph-name="uni144E" unicode="&#x144e;" horiz-adv-x="713" 
d="M69 0v387q0 101 35 171t100.5 107t154.5 37q132 0 208.5 -81.5t76.5 -230.5v-390h-95v389q0 110 -51 167.5t-140 57.5q-91 0 -142.5 -57.5t-51.5 -167.5v-389h-95z" />
    <glyph glyph-name="uni144F" unicode="&#x144f;" horiz-adv-x="713" 
d="M69 0v387q0 101 35 171t100.5 107t154.5 37q132 0 208.5 -81.5t76.5 -230.5v-390h-95v389q0 110 -51 167.5t-140 57.5q-91 0 -142.5 -57.5t-51.5 -167.5v-389h-95zM356 780q-22 0 -38.5 16t-16.5 39t16.5 38.5t38.5 15.5q23 0 39 -15.5t16 -38.5t-16 -39t-39 -16z" />
    <glyph glyph-name="uni1450" unicode="&#x1450;" horiz-adv-x="607" 
d="M56 0v87h155q115 0 176 67t61 192t-61.5 191t-177.5 66h-153v87h156q160 0 246.5 -90.5t86.5 -253.5t-86.5 -254.5t-244.5 -91.5h-158z" />
    <glyph glyph-name="uni1451" unicode="&#x1451;" horiz-adv-x="607" 
d="M56 0v87h155q115 0 176 67t61 192t-61.5 191t-177.5 66h-153v87h156q160 0 246.5 -90.5t86.5 -253.5t-86.5 -254.5t-244.5 -91.5h-158zM274 780q-22 0 -38.5 16t-16.5 39t16.5 38.5t38.5 15.5q23 0 39 -15.5t16 -38.5t-16 -39t-39 -16z" />
    <glyph glyph-name="uni1452" unicode="&#x1452;" horiz-adv-x="607" 
d="M56 0v87h155q115 0 176 67t61 192t-61.5 191t-177.5 66h-153v87h156q160 0 246.5 -90.5t86.5 -253.5t-86.5 -254.5t-244.5 -91.5h-158zM343 780q-23 0 -39.5 16t-16.5 39t16.5 38.5t39.5 15.5t39 -15.5t16 -38.5t-16 -39t-39 -16zM169 780q-23 0 -39 16t-16 39t16 38.5
t39 15.5t39 -15.5t16 -38.5t-16 -39t-39 -16z" />
    <glyph glyph-name="uni1453" unicode="&#x1453;" horiz-adv-x="607" 
d="M56 0v87h155q115 0 176 67t61 192t-61.5 191t-177.5 66h-153v87h156q160 0 246.5 -90.5t86.5 -253.5t-86.5 -254.5t-244.5 -91.5h-158zM282 233h-59v225h59v-225z" />
    <glyph glyph-name="uni1454" unicode="&#x1454;" horiz-adv-x="607" 
d="M56 0v87h155q115 0 176 67t61 192t-61.5 191t-177.5 66h-153v87h156q160 0 246.5 -90.5t86.5 -253.5t-86.5 -254.5t-244.5 -91.5h-158zM253 291q-22 0 -38 15.5t-16 38.5t16 38.5t38 15.5q23 0 39 -15.5t16 -38.5t-16 -38.5t-39 -15.5z" />
    <glyph glyph-name="uni1455" unicode="&#x1455;" horiz-adv-x="606" 
d="M392 0q-157 0 -243.5 91t-86.5 254t86.5 254t244.5 91h157v-87h-154q-115 0 -177 -66.5t-62 -191.5t62 -191.5t178 -66.5h153v-87h-158z" />
    <glyph glyph-name="uni1456" unicode="&#x1456;" horiz-adv-x="606" 
d="M392 0q-157 0 -243.5 91t-86.5 254t86.5 254t244.5 91h157v-87h-154q-115 0 -177 -66.5t-62 -191.5t62 -191.5t178 -66.5h153v-87h-158zM332 780q-22 0 -38.5 16t-16.5 39t16.5 38.5t38.5 15.5q23 0 39 -15.5t16 -38.5t-16 -39t-39 -16z" />
    <glyph glyph-name="uni1457" unicode="&#x1457;" horiz-adv-x="937" 
d="M112 299q-23 0 -39 16.5t-16 39.5t16 39t39 16t39 -16t16 -39t-16 -39.5t-39 -16.5zM580 -13q-89 0 -153.5 37t-99 106.5t-34.5 168.5v391h95v-390q0 -109 51.5 -167t140.5 -58q92 0 142.5 57t50.5 168v390h95v-388q0 -150 -76.5 -232.5t-211.5 -82.5z" />
    <glyph glyph-name="uni1458" unicode="&#x1458;" horiz-adv-x="937" 
d="M356 -13q-89 0 -153.5 37t-99 106.5t-34.5 168.5v391h95v-390q0 -109 51.5 -167t140.5 -58q92 0 142.5 57t50.5 168v390h95v-388q0 -150 -76.5 -232.5t-211.5 -82.5zM825 299q-23 0 -39 16.5t-16 39.5t16 39t39 16t39 -16t16 -39t-16 -39.5t-39 -16.5z" />
    <glyph glyph-name="uni1459" unicode="&#x1459;" horiz-adv-x="937" 
d="M112 299q-23 0 -39 16.5t-16 39.5t16 39t39 16t39 -16t16 -39t-16 -39.5t-39 -16.5zM293 0v387q0 101 35 171t100.5 107t154.5 37q132 0 208.5 -81.5t76.5 -230.5v-390h-95v389q0 110 -51 167.5t-140 57.5q-91 0 -142.5 -57.5t-51.5 -167.5v-389h-95z" />
    <glyph glyph-name="uni145A" unicode="&#x145a;" horiz-adv-x="937" 
d="M69 0v387q0 101 35 171t100.5 107t154.5 37q132 0 208.5 -81.5t76.5 -230.5v-390h-95v389q0 110 -51 167.5t-140 57.5q-91 0 -142.5 -57.5t-51.5 -167.5v-389h-95zM825 299q-23 0 -39 16.5t-16 39.5t16 39t39 16t39 -16t16 -39t-16 -39.5t-39 -16.5z" />
    <glyph glyph-name="uni145B" unicode="&#x145b;" horiz-adv-x="937" 
d="M112 299q-23 0 -39 16.5t-16 39.5t16 39t39 16t39 -16t16 -39t-16 -39.5t-39 -16.5zM293 0v387q0 101 35 171t100.5 107t154.5 37q132 0 208.5 -81.5t76.5 -230.5v-390h-95v389q0 110 -51 167.5t-140 57.5q-91 0 -142.5 -57.5t-51.5 -167.5v-389h-95zM580 780
q-22 0 -38.5 16t-16.5 39t16.5 38.5t38.5 15.5q23 0 39 -15.5t16 -38.5t-16 -39t-39 -16z" />
    <glyph glyph-name="uni145C" unicode="&#x145c;" horiz-adv-x="937" 
d="M69 0v387q0 101 35 171t100.5 107t154.5 37q132 0 208.5 -81.5t76.5 -230.5v-390h-95v389q0 110 -51 167.5t-140 57.5q-91 0 -142.5 -57.5t-51.5 -167.5v-389h-95zM356 780q-22 0 -38.5 16t-16.5 39t16.5 38.5t38.5 15.5q23 0 39 -15.5t16 -38.5t-16 -39t-39 -16z
M825 299q-23 0 -39 16.5t-16 39.5t16 39t39 16t39 -16t16 -39t-16 -39.5t-39 -16.5z" />
    <glyph glyph-name="uni145D" unicode="&#x145d;" horiz-adv-x="831" 
d="M112 299q-23 0 -39 16.5t-16 39.5t16 39t39 16t39 -16t16 -39t-16 -39.5t-39 -16.5zM280 0v87h155q115 0 176 67t61 192t-61.5 191t-177.5 66h-153v87h156q160 0 246.5 -90.5t86.5 -253.5t-86.5 -254.5t-244.5 -91.5h-158z" />
    <glyph glyph-name="uni145E" unicode="&#x145e;" horiz-adv-x="831" 
d="M56 0v87h155q115 0 176 67t61 192t-61.5 191t-177.5 66h-153v87h156q160 0 246.5 -90.5t86.5 -253.5t-86.5 -254.5t-244.5 -91.5h-158zM719 299q-23 0 -39 16.5t-16 39.5t16 39t39 16t39 -16t16 -39t-16 -39.5t-39 -16.5z" />
    <glyph glyph-name="uni145F" unicode="&#x145f;" horiz-adv-x="831" 
d="M112 299q-23 0 -39 16.5t-16 39.5t16 39t39 16t39 -16t16 -39t-16 -39.5t-39 -16.5zM280 0v87h155q115 0 176 67t61 192t-61.5 191t-177.5 66h-153v87h156q160 0 246.5 -90.5t86.5 -253.5t-86.5 -254.5t-244.5 -91.5h-158zM498 780q-22 0 -38.5 16t-16.5 39t16.5 38.5
t38.5 15.5q23 0 39 -15.5t16 -38.5t-16 -39t-39 -16z" />
    <glyph glyph-name="uni1460" unicode="&#x1460;" horiz-adv-x="831" 
d="M56 0v87h155q115 0 176 67t61 192t-61.5 191t-177.5 66h-153v87h156q160 0 246.5 -90.5t86.5 -253.5t-86.5 -254.5t-244.5 -91.5h-158zM274 780q-22 0 -38.5 16t-16.5 39t16.5 38.5t38.5 15.5q23 0 39 -15.5t16 -38.5t-16 -39t-39 -16zM719 299q-23 0 -39 16.5t-16 39.5
t16 39t39 16t39 -16t16 -39t-16 -39.5t-39 -16.5z" />
    <glyph glyph-name="uni1461" unicode="&#x1461;" horiz-adv-x="830" 
d="M112 299q-23 0 -39 16.5t-16 39.5t16 39t39 16t39 -16t16 -39t-16 -39.5t-39 -16.5zM616 0q-157 0 -243.5 91t-86.5 254t86.5 254t244.5 91h157v-87h-154q-115 0 -177 -66.5t-62 -191.5t62 -191.5t178 -66.5h153v-87h-158z" />
    <glyph glyph-name="uni1462" unicode="&#x1462;" horiz-adv-x="830" 
d="M392 0q-157 0 -243.5 91t-86.5 254t86.5 254t244.5 91h157v-87h-154q-115 0 -177 -66.5t-62 -191.5t62 -191.5t178 -66.5h153v-87h-158zM718 299q-23 0 -39 16.5t-16 39.5t16 39t39 16t39 -16t16 -39t-16 -39.5t-39 -16.5z" />
    <glyph glyph-name="uni1463" unicode="&#x1463;" horiz-adv-x="830" 
d="M112 299q-23 0 -39 16.5t-16 39.5t16 39t39 16t39 -16t16 -39t-16 -39.5t-39 -16.5zM616 0q-157 0 -243.5 91t-86.5 254t86.5 254t244.5 91h157v-87h-154q-115 0 -177 -66.5t-62 -191.5t62 -191.5t178 -66.5h153v-87h-158zM556 780q-22 0 -38.5 16t-16.5 39t16.5 38.5
t38.5 15.5q23 0 39 -15.5t16 -38.5t-16 -39t-39 -16z" />
    <glyph glyph-name="uni1464" unicode="&#x1464;" horiz-adv-x="830" 
d="M392 0q-157 0 -243.5 91t-86.5 254t86.5 254t244.5 91h157v-87h-154q-115 0 -177 -66.5t-62 -191.5t62 -191.5t178 -66.5h153v-87h-158zM332 780q-22 0 -38.5 16t-16.5 39t16.5 38.5t38.5 15.5q23 0 39 -15.5t16 -38.5t-16 -39t-39 -16zM718 299q-23 0 -39 16.5t-16 39.5
t16 39t39 16t39 -16t16 -39t-16 -39.5t-39 -16.5z" />
    <glyph glyph-name="uni1465" unicode="&#x1465;" horiz-adv-x="830" 
d="M112 382q-23 0 -39 15.5t-16 38.5t16 39t39 16t39 -16t16 -39q0 -22 -16 -38t-39 -16zM112 199q-23 0 -39 16t-16 39t16 38.5t39 15.5t39 -15.5t16 -38.5t-16 -39t-39 -16zM616 0q-157 0 -243.5 91t-86.5 254t86.5 254t244.5 91h157v-87h-154q-115 0 -177 -66.5
t-62 -191.5t62 -191.5t178 -66.5h153v-87h-158z" />
    <glyph glyph-name="uni1466" unicode="&#x1466;" horiz-adv-x="369" 
d="M233 345q-83 0 -128 46.5t-45 125.5q0 80 45 126.5t127 46.5h76v-64h-71q-54 0 -81.5 -28.5t-27.5 -80.5q0 -53 27.5 -80.5t81.5 -27.5h71v-64h-75z" />
    <glyph glyph-name="uni1467" unicode="&#x1467;" horiz-adv-x="909" 
d="M356 -13q-89 0 -153.5 37t-99 106.5t-34.5 168.5v391h95v-390q0 -109 51.5 -167t140.5 -58q92 0 142.5 57t50.5 168v390h95v-388q0 -150 -76.5 -232.5t-211.5 -82.5zM777 345v345h68v-345h-68z" />
    <glyph glyph-name="uni1468" unicode="&#x1468;" horiz-adv-x="909" 
d="M69 0v387q0 101 35 171t100.5 107t154.5 37q132 0 208.5 -81.5t76.5 -230.5v-390h-95v389q0 110 -51 167.5t-140 57.5q-91 0 -142.5 -57.5t-51.5 -167.5v-389h-95zM777 345v345h68v-345h-68z" />
    <glyph glyph-name="uni1469" unicode="&#x1469;" horiz-adv-x="803" 
d="M56 0v87h155q115 0 176 67t61 192t-61.5 191t-177.5 66h-153v87h156q160 0 246.5 -90.5t86.5 -253.5t-86.5 -254.5t-244.5 -91.5h-158zM671 345v345h68v-345h-68z" />
    <glyph glyph-name="uni146A" unicode="&#x146a;" horiz-adv-x="802" 
d="M392 0q-157 0 -243.5 91t-86.5 254t86.5 254t244.5 91h157v-87h-154q-115 0 -177 -66.5t-62 -191.5t62 -191.5t178 -66.5h153v-87h-158zM670 345v345h68v-345h-68z" />
    <glyph glyph-name="uni146B" unicode="&#x146b;" horiz-adv-x="587" 
d="M421 0v313l10 -13q-10 -43 -52 -72.5t-102 -29.5q-64 0 -113 31t-76.5 87t-27.5 131q0 79 28.5 136t80.5 88t122 31q106 0 166.5 -68.5t60.5 -190.5v-443h-97zM289 280q62 0 98 44.5t36 125.5q0 83 -35.5 126.5t-98.5 43.5t-98.5 -44t-35.5 -126t36.5 -126t97.5 -44z" />
    <glyph glyph-name="uni146C" unicode="&#x146c;" horiz-adv-x="586" 
d="M69 0v443q0 81 27.5 139t79 89t122.5 31q69 0 120.5 -30.5t79.5 -87t28 -134.5q0 -76 -27 -133t-76 -88t-114 -31q-60 0 -101.5 29.5t-52.5 72.5l9 13v-313h-95zM297 280q62 0 98.5 44t36.5 126t-36 126t-99 44t-99 -43.5t-36 -126.5q0 -81 36.5 -125.5t98.5 -44.5z
M297 757q-28 0 -52 13t-38.5 36t-14.5 53q0 45 31 73.5t74 28.5q28 0 51.5 -13t38 -36t14.5 -53t-14.5 -53t-38 -36t-51.5 -13zM297 802q25 0 40.5 16.5t15.5 40.5t-15.5 40.5t-40.5 16.5t-40.5 -16.5t-15.5 -40.5t15 -40.5t41 -16.5z" />
    <glyph glyph-name="uni146D" unicode="&#x146d;" horiz-adv-x="586" 
d="M69 0v443q0 81 27.5 139t79 89t122.5 31q69 0 120.5 -30.5t79.5 -87t28 -134.5q0 -76 -27 -133t-76 -88t-114 -31q-60 0 -101.5 29.5t-52.5 72.5l9 13v-313h-95zM297 280q62 0 98.5 44t36.5 126t-36 126t-99 44t-99 -43.5t-36 -126.5q0 -81 36.5 -125.5t98.5 -44.5z" />
    <glyph glyph-name="uni146E" unicode="&#x146e;" horiz-adv-x="586" 
d="M69 0v443q0 81 27.5 139t79 89t122.5 31q69 0 120.5 -30.5t79.5 -87t28 -134.5q0 -76 -27 -133t-76 -88t-114 -31q-60 0 -101.5 29.5t-52.5 72.5l9 13v-313h-95zM297 280q62 0 98.5 44t36.5 126t-36 126t-99 44t-99 -43.5t-36 -126.5q0 -81 36.5 -125.5t98.5 -44.5z
M297 780q-22 0 -38.5 16t-16.5 39t16.5 38.5t38.5 15.5q23 0 39 -15.5t16 -38.5t-16 -39t-39 -16z" />
    <glyph glyph-name="uni146F" unicode="&#x146f;" horiz-adv-x="587" 
d="M289 -13q-70 0 -121.5 30.5t-79.5 87t-28 133.5t27.5 134t76.5 88.5t114 31.5q59 0 101 -29.5t52 -73.5l-10 -12v313h97v-444q0 -121 -61 -190t-168 -69zM289 70q63 0 98.5 43.5t35.5 126.5q0 81 -36 125.5t-98 44.5q-61 0 -97.5 -44t-36.5 -126t35.5 -126t98.5 -44z" />
    <glyph glyph-name="uni1470" unicode="&#x1470;" horiz-adv-x="587" 
d="M289 -13q-70 0 -121.5 30.5t-79.5 87t-28 133.5t27.5 134t76.5 88.5t114 31.5q59 0 101 -29.5t52 -73.5l-10 -12v313h97v-444q0 -121 -61 -190t-168 -69zM289 70q63 0 98.5 43.5t35.5 126.5q0 81 -36 125.5t-98 44.5q-61 0 -97.5 -44t-36.5 -126t35.5 -126t98.5 -44z
M470 780q-22 0 -38.5 16t-16.5 39t16.5 38.5t38.5 15.5q23 0 39 -15.5t16 -38.5t-16 -39t-39 -16z" />
    <glyph glyph-name="uni1471" unicode="&#x1471;" horiz-adv-x="587" 
d="M289 -13q-70 0 -121.5 30.5t-79.5 87t-28 133.5t27.5 134t76.5 88.5t114 31.5q59 0 101 -29.5t52 -73.5l-10 -12v313h97v-444q0 -121 -61 -190t-168 -69zM289 70q63 0 98.5 43.5t35.5 126.5q0 81 -36 125.5t-98 44.5q-61 0 -97.5 -44t-36.5 -126t35.5 -126t98.5 -44z
M470 780q-23 0 -39.5 16t-16.5 39t16.5 38.5t39.5 15.5t39 -15.5t16 -38.5t-16 -39t-39 -16zM296 780q-23 0 -39 16t-16 39t16 38.5t39 15.5t39 -15.5t16 -38.5t-16 -39t-39 -16z" />
    <glyph glyph-name="uni1472" unicode="&#x1472;" horiz-adv-x="586" 
d="M296 -13q-106 0 -166.5 69t-60.5 190v444h95v-313l-9 12q11 44 53 73.5t103 29.5q64 0 112.5 -31t75.5 -87t27 -132q0 -79 -28.5 -136t-80 -88t-121.5 -31zM297 70q63 0 99 44t36 126t-36.5 126t-98.5 44t-98.5 -44.5t-36.5 -125.5q0 -83 36 -126.5t99 -43.5z" />
    <glyph glyph-name="uni1473" unicode="&#x1473;" horiz-adv-x="586" 
d="M296 -13q-106 0 -166.5 69t-60.5 190v444h95v-313l-9 12q11 44 53 73.5t103 29.5q64 0 112.5 -31t75.5 -87t27 -132q0 -79 -28.5 -136t-80 -88t-121.5 -31zM297 70q63 0 99 44t36 126t-36.5 126t-98.5 44t-98.5 -44.5t-36.5 -125.5q0 -83 36 -126.5t99 -43.5zM116 780
q-22 0 -38.5 16t-16.5 39t16.5 38.5t38.5 15.5q23 0 39 -15.5t16 -38.5t-16 -39t-39 -16z" />
    <glyph glyph-name="uni1474" unicode="&#x1474;" horiz-adv-x="811" 
d="M112 299q-23 0 -39 16.5t-16 39.5t16 39t39 16t39 -16t16 -39t-16 -39.5t-39 -16.5zM645 0v313l10 -13q-10 -43 -52 -72.5t-102 -29.5q-64 0 -113 31t-76.5 87t-27.5 131q0 79 28.5 136t80.5 88t122 31q106 0 166.5 -68.5t60.5 -190.5v-443h-97zM513 280q62 0 98 44.5
t36 125.5q0 83 -35.5 126.5t-98.5 43.5t-98.5 -44t-35.5 -126t36.5 -126t97.5 -44z" />
    <glyph glyph-name="uni1475" unicode="&#x1475;" horiz-adv-x="811" 
d="M421 0v313l10 -13q-10 -43 -52 -72.5t-102 -29.5q-64 0 -113 31t-76.5 87t-27.5 131q0 79 28.5 136t80.5 88t122 31q106 0 166.5 -68.5t60.5 -190.5v-443h-97zM289 280q62 0 98 44.5t36 125.5q0 83 -35.5 126.5t-98.5 43.5t-98.5 -44t-35.5 -126t36.5 -126t97.5 -44z
M699 299q-23 0 -39 16.5t-16 39.5t16 39t39 16t39 -16t16 -39t-16 -39.5t-39 -16.5z" />
    <glyph glyph-name="uni1476" unicode="&#x1476;" horiz-adv-x="810" 
d="M112 299q-23 0 -39 16.5t-16 39.5t16 39t39 16t39 -16t16 -39t-16 -39.5t-39 -16.5zM293 0v443q0 81 27.5 139t79 89t122.5 31q69 0 120.5 -30.5t79.5 -87t28 -134.5q0 -76 -27 -133t-76 -88t-114 -31q-60 0 -101.5 29.5t-52.5 72.5l9 13v-313h-95zM521 280q62 0 98.5 44
t36.5 126t-36 126t-99 44t-99 -43.5t-36 -126.5q0 -81 36.5 -125.5t98.5 -44.5z" />
    <glyph glyph-name="uni1477" unicode="&#x1477;" horiz-adv-x="810" 
d="M69 0v443q0 81 27.5 139t79 89t122.5 31q69 0 120.5 -30.5t79.5 -87t28 -134.5q0 -76 -27 -133t-76 -88t-114 -31q-60 0 -101.5 29.5t-52.5 72.5l9 13v-313h-95zM297 280q62 0 98.5 44t36.5 126t-36 126t-99 44t-99 -43.5t-36 -126.5q0 -81 36.5 -125.5t98.5 -44.5z
M698 299q-23 0 -39 16.5t-16 39.5t16 39t39 16t39 -16t16 -39t-16 -39.5t-39 -16.5z" />
    <glyph glyph-name="uni1478" unicode="&#x1478;" horiz-adv-x="810" 
d="M112 299q-23 0 -39 16.5t-16 39.5t16 39t39 16t39 -16t16 -39t-16 -39.5t-39 -16.5zM293 0v443q0 81 27.5 139t79 89t122.5 31q69 0 120.5 -30.5t79.5 -87t28 -134.5q0 -76 -27 -133t-76 -88t-114 -31q-60 0 -101.5 29.5t-52.5 72.5l9 13v-313h-95zM521 280q62 0 98.5 44
t36.5 126t-36 126t-99 44t-99 -43.5t-36 -126.5q0 -81 36.5 -125.5t98.5 -44.5zM521 780q-22 0 -38.5 16t-16.5 39t16.5 38.5t38.5 15.5q23 0 39 -15.5t16 -38.5t-16 -39t-39 -16z" />
    <glyph glyph-name="uni1479" unicode="&#x1479;" horiz-adv-x="810" 
d="M69 0v443q0 81 27.5 139t79 89t122.5 31q69 0 120.5 -30.5t79.5 -87t28 -134.5q0 -76 -27 -133t-76 -88t-114 -31q-60 0 -101.5 29.5t-52.5 72.5l9 13v-313h-95zM297 280q62 0 98.5 44t36.5 126t-36 126t-99 44t-99 -43.5t-36 -126.5q0 -81 36.5 -125.5t98.5 -44.5z
M297 780q-22 0 -38.5 16t-16.5 39t16.5 38.5t38.5 15.5q23 0 39 -15.5t16 -38.5t-16 -39t-39 -16zM698 299q-23 0 -39 16.5t-16 39.5t16 39t39 16t39 -16t16 -39t-16 -39.5t-39 -16.5z" />
    <glyph glyph-name="uni147A" unicode="&#x147a;" horiz-adv-x="811" 
d="M112 299q-23 0 -39 16.5t-16 39.5t16 39t39 16t39 -16t16 -39t-16 -39.5t-39 -16.5zM513 -13q-70 0 -121.5 30.5t-79.5 87t-28 133.5t27.5 134t76.5 88.5t114 31.5q59 0 101 -29.5t52 -73.5l-10 -12v313h97v-444q0 -121 -61 -190t-168 -69zM513 70q63 0 98.5 43.5
t35.5 126.5q0 81 -36 125.5t-98 44.5q-61 0 -97.5 -44t-36.5 -126t35.5 -126t98.5 -44z" />
    <glyph glyph-name="uni147B" unicode="&#x147b;" horiz-adv-x="811" 
d="M289 -13q-70 0 -121.5 30.5t-79.5 87t-28 133.5t27.5 134t76.5 88.5t114 31.5q59 0 101 -29.5t52 -73.5l-10 -12v313h97v-444q0 -121 -61 -190t-168 -69zM289 70q63 0 98.5 43.5t35.5 126.5q0 81 -36 125.5t-98 44.5q-61 0 -97.5 -44t-36.5 -126t35.5 -126t98.5 -44z
M699 299q-23 0 -39 16.5t-16 39.5t16 39t39 16t39 -16t16 -39t-16 -39.5t-39 -16.5z" />
    <glyph glyph-name="uni147C" unicode="&#x147c;" horiz-adv-x="811" 
d="M112 299q-23 0 -39 16.5t-16 39.5t16 39t39 16t39 -16t16 -39t-16 -39.5t-39 -16.5zM513 -13q-70 0 -121.5 30.5t-79.5 87t-28 133.5t27.5 134t76.5 88.5t114 31.5q59 0 101 -29.5t52 -73.5l-10 -12v313h97v-444q0 -121 -61 -190t-168 -69zM513 70q63 0 98.5 43.5
t35.5 126.5q0 81 -36 125.5t-98 44.5q-61 0 -97.5 -44t-36.5 -126t35.5 -126t98.5 -44zM694 780q-22 0 -38.5 16t-16.5 39t16.5 38.5t38.5 15.5q23 0 39 -15.5t16 -38.5t-16 -39t-39 -16z" />
    <glyph glyph-name="uni147D" unicode="&#x147d;" horiz-adv-x="811" 
d="M289 -13q-70 0 -121.5 30.5t-79.5 87t-28 133.5t27.5 134t76.5 88.5t114 31.5q59 0 101 -29.5t52 -73.5l-10 -12v313h97v-444q0 -121 -61 -190t-168 -69zM289 70q63 0 98.5 43.5t35.5 126.5q0 81 -36 125.5t-98 44.5q-61 0 -97.5 -44t-36.5 -126t35.5 -126t98.5 -44z
M470 780q-22 0 -38.5 16t-16.5 39t16.5 38.5t38.5 15.5q23 0 39 -15.5t16 -38.5t-16 -39t-39 -16zM699 299q-23 0 -39 16.5t-16 39.5t16 39t39 16t39 -16t16 -39t-16 -39.5t-39 -16.5z" />
    <glyph glyph-name="uni147E" unicode="&#x147e;" horiz-adv-x="810" 
d="M112 299q-23 0 -39 16.5t-16 39.5t16 39t39 16t39 -16t16 -39t-16 -39.5t-39 -16.5zM520 -13q-106 0 -166.5 69t-60.5 190v444h95v-313l-9 12q11 44 53 73.5t103 29.5q64 0 112.5 -31t75.5 -87t27 -132q0 -79 -28.5 -136t-80 -88t-121.5 -31zM521 70q63 0 99 44t36 126
t-36.5 126t-98.5 44t-98.5 -44.5t-36.5 -125.5q0 -83 36 -126.5t99 -43.5z" />
    <glyph glyph-name="uni147F" unicode="&#x147f;" horiz-adv-x="810" 
d="M296 -13q-106 0 -166.5 69t-60.5 190v444h95v-313l-9 12q11 44 53 73.5t103 29.5q64 0 112.5 -31t75.5 -87t27 -132q0 -79 -28.5 -136t-80 -88t-121.5 -31zM297 70q63 0 99 44t36 126t-36.5 126t-98.5 44t-98.5 -44.5t-36.5 -125.5q0 -83 36 -126.5t99 -43.5zM698 299
q-23 0 -39 16.5t-16 39.5t16 39t39 16t39 -16t16 -39t-16 -39.5t-39 -16.5z" />
    <glyph glyph-name="uni1480" unicode="&#x1480;" horiz-adv-x="810" 
d="M112 299q-23 0 -39 16.5t-16 39.5t16 39t39 16t39 -16t16 -39t-16 -39.5t-39 -16.5zM520 -13q-106 0 -166.5 69t-60.5 190v444h95v-313l-9 12q11 44 53 73.5t103 29.5q64 0 112.5 -31t75.5 -87t27 -132q0 -79 -28.5 -136t-80 -88t-121.5 -31zM521 70q63 0 99 44t36 126
t-36.5 126t-98.5 44t-98.5 -44.5t-36.5 -125.5q0 -83 36 -126.5t99 -43.5zM340 780q-22 0 -38.5 16t-16.5 39t16.5 38.5t38.5 15.5q23 0 39 -15.5t16 -38.5t-16 -39t-39 -16z" />
    <glyph glyph-name="uni1481" unicode="&#x1481;" horiz-adv-x="810" 
d="M296 -13q-106 0 -166.5 69t-60.5 190v444h95v-313l-9 12q11 44 53 73.5t103 29.5q64 0 112.5 -31t75.5 -87t27 -132q0 -79 -28.5 -136t-80 -88t-121.5 -31zM297 70q63 0 99 44t36 126t-36.5 126t-98.5 44t-98.5 -44.5t-36.5 -125.5q0 -83 36 -126.5t99 -43.5zM116 780
q-22 0 -38.5 16t-16.5 39t16.5 38.5t38.5 15.5q23 0 39 -15.5t16 -38.5t-16 -39t-39 -16zM698 299q-23 0 -39 16.5t-16 39.5t16 39t39 16t39 -16t16 -39t-16 -39.5t-39 -16.5z" />
    <glyph glyph-name="uni1482" unicode="&#x1482;" horiz-adv-x="810" 
d="M112 382q-23 0 -39 15.5t-16 38.5t16 39t39 16t39 -16t16 -39q0 -22 -16 -38t-39 -16zM112 199q-23 0 -39 16t-16 39t16 38.5t39 15.5t39 -15.5t16 -38.5t-16 -39t-39 -16zM520 -13q-106 0 -166.5 69t-60.5 190v444h95v-313l-9 12q11 44 53 73.5t103 29.5q64 0 112.5 -31
t75.5 -87t27 -132q0 -79 -28.5 -136t-80 -88t-121.5 -31zM521 70q63 0 99 44t36 126t-36.5 126t-98.5 44t-98.5 -44.5t-36.5 -125.5q0 -83 36 -126.5t99 -43.5z" />
    <glyph glyph-name="uni1483" unicode="&#x1483;" horiz-adv-x="373" 
d="M193 339q-59 0 -94 36t-35 98v217h68v-161l-15 5q6 29 29.5 48t57.5 19q49 0 82 -34.5t33 -94.5q0 -63 -36.5 -98t-89.5 -35zM192 390q29 0 47 21t18 59q0 39 -18.5 59.5t-47.5 20.5q-27 0 -45.5 -20.5t-18.5 -59.5q0 -40 17.5 -60t47.5 -20z" />
    <glyph glyph-name="uni1484" unicode="&#x1484;" horiz-adv-x="373" 
d="M180 339q-53 0 -89.5 35t-36.5 98q0 60 33 94.5t82 34.5q34 0 57.5 -19t29.5 -48l-15 -5v161h68v-217q0 -62 -35 -98t-94 -36zM181 390q30 0 47 20t17 60q0 39 -18 59.5t-46 20.5t-46.5 -20.5t-18.5 -59.5q0 -38 18 -59t47 -21z" />
    <glyph glyph-name="uni1485" unicode="&#x1485;" horiz-adv-x="783" 
d="M421 0v313l10 -13q-10 -43 -52 -72.5t-102 -29.5q-64 0 -113 31t-76.5 87t-27.5 131q0 79 28.5 136t80.5 88t122 31q106 0 166.5 -68.5t60.5 -190.5v-443h-97zM289 280q62 0 98 44.5t36 125.5q0 83 -35.5 126.5t-98.5 43.5t-98.5 -44t-35.5 -126t36.5 -126t97.5 -44z
M651 345v345h68v-345h-68z" />
    <glyph glyph-name="uni1486" unicode="&#x1486;" horiz-adv-x="782" 
d="M69 0v443q0 81 27.5 139t79 89t122.5 31q69 0 120.5 -30.5t79.5 -87t28 -134.5q0 -76 -27 -133t-76 -88t-114 -31q-60 0 -101.5 29.5t-52.5 72.5l9 13v-313h-95zM297 280q62 0 98.5 44t36.5 126t-36 126t-99 44t-99 -43.5t-36 -126.5q0 -81 36.5 -125.5t98.5 -44.5z
M650 345v345h68v-345h-68z" />
    <glyph glyph-name="uni1487" unicode="&#x1487;" horiz-adv-x="783" 
d="M289 -13q-70 0 -121.5 30.5t-79.5 87t-28 133.5t27.5 134t76.5 88.5t114 31.5q59 0 101 -29.5t52 -73.5l-10 -12v313h97v-444q0 -121 -61 -190t-168 -69zM289 70q63 0 98.5 43.5t35.5 126.5q0 81 -36 125.5t-98 44.5q-61 0 -97.5 -44t-36.5 -126t35.5 -126t98.5 -44z
M651 345v345h68v-345h-68z" />
    <glyph glyph-name="uni1488" unicode="&#x1488;" horiz-adv-x="782" 
d="M296 -13q-106 0 -166.5 69t-60.5 190v444h95v-313l-9 12q11 44 53 73.5t103 29.5q64 0 112.5 -31t75.5 -87t27 -132q0 -79 -28.5 -136t-80 -88t-121.5 -31zM297 70q63 0 99 44t36 126t-36.5 126t-98.5 44t-98.5 -44.5t-36.5 -125.5q0 -83 36 -126.5t99 -43.5zM650 345
v345h68v-345h-68z" />
    <glyph glyph-name="uni1489" unicode="&#x1489;" horiz-adv-x="582" 
d="M416 0v457q0 77 -33.5 119t-95.5 42q-64 0 -98 -42t-34 -119v-70h-96v62q0 119 61.5 186t168.5 67q105 0 164.5 -66.5t59.5 -187.5v-448h-97z" />
    <glyph glyph-name="uni148A" unicode="&#x148a;" horiz-adv-x="581" 
d="M69 0v448q0 119 60 186.5t169 67.5q106 0 165 -67t59 -186v-62h-96v71q0 77 -33 118.5t-96 41.5t-98 -42t-35 -119v-457h-95zM298 757q-28 0 -52 13t-38.5 36t-14.5 53q0 45 31 73.5t74 28.5q28 0 51.5 -13t38 -36t14.5 -53t-14.5 -53t-38 -36t-51.5 -13zM298 802
q25 0 40.5 16.5t15.5 40.5t-15.5 40.5t-40.5 16.5t-40.5 -16.5t-15.5 -40.5t15 -40.5t41 -16.5z" />
    <glyph glyph-name="uni148B" unicode="&#x148b;" horiz-adv-x="581" 
d="M69 0v448q0 119 60 186.5t169 67.5q106 0 165 -67t59 -186v-62h-96v71q0 77 -33 118.5t-96 41.5t-98 -42t-35 -119v-457h-95z" />
    <glyph glyph-name="uni148C" unicode="&#x148c;" horiz-adv-x="581" 
d="M69 0v448q0 119 60 186.5t169 67.5q106 0 165 -67t59 -186v-62h-96v71q0 77 -33 118.5t-96 41.5t-98 -42t-35 -119v-457h-95zM298 780q-22 0 -38.5 16t-16.5 39t16.5 38.5t38.5 15.5q23 0 39 -15.5t16 -38.5t-16 -39t-39 -16z" />
    <glyph glyph-name="uni148D" unicode="&#x148d;" horiz-adv-x="582" 
d="M289 -13q-110 0 -170 67.5t-60 185.5v62h96v-66q0 -80 33.5 -122.5t98.5 -42.5q62 0 95.5 41.5t33.5 120.5v457h97v-448q0 -122 -60 -188.5t-164 -66.5z" />
    <glyph glyph-name="uni148E" unicode="&#x148e;" horiz-adv-x="582" 
d="M289 -13q-110 0 -170 67.5t-60 185.5v62h96v-66q0 -80 33.5 -122.5t98.5 -42.5q62 0 95.5 41.5t33.5 120.5v457h97v-448q0 -122 -60 -188.5t-164 -66.5zM465 780q-22 0 -38.5 16t-16.5 39t16.5 38.5t38.5 15.5q23 0 39 -15.5t16 -38.5t-16 -39t-39 -16z" />
    <glyph glyph-name="uni148F" unicode="&#x148f;" horiz-adv-x="582" 
d="M289 -13q-110 0 -170 67.5t-60 185.5v62h96v-66q0 -80 33.5 -122.5t98.5 -42.5q62 0 95.5 41.5t33.5 120.5v457h97v-448q0 -122 -60 -188.5t-164 -66.5zM465 780q-23 0 -39.5 16t-16.5 39t16.5 38.5t39.5 15.5t39 -15.5t16 -38.5t-16 -39t-39 -16zM291 780q-23 0 -39 16
t-16 39t16 38.5t39 15.5t39 -15.5t16 -38.5t-16 -39t-39 -16z" />
    <glyph glyph-name="uni1490" unicode="&#x1490;" horiz-adv-x="581" 
d="M296 -13q-109 0 -168 67t-59 188v448h95v-455q0 -79 34.5 -121.5t98.5 -42.5q63 0 96 42t33 122v67h96v-61q0 -120 -59.5 -187t-166.5 -67z" />
    <glyph glyph-name="uni1491" unicode="&#x1491;" horiz-adv-x="581" 
d="M296 -13q-109 0 -168 67t-59 188v448h95v-455q0 -79 34.5 -121.5t98.5 -42.5q63 0 96 42t33 122v67h96v-61q0 -120 -59.5 -187t-166.5 -67zM117 780q-22 0 -38.5 16t-16.5 39t16.5 38.5t38.5 15.5q23 0 39 -15.5t16 -38.5t-16 -39t-39 -16z" />
    <glyph glyph-name="uni1492" unicode="&#x1492;" horiz-adv-x="806" 
d="M112 299q-23 0 -39 16.5t-16 39.5t16 39t39 16t39 -16t16 -39t-16 -39.5t-39 -16.5zM640 0v457q0 77 -33.5 119t-95.5 42q-64 0 -98 -42t-34 -119v-70h-96v62q0 119 61.5 186t168.5 67q105 0 164.5 -66.5t59.5 -187.5v-448h-97z" />
    <glyph glyph-name="uni1493" unicode="&#x1493;" horiz-adv-x="806" 
d="M416 0v457q0 77 -33.5 119t-95.5 42q-64 0 -98 -42t-34 -119v-70h-96v62q0 119 61.5 186t168.5 67q105 0 164.5 -66.5t59.5 -187.5v-448h-97zM694 299q-23 0 -39 16.5t-16 39.5t16 39t39 16t39 -16t16 -39t-16 -39.5t-39 -16.5z" />
    <glyph glyph-name="uni1494" unicode="&#x1494;" horiz-adv-x="805" 
d="M112 299q-23 0 -39 16.5t-16 39.5t16 39t39 16t39 -16t16 -39t-16 -39.5t-39 -16.5zM293 0v448q0 119 60 186.5t169 67.5q106 0 165 -67t59 -186v-62h-96v71q0 77 -33 118.5t-96 41.5t-98 -42t-35 -119v-457h-95z" />
    <glyph glyph-name="uni1495" unicode="&#x1495;" horiz-adv-x="805" 
d="M69 0v448q0 119 60 186.5t169 67.5q106 0 165 -67t59 -186v-62h-96v71q0 77 -33 118.5t-96 41.5t-98 -42t-35 -119v-457h-95zM693 299q-23 0 -39 16.5t-16 39.5t16 39t39 16t39 -16t16 -39t-16 -39.5t-39 -16.5z" />
    <glyph glyph-name="uni1496" unicode="&#x1496;" horiz-adv-x="805" 
d="M112 299q-23 0 -39 16.5t-16 39.5t16 39t39 16t39 -16t16 -39t-16 -39.5t-39 -16.5zM293 0v448q0 119 60 186.5t169 67.5q106 0 165 -67t59 -186v-62h-96v71q0 77 -33 118.5t-96 41.5t-98 -42t-35 -119v-457h-95zM522 780q-22 0 -38.5 16t-16.5 39t16.5 38.5t38.5 15.5
q23 0 39 -15.5t16 -38.5t-16 -39t-39 -16z" />
    <glyph glyph-name="uni1497" unicode="&#x1497;" horiz-adv-x="805" 
d="M69 0v448q0 119 60 186.5t169 67.5q106 0 165 -67t59 -186v-62h-96v71q0 77 -33 118.5t-96 41.5t-98 -42t-35 -119v-457h-95zM298 780q-22 0 -38.5 16t-16.5 39t16.5 38.5t38.5 15.5q23 0 39 -15.5t16 -38.5t-16 -39t-39 -16zM693 299q-23 0 -39 16.5t-16 39.5t16 39
t39 16t39 -16t16 -39t-16 -39.5t-39 -16.5z" />
    <glyph glyph-name="uni1498" unicode="&#x1498;" horiz-adv-x="806" 
d="M112 299q-23 0 -39 16.5t-16 39.5t16 39t39 16t39 -16t16 -39t-16 -39.5t-39 -16.5zM513 -13q-110 0 -170 67.5t-60 185.5v62h96v-66q0 -80 33.5 -122.5t98.5 -42.5q62 0 95.5 41.5t33.5 120.5v457h97v-448q0 -122 -60 -188.5t-164 -66.5z" />
    <glyph glyph-name="uni1499" unicode="&#x1499;" horiz-adv-x="806" 
d="M289 -13q-110 0 -170 67.5t-60 185.5v62h96v-66q0 -80 33.5 -122.5t98.5 -42.5q62 0 95.5 41.5t33.5 120.5v457h97v-448q0 -122 -60 -188.5t-164 -66.5zM694 299q-23 0 -39 16.5t-16 39.5t16 39t39 16t39 -16t16 -39t-16 -39.5t-39 -16.5z" />
    <glyph glyph-name="uni149A" unicode="&#x149a;" horiz-adv-x="806" 
d="M112 299q-23 0 -39 16.5t-16 39.5t16 39t39 16t39 -16t16 -39t-16 -39.5t-39 -16.5zM513 -13q-110 0 -170 67.5t-60 185.5v62h96v-66q0 -80 33.5 -122.5t98.5 -42.5q62 0 95.5 41.5t33.5 120.5v457h97v-448q0 -122 -60 -188.5t-164 -66.5zM689 780q-22 0 -38.5 16
t-16.5 39t16.5 38.5t38.5 15.5q23 0 39 -15.5t16 -38.5t-16 -39t-39 -16z" />
    <glyph glyph-name="uni149B" unicode="&#x149b;" horiz-adv-x="806" 
d="M289 -13q-110 0 -170 67.5t-60 185.5v62h96v-66q0 -80 33.5 -122.5t98.5 -42.5q62 0 95.5 41.5t33.5 120.5v457h97v-448q0 -122 -60 -188.5t-164 -66.5zM465 780q-22 0 -38.5 16t-16.5 39t16.5 38.5t38.5 15.5q23 0 39 -15.5t16 -38.5t-16 -39t-39 -16zM694 299
q-23 0 -39 16.5t-16 39.5t16 39t39 16t39 -16t16 -39t-16 -39.5t-39 -16.5z" />
    <glyph glyph-name="uni149C" unicode="&#x149c;" horiz-adv-x="805" 
d="M112 299q-23 0 -39 16.5t-16 39.5t16 39t39 16t39 -16t16 -39t-16 -39.5t-39 -16.5zM520 -13q-109 0 -168 67t-59 188v448h95v-455q0 -79 34.5 -121.5t98.5 -42.5q63 0 96 42t33 122v67h96v-61q0 -120 -59.5 -187t-166.5 -67z" />
    <glyph glyph-name="uni149D" unicode="&#x149d;" horiz-adv-x="805" 
d="M296 -13q-109 0 -168 67t-59 188v448h95v-455q0 -79 34.5 -121.5t98.5 -42.5q63 0 96 42t33 122v67h96v-61q0 -120 -59.5 -187t-166.5 -67zM693 299q-23 0 -39 16.5t-16 39.5t16 39t39 16t39 -16t16 -39t-16 -39.5t-39 -16.5z" />
    <glyph glyph-name="uni149E" unicode="&#x149e;" horiz-adv-x="805" 
d="M112 299q-23 0 -39 16.5t-16 39.5t16 39t39 16t39 -16t16 -39t-16 -39.5t-39 -16.5zM520 -13q-109 0 -168 67t-59 188v448h95v-455q0 -79 34.5 -121.5t98.5 -42.5q63 0 96 42t33 122v67h96v-61q0 -120 -59.5 -187t-166.5 -67zM341 780q-22 0 -38.5 16t-16.5 39t16.5 38.5
t38.5 15.5q23 0 39 -15.5t16 -38.5t-16 -39t-39 -16z" />
    <glyph glyph-name="uni149F" unicode="&#x149f;" horiz-adv-x="805" 
d="M296 -13q-109 0 -168 67t-59 188v448h95v-455q0 -79 34.5 -121.5t98.5 -42.5q63 0 96 42t33 122v67h96v-61q0 -120 -59.5 -187t-166.5 -67zM117 780q-22 0 -38.5 16t-16.5 39t16.5 38.5t38.5 15.5q23 0 39 -15.5t16 -38.5t-16 -39t-39 -16zM693 299q-23 0 -39 16.5
t-16 39.5t16 39t39 16t39 -16t16 -39t-16 -39.5t-39 -16.5z" />
    <glyph glyph-name="uni14A0" unicode="&#x14a0;" horiz-adv-x="805" 
d="M112 382q-23 0 -39 15.5t-16 38.5t16 39t39 16t39 -16t16 -39q0 -22 -16 -38t-39 -16zM112 199q-23 0 -39 16t-16 39t16 38.5t39 15.5t39 -15.5t16 -38.5t-16 -39t-39 -16zM520 -13q-109 0 -168 67t-59 188v448h95v-455q0 -79 34.5 -121.5t98.5 -42.5q63 0 96 42t33 122
v67h96v-61q0 -120 -59.5 -187t-166.5 -67z" />
    <glyph glyph-name="uni14A1" unicode="&#x14a1;" horiz-adv-x="363" 
d="M193 339q-61 0 -95 35t-34 102v214h68v-222q0 -38 16.5 -56.5t44.5 -18.5q29 0 46 18t17 52v24h64v-19q0 -62 -35 -95.5t-92 -33.5z" />
    <glyph glyph-name="uni14A2" unicode="&#x14a2;" horiz-adv-x="362" 
d="M170 339q-56 0 -91.5 33.5t-35.5 95.5v19h64v-24q0 -34 17 -52t46 -18q61 0 61 75v222h67v-214q0 -67 -33.5 -102t-94.5 -35z" />
    <glyph glyph-name="uni14A3" unicode="&#x14a3;" horiz-adv-x="527" 
d="M356 0v603h-316v87h412v-690h-96z" />
    <glyph glyph-name="uni14A4" unicode="&#x14a4;" horiz-adv-x="528" 
d="M75 0v690h413v-87h-316v-603h-97zM282 757q-28 0 -52 13t-38.5 36t-14.5 53q0 45 31 73.5t74 28.5q28 0 51.5 -13t38 -36t14.5 -53t-14.5 -53t-38 -36t-51.5 -13zM282 802q25 0 40.5 16.5t15.5 40.5t-15.5 40.5t-40.5 16.5t-40.5 -16.5t-15.5 -40.5t15 -40.5t41 -16.5z
" />
    <glyph glyph-name="uni14A5" unicode="&#x14a5;" horiz-adv-x="528" 
d="M75 0v690h413v-87h-316v-603h-97z" />
    <glyph glyph-name="uni14A6" unicode="&#x14a6;" horiz-adv-x="528" 
d="M75 0v690h413v-87h-316v-603h-97zM282 780q-22 0 -38.5 16t-16.5 39t16.5 38.5t38.5 15.5q23 0 39 -15.5t16 -38.5t-16 -39t-39 -16z" />
    <glyph glyph-name="uni14A7" unicode="&#x14a7;" horiz-adv-x="527" 
d="M40 0v87h316v603h96v-690h-412z" />
    <glyph glyph-name="uni14A8" unicode="&#x14a8;" horiz-adv-x="527" 
d="M40 0v87h316v603h96v-690h-412zM405 780q-22 0 -38.5 16t-16.5 39t16.5 38.5t38.5 15.5q23 0 39 -15.5t16 -38.5t-16 -39t-39 -16z" />
    <glyph glyph-name="uni14A9" unicode="&#x14a9;" horiz-adv-x="527" 
d="M40 0v87h316v603h96v-690h-412zM405 780q-23 0 -39.5 16t-16.5 39t16.5 38.5t39.5 15.5t39 -15.5t16 -38.5t-16 -39t-39 -16zM231 780q-23 0 -39 16t-16 39t16 38.5t39 15.5t39 -15.5t16 -38.5t-16 -39t-39 -16z" />
    <glyph glyph-name="uni14AA" unicode="&#x14aa;" horiz-adv-x="528" 
d="M75 0v690h97v-603h316v-87h-413z" />
    <glyph glyph-name="uni14AB" unicode="&#x14ab;" horiz-adv-x="528" 
d="M75 0v690h97v-603h316v-87h-413zM124 780q-22 0 -38.5 16t-16.5 39t16.5 38.5t38.5 15.5q23 0 39 -15.5t16 -38.5t-16 -39t-39 -16z" />
    <glyph glyph-name="uni14AC" unicode="&#x14ac;" horiz-adv-x="751" 
d="M112 299q-23 0 -39 16.5t-16 39.5t16 39t39 16t39 -16t16 -39t-16 -39.5t-39 -16.5zM580 0v603h-316v87h412v-690h-96z" />
    <glyph glyph-name="uni14AD" unicode="&#x14ad;" horiz-adv-x="751" 
d="M356 0v603h-316v87h412v-690h-96zM639 299q-23 0 -39 16.5t-16 39.5t16 39t39 16t39 -16t16 -39t-16 -39.5t-39 -16.5z" />
    <glyph glyph-name="uni14AE" unicode="&#x14ae;" horiz-adv-x="752" 
d="M112 299q-23 0 -39 16.5t-16 39.5t16 39t39 16t39 -16t16 -39t-16 -39.5t-39 -16.5zM299 0v690h413v-87h-316v-603h-97z" />
    </font>
</defs>
</svg>
